<?xml version="1.0" encoding="utf-8"?>
<!-- Generator: Adobe Illustrator 16.0.0, SVG Export Plug-In . SVG Version: 6.00 Build 0)  -->
<!DOCTYPE svg PUBLIC "-//W3C//DTD SVG 1.1//EN" "http://www.w3.org/Graphics/SVG/1.1/DTD/svg11.dtd">
<svg version="1.1" id="Layer_1" xmlns="http://www.w3.org/2000/svg" xmlns:xlink="http://www.w3.org/1999/xlink" x="0px" y="0px"
	 width="580.003px" height="285.574px" viewBox="0 0 580.003 285.574" enable-background="new 0 0 580.003 285.574"
	 xml:space="preserve">
<g>
	<g>
		<path fill="#DEC27B" d="M107.979,147.552c-1.525,6.544-2.728,14.437-3.606,23.674c-0.881,9.24-1.137,17.368-0.769,24.386
			c0.112,2.148,0.227,3.651,0.344,4.508c0.339,2.351,0.538,4.102,0.598,5.246c0.132,2.506-0.655,4.648-2.355,6.425
			c-1.703,1.777-3.88,2.736-6.529,2.875c-3.867,0.203-6.995-1.232-9.382-4.302c-2.388-3.072-3.722-7.292-4.003-12.663
			c-0.301-5.729-0.078-12.798,0.666-21.204c0.744-8.404,1.855-16.31,3.335-23.712c-3.974,0.926-9.382,2.574-16.222,4.943
			c-8.894,2.98-14.743,5.118-17.547,6.414c-2.79,4.312-6.525,11.15-11.205,20.516c-4.68,9.367-7.971,16.469-9.871,21.309
			c-1.77,4.617-3.451,7.792-5.049,9.529c-1.596,1.733-3.72,2.672-6.37,2.811c-2.793,0.146-5.207-0.695-7.242-2.528
			s-3.12-4.038-3.255-6.616c-0.116-2.22,0.375-4.848,1.472-7.888c1.098-3.036,3.343-7.84,6.731-14.41
			c2.218-4.281,4.179-7.976,5.883-11.08c-0.638,0.177-1.313,0.283-2.03,0.32c-2.434,0.128-4.423-0.468-5.964-1.788
			c-1.541-1.319-2.375-3.16-2.499-5.523c-0.18-3.438,1.231-6.313,4.234-8.625s9.36-5.373,19.07-9.188l1.9-0.745
			c4.057-7.538,9.068-15.718,15.034-24.541c5.964-8.823,12.412-17.688,19.343-26.6c6.93-8.909,13.761-16.987,20.49-24.234
			c5.372-5.738,9.802-9.94,13.29-12.6c3.486-2.66,6.483-4.056,8.991-4.188c3.223-0.169,6.017,0.726,8.382,2.684
			c2.364,1.96,3.624,4.407,3.778,7.344c0.127,2.435-0.516,5.952-1.926,10.55l-4.6,15l-4.159,15.191
			c-2.347,8.67-3.896,14.746-4.646,18.233c1.707-0.305,3.025-0.481,3.958-0.53c2.219-0.116,4.117,0.144,5.696,0.778
			c1.576,0.636,2.809,1.541,3.697,2.715c0.886,1.176,1.38,2.692,1.478,4.555c0.149,2.865-0.603,5.311-2.255,7.336
			c-1.654,2.025-3.904,3.293-6.749,3.802l-4.705,0.676l-4.257,0.978c-0.216,0.011-0.412,0.04-0.589,0.085
			C108.391,147.514,108.194,147.541,107.979,147.552z M101.161,93.509c-3.598,3.995-7.651,8.857-12.162,14.589
			c-4.512,5.729-8.721,11.408-12.627,17.035c-3.906,5.628-7.08,10.516-9.519,14.665c7.75-2.848,15.128-5.281,22.132-7.301
			l1.171-0.277l0.355-1.419l4.414-16.497l5.427-17.736c0.059-0.219,0.102-0.417,0.13-0.599c0.025-0.181,0.086-0.418,0.179-0.71
			c0.092-0.291,0.167-0.547,0.229-0.767C100.949,94.273,101.039,93.946,101.161,93.509z"/>
		<path fill="#DEC27B" d="M151.597,184.155c-5.797,9.999-12.454,15.195-19.975,15.589c-4.297,0.226-7.911-1.255-10.844-4.44
			c-2.931-3.186-4.526-7.249-4.786-12.19c-0.296-5.658,0.751-12.392,3.143-20.202c2.392-7.809,5.702-15.2,9.934-22.173
			c6.99-11.856,12.993-17.917,18.007-18.18c2.219-0.116,4.046,0.471,5.479,1.759c1.431,1.291,2.202,2.974,2.312,5.05
			c0.086,1.648-0.191,3.225-0.829,4.729c-0.64,1.506-2.029,3.787-4.167,6.844c-9.389,14.065-13.89,24.787-13.503,32.163
			c0.124,2.364,1.081,3.499,2.871,3.405c1.935-0.102,4.314-1.951,7.143-5.546c4.854-6.072,9.768-13.689,14.746-22.857l6.69-12.092
			c2.628-4.662,5.697-7.085,9.208-7.27c2.219-0.116,4.045,0.472,5.478,1.76c1.432,1.29,2.207,3.046,2.323,5.265
			c0.105,2.006-0.272,4.054-1.133,6.146s-2.938,5.954-6.233,11.585c-6.123,10.592-9.082,17.856-8.876,21.795
			c0.063,1.219,0.418,2.169,1.065,2.853c0.646,0.685,1.435,1.002,2.366,0.953c2.863-0.15,7.006-4.03,12.424-11.64l6.126-8.508
			c2.345-3.21,4.556-4.871,6.634-4.98c1.504-0.079,2.766,0.377,3.787,1.363c1.021,0.989,1.571,2.234,1.65,3.738
			c0.135,2.578-0.735,5.839-2.611,9.778c-1.877,3.941-4.496,8.083-7.859,12.424c-10.038,12.663-19.245,19.214-27.625,19.653
			c-3.652,0.191-6.727-0.922-9.224-3.342c-2.496-2.417-3.849-5.598-4.055-9.536C151.205,186.977,151.315,185.678,151.597,184.155z"
			/>
		<path fill="#DEC27B" d="M236.684,107.735c1.696-0.52,2.508-0.777,2.437-0.773l6.47-1.956c3.252-0.959,5.451-1.471,6.598-1.531
			c2.292-0.12,4.212,0.553,5.762,2.016c1.548,1.464,2.382,3.305,2.498,5.523c0.161,3.081-1.029,5.729-3.569,7.944
			c-1.444,1.224-4.339,2.202-8.68,2.932c-4.057,0.717-10.429,2.451-19.118,5.204c-2.263,0.693-4.097,1.328-5.502,1.903l-1.686,2.782
			c-5.415,9.046-9.79,18.072-13.124,27.081c-2.628,7.393-3.862,12.627-3.7,15.706c0.195,3.725,1.831,5.505,4.912,5.344
			c2.506-0.132,5.896-2.248,10.17-6.35c4.272-4.103,8.71-9.541,13.312-16.318c2.125-3.271,4.334-4.966,6.627-5.087
			c1.646-0.086,3.019,0.398,4.116,1.453c1.096,1.058,1.686,2.373,1.769,3.948c0.132,2.507-0.948,5.903-3.236,10.188
			c-2.29,4.286-5.53,8.908-9.723,13.868c-9.938,11.796-19.635,17.941-29.089,18.437c-5.156,0.271-9.416-1.192-12.779-4.394
			c-3.363-3.198-5.186-7.447-5.463-12.747c-0.308-5.872,0.689-12.533,2.993-19.98c2.302-7.444,6.231-16.411,11.786-26.901
			c-1.633,0.374-2.915,0.584-3.845,0.633c-2.651,0.139-4.818-0.465-6.505-1.813c-1.687-1.348-2.59-3.168-2.71-5.46
			c-0.157-3.009,0.852-5.323,3.029-6.945s6.251-3.021,12.222-4.196c3.482-0.683,6.175-1.4,8.075-2.146l1.199-1.786
			c6.741-11.127,13.924-21.375,21.549-30.754c3.438-4.273,6.84-6.5,10.207-6.676c2.219-0.116,4.116,0.43,5.688,1.641
			c1.571,1.211,2.406,2.748,2.504,4.609c0.083,1.576-0.417,3.344-1.5,5.303c-1.082,1.961-3.738,5.744-7.969,11.352
			C240.656,102.032,238.749,104.683,236.684,107.735z"/>
		<path fill="#DEC27B" d="M261.379,141.129l1.244-0.927c7.717-6.223,13.771-10.614,18.161-13.179
			c4.391-2.563,8.16-3.93,11.312-4.095c2.434-0.128,4.615,0.712,6.541,2.513c1.926,1.802,2.954,3.957,3.086,6.463
			c0.098,1.863-0.26,3.605-1.072,5.227c-0.813,1.623-2.858,4.747-6.135,9.37l-4.53,6.056c-5.086,7.09-7.551,12.137-7.393,15.146
			c0.116,2.221,1.248,3.273,3.396,3.161c3.009-0.157,6.214-2.012,9.619-5.567c1.903-2.039,5.472-6.605,10.701-13.703
			c2.209-3.06,4.424-4.648,6.645-4.766c1.575-0.082,2.856,0.39,3.845,1.416c0.986,1.024,1.526,2.396,1.616,4.116
			c0.267,5.086-3.556,12.324-11.466,21.714c-3.457,3.917-6.839,7.219-10.146,9.904c-3.307,2.688-6.642,4.819-10.007,6.396
			c-3.364,1.576-6.408,2.436-9.129,2.578c-3.939,0.207-7.399-1.065-10.381-3.819c-2.981-2.752-4.576-6.132-4.786-10.144
			c-0.222-4.226,0.843-9.256,3.194-15.088c2.352-5.833,5.456-11.005,9.313-15.515c-11.479,5.7-20.647,16.45-27.503,32.249
			l-3.354,7.933c-1.527,3.742-3.04,6.392-4.54,7.94c-1.497,1.552-3.25,2.379-5.256,2.484c-2.148,0.112-4.03-0.524-5.647-1.912
			c-1.616-1.387-2.479-3.119-2.589-5.197c-0.226-4.297,1.726-12.299,5.852-24.007c2.505-7.025,5.765-15.399,9.779-25.127
			c4.014-9.726,7.803-18.273,11.368-25.642c5.829-12.084,11.83-22.613,18.003-31.592c6.172-8.976,12.145-15.968,17.914-20.975
			c5.771-5.005,10.947-7.63,15.531-7.871c3.438-0.18,6.312,0.908,8.628,3.265c2.313,2.356,3.573,5.505,3.78,9.442
			c0.304,5.802-1.053,11.781-4.069,17.934c-3.017,6.156-7.461,12.153-13.331,17.989c-4.302,4.248-9.446,8.54-15.43,12.874
			c-5.985,4.337-11.705,7.903-17.16,10.702l-0.685,1.329C263.959,134.853,262.318,138.493,261.379,141.129z M276.851,107.461
			c5.284-3.293,9.996-7.273,14.133-11.943c2.239-2.488,4.164-5.137,5.777-7.952c1.611-2.812,2.384-4.864,2.316-6.153
			c-0.026-0.5-0.211-0.94-0.554-1.318c-0.343-0.375-0.802-0.55-1.373-0.52c-1.505,0.079-3.136,1.171-4.892,3.272
			c-1.897,2.183-3.879,4.819-5.941,7.905c-2.065,3.09-3.719,5.816-4.958,8.178l-3.824,7.203
			C277.539,106.204,277.31,106.648,276.851,107.461z"/>
		<path fill="#DEC27B" d="M320.805,165.054c-0.78,1.549-1.129,3.112-1.047,4.687c0.263,5.014,3.223,7.372,8.882,7.075
			c4.01-0.21,8.539-2.172,13.588-5.884c5.047-3.711,9.473-8.359,13.272-13.944l4.299-6.366c1.603-2.31,3.406-3.518,5.412-3.623
			c1.719-0.09,3.147,0.445,4.285,1.605c1.139,1.164,1.752,2.602,1.843,4.321c0.289,5.516-3.396,12.639-11.053,21.37
			c-5.352,6.17-11.146,11.07-17.382,14.7c-6.238,3.631-12.256,5.598-18.058,5.901c-6.303,0.33-11.604-1.492-15.906-5.469
			c-4.303-3.976-6.626-9.256-6.972-15.847c-0.42-8.021,1.486-16.541,5.717-25.561s9.757-16.617,16.58-22.792
			c6.821-6.174,13.563-9.437,20.224-9.785c4.226-0.222,7.736,0.994,10.533,3.649c2.796,2.654,4.308,6.13,4.532,10.427
			c0.215,4.082-0.536,8.252-2.253,12.506c-1.716,4.257-4.136,8.118-7.257,11.584c-3.122,3.468-6.673,6.274-10.654,8.423
			c-3.98,2.147-8.05,3.33-12.202,3.548C325.325,165.678,323.198,165.504,320.805,165.054z M326.751,149.014
			c1.086,0.159,1.986,0.219,2.702,0.181c3.294-0.173,6.463-1.721,9.506-4.646c3.042-2.923,4.49-5.782,4.344-8.575
			c-0.041-0.788-0.308-1.421-0.799-1.897c-0.493-0.477-1.061-0.698-1.705-0.664c-1.575,0.082-3.739,1.614-6.491,4.595
			C331.555,140.989,329.036,144.657,326.751,149.014z"/>
		<path fill="#DEC27B" d="M381.783,146.667l3.562-3.957c7.537-8.294,15.065-15.367,22.587-21.221
			c3.035-2.383,5.673-4.12,7.914-5.208c2.241-1.086,4.329-1.682,6.263-1.782c2.507-0.132,4.659,0.51,6.457,1.923
			c1.798,1.415,2.753,3.195,2.865,5.344c0.102,1.935-0.272,3.715-1.121,5.338c-0.849,1.625-2.688,4.199-5.52,7.723
			c-4.593,5.556-8.382,11.016-11.368,16.377c-2.988,5.364-4.414,9.3-4.283,11.806c0.109,2.078,1.093,3.066,2.957,2.969
			c3.58-0.188,8.163-4.557,13.748-13.109c3.728-5.581,6.155-8.957,7.278-10.13c1.124-1.172,2.545-1.804,4.264-1.894
			c1.504-0.079,2.783,0.357,3.839,1.307c1.056,0.952,1.625,2.215,1.707,3.789c0.132,2.508-0.976,6.048-3.321,10.623
			c-2.346,4.577-5.404,9.262-9.174,14.055c-4.046,5.024-8.345,9.02-12.892,11.986c-4.549,2.969-8.9,4.56-13.054,4.777
			c-4.154,0.218-7.667-1.034-10.539-3.757c-2.872-2.72-4.42-6.231-4.645-10.528c-0.214-4.082,0.254-7.806,1.407-11.169
			c1.152-3.362,3.391-7.574,6.718-12.634c-5.984,3.691-11.65,8.637-16.997,14.842c-5.35,6.205-9.162,12.24-11.439,18.104
			l-3.406,9.013c-1.701,4.542-4.271,6.902-7.708,7.082c-2.291,0.12-4.25-0.603-5.877-2.169c-1.626-1.568-2.505-3.602-2.637-6.109
			c-0.214-4.083,1.567-11.556,5.343-22.418c3.776-10.862,8.168-21.273,13.176-31.231c4.092-8.256,7.76-14.319,11.004-18.189
			c3.244-3.867,6.298-5.877,9.164-6.027c1.788-0.094,3.383,0.522,4.782,1.85c1.398,1.327,2.15,2.994,2.256,4.999
			c0.098,1.862-0.277,3.642-1.121,5.336l-5.402,9.979l-5.419,9.656c-0.191,0.44-0.371,0.812-0.534,1.104
			C382.452,145.412,382.175,145.93,381.783,146.667z"/>
		<path fill="#DEC27B" d="M476.794,95.15c1.696-0.52,2.508-0.777,2.437-0.773l6.47-1.956c3.252-0.958,5.451-1.471,6.598-1.531
			c2.292-0.12,4.212,0.553,5.762,2.015c1.548,1.464,2.382,3.306,2.498,5.524c0.161,3.081-1.029,5.729-3.569,7.943
			c-1.444,1.225-4.339,2.202-8.68,2.933c-4.056,0.716-10.429,2.45-19.118,5.204c-2.263,0.693-4.097,1.328-5.502,1.903l-1.686,2.782
			c-5.415,9.046-9.79,18.071-13.124,27.08c-2.628,7.393-3.862,12.627-3.7,15.706c0.195,3.725,1.831,5.505,4.912,5.344
			c2.506-0.131,5.896-2.248,10.17-6.35c4.272-4.102,8.71-9.541,13.312-16.317c2.125-3.271,4.334-4.967,6.627-5.087
			c1.646-0.087,3.019,0.397,4.116,1.453c1.096,1.057,1.687,2.372,1.769,3.947c0.132,2.507-0.948,5.903-3.236,10.188
			c-2.29,4.285-5.53,8.908-9.723,13.867c-9.938,11.796-19.635,17.941-29.089,18.438c-5.157,0.27-9.416-1.193-12.78-4.395
			c-3.362-3.198-5.185-7.447-5.462-12.747c-0.308-5.872,0.689-12.533,2.992-19.979c2.303-7.444,6.231-16.412,11.787-26.902
			c-1.634,0.374-2.916,0.584-3.846,0.633c-2.65,0.139-4.817-0.464-6.504-1.813c-1.688-1.347-2.59-3.167-2.71-5.459
			c-0.158-3.009,0.852-5.324,3.029-6.946c2.177-1.622,6.251-3.021,12.222-4.196c3.482-0.683,6.175-1.399,8.075-2.146l1.199-1.786
			c6.741-11.126,13.924-21.375,21.549-30.754c3.438-4.273,6.84-6.499,10.207-6.676c2.219-0.116,4.116,0.431,5.688,1.641
			c1.571,1.211,2.406,2.748,2.504,4.609c0.083,1.576-0.417,3.344-1.5,5.303c-1.082,1.961-3.738,5.744-7.969,11.352
			C480.767,89.448,478.859,92.098,476.794,95.15z"/>
		<path fill="#DEC27B" d="M522.694,146.715c0.098,1.863-0.868,4.696-2.894,8.501c-2.027,3.806-4.295,7.138-6.802,9.997
			c-4.468,5.189-9.102,9.275-13.9,12.256c-4.799,2.981-9.17,4.574-13.107,4.78c-4.439,0.233-8.154-1.115-11.146-4.048
			c-2.989-2.931-4.605-6.688-4.846-11.273c-0.499-9.523,3.608-21.589,12.322-36.194c3.038-5.042,5.688-8.646,7.943-10.812
			c2.257-2.166,4.603-3.312,7.038-3.438c2.22-0.117,4.07,0.577,5.549,2.078c1.479,1.502,2.283,3.473,2.41,5.906
			c0.083,1.576-0.146,3.043-0.686,4.399c-0.539,1.357-1.548,3.008-3.025,4.952c-8.567,11.94-12.737,20.058-12.513,24.355
			c0.136,2.578,1.385,3.805,3.748,3.682c1.861-0.098,4.233-1.442,7.114-4.035c3.15-2.894,5.903-5.874,8.257-8.943
			c2.352-3.067,4.113-5.08,5.285-6.04c1.17-0.96,2.436-1.475,3.797-1.546c1.504-0.079,2.729,0.36,3.678,1.315
			C521.864,143.563,522.456,144.934,522.694,146.715z M534.238,75.119c0.218,4.154-1.317,8.095-4.604,11.823
			c-3.289,3.727-6.938,5.694-10.947,5.905c-2.293,0.12-4.284-0.545-5.977-2.002c-1.692-1.455-2.594-3.258-2.707-5.406
			c-0.222-4.226,1.345-8.257,4.698-12.096c3.354-3.838,7.035-5.862,11.047-6.073c2.434-0.127,4.427,0.541,5.976,2.004
			C533.272,70.736,534.111,72.686,534.238,75.119z"/>
		<path fill="#DEC27B" d="M574.667,147.654c0.218,4.154-3.66,10.317-11.635,18.491c-5.316,5.45-10.843,9.637-16.578,12.558
			c-5.735,2.923-11.396,4.529-16.982,4.822c-6.161,0.323-11.167-1.354-15.022-5.029c-3.855-3.677-5.956-8.808-6.302-15.398
			c-0.353-6.731,0.884-13.655,3.706-20.77c2.823-7.113,7.145-14.056,12.967-20.824c4.727-5.705,9.521-10.157,14.381-13.356
			c4.858-3.199,9.438-4.912,13.735-5.138c2.506-0.131,4.795,0.379,6.867,1.525c2.069,1.148,3.719,2.805,4.946,4.966
			c1.226,2.163,1.909,4.568,2.048,7.217c0.214,4.083-0.497,8.341-2.132,12.771c-1.637,4.432-3.795,8.116-6.477,11.058
			c-2.684,2.941-5.42,4.485-8.214,4.632c-1.576,0.083-3.059-0.468-4.449-1.653c-1.392-1.182-2.127-2.562-2.21-4.139
			c-0.049-0.929,0.122-1.782,0.513-2.559c0.39-0.774,1.199-1.768,2.429-2.981c3.404-3.553,5.049-6.439,4.933-8.66
			c-0.038-0.716-0.247-1.28-0.627-1.691c-0.382-0.41-0.931-0.598-1.646-0.561c-1.361,0.071-3.145,1.01-5.347,2.812
			c-2.205,1.803-4.484,4.204-6.841,7.198c-3.16,4.116-5.659,8.502-7.497,13.159c-1.84,4.658-2.669,8.668-2.493,12.034
			c0.12,2.293,0.915,4.1,2.385,5.423s3.242,1.931,5.32,1.822c1.861-0.098,4.058-0.68,6.587-1.746
			c2.53-1.065,5.039-2.526,7.527-4.381c2.488-1.854,4.578-3.757,6.271-5.714l6.204-7.005c2.574-2.936,4.972-4.462,7.193-4.578
			c1.646-0.086,3.109,0.448,4.393,1.601C573.901,144.715,574.585,146.079,574.667,147.654z"/>
	</g>
	<g>
		<path fill="#DEC27B" stroke="#DDC17A" stroke-width="0.25" stroke-miterlimit="10" d="M152.084,248.237v6.75h8.661v5.205h-8.661
			v13.501h-5.979v-30.661h15.209v5.205H152.084z"/>
		<path fill="#DEC27B" stroke="#DDC17A" stroke-width="0.25" stroke-miterlimit="10" d="M182.7,274.507
			c-9.354,0-15.168-7.157-15.168-16.185c0-9.109,6.019-16.104,15.168-16.104s15.168,6.994,15.168,16.104
			C197.868,267.35,192.053,274.507,182.7,274.507z M182.7,248.115c-5.652,0-8.987,5.002-8.987,9.963
			c0,4.717,2.358,10.532,8.987,10.532c6.628,0,8.986-5.815,8.986-10.532C191.687,253.117,188.353,248.115,182.7,248.115z"/>
		<path fill="#DEC27B" stroke="#DDC17A" stroke-width="0.25" stroke-miterlimit="10" d="M225.595,273.693h-7.238l-7.441-12.362
			h-0.081v12.362h-5.978v-30.661h8.092c6.06,0,10.248,2.684,10.248,9.23c0,3.904-2.155,7.808-6.263,8.499L225.595,273.693z
			 M210.834,257.143h0.772c3.294,0,5.611-0.976,5.611-4.717c0-3.782-2.398-4.514-5.57-4.514h-0.813V257.143z"/>
		<path fill="#DEC27B" stroke="#DDC17A" stroke-width="0.25" stroke-miterlimit="10" d="M257.756,254.662h-0.081l-6.954,19.438
			h-2.073l-6.71-19.438h-0.081l-2.725,19.031h-6.019l5.164-31.475h4.229l7.563,20.211l7.238-20.211h4.311l4.596,31.475h-6.019
			L257.756,254.662z"/>
		<path fill="#DEC27B" d="M305.594,270.31c-2.761,2.404-5.833,4.274-9.617,4.274c-5.655,0-9.84-4.141-9.84-9.796
			c0-3.74,1.825-6.679,4.853-8.727l2.004-1.381c-1.559-2.182-2.716-4.407-2.716-7.124c0-4.986,3.74-8.326,8.549-8.326
			c4.854,0,8.593,3.251,8.593,8.282c0,3.695-2.671,6.233-5.521,8.104l4.675,6.011l3.384-4.319l4.141,3.874l-3.606,4.854l5.789,7.658
			h-7.971L305.594,270.31z M296.511,258.822c-1.781,1.335-3.785,2.938-3.785,5.388c0,2.137,1.781,4.496,4.008,4.496
			c2.048,0,3.606-1.558,4.986-2.894L296.511,258.822z M298.87,251.787l1.113-0.936c1.158-0.979,1.87-2.048,1.87-3.65
			c0-1.559-0.891-3.295-2.627-3.295c-1.781,0-2.761,1.514-2.761,3.116c0,0.891,0.268,1.736,0.802,2.494L298.87,251.787z"/>
		<path fill="#DEC27B" stroke="#DDC17A" stroke-width="0.25" stroke-miterlimit="10" d="M342.499,248.237v6.75h8.661v5.205h-8.661
			v13.501h-5.978v-30.661h15.208v5.205H342.499z"/>
		<path fill="#DEC27B" stroke="#DDC17A" stroke-width="0.25" stroke-miterlimit="10" d="M362.501,243.032h5.978v17.16
			c0,3.782,0.325,9.109,5.408,9.109s5.409-5.327,5.409-9.109v-17.16h5.978v18.34c0,7.482-3.172,13.135-11.387,13.135
			c-8.214,0-11.386-5.652-11.386-13.135V243.032z"/>
		<path fill="#DEC27B" stroke="#DDC17A" stroke-width="0.25" stroke-miterlimit="10" d="M393.563,242.219h4.311l16.144,21.431h0.081
			v-20.617h5.978v31.271h-4.311l-16.144-21.431h-0.081v20.82h-5.978V242.219z"/>
		<path fill="#DEC27B" stroke="#DDC17A" stroke-width="0.25" stroke-miterlimit="10" d="M448.982,251.165
			c-1.667-2.033-4.188-3.253-6.75-3.253c-5.733,0-9.027,5.286-9.027,10.572c0,5.165,3.416,10.329,8.986,10.329
			c2.562,0,5.124-1.342,6.791-3.253v7.116c-2.236,1.058-4.473,1.83-6.953,1.83c-8.621,0-15.005-7.441-15.005-15.9
			c0-8.702,6.14-16.388,15.127-16.388c2.399,0,4.758,0.65,6.831,1.789V251.165z"/>
		<path fill="#DEC27B" stroke="#DDC17A" stroke-width="0.25" stroke-miterlimit="10" d="M466.952,273.693h-5.979v-25.456h-6.181
			v-5.205h18.34v5.205h-6.181V273.693z"/>
		<path fill="#DEC27B" stroke="#DDC17A" stroke-width="0.25" stroke-miterlimit="10" d="M485.369,273.693h-5.978v-30.661h5.978
			V273.693z"/>
		<path fill="#DEC27B" stroke="#DDC17A" stroke-width="0.25" stroke-miterlimit="10" d="M507.487,274.507
			c-9.353,0-15.167-7.157-15.167-16.185c0-9.109,6.018-16.104,15.167-16.104c9.15,0,15.168,6.994,15.168,16.104
			C522.655,267.35,516.841,274.507,507.487,274.507z M507.487,248.115c-5.652,0-8.986,5.002-8.986,9.963
			c0,4.717,2.358,10.532,8.986,10.532c6.629,0,8.987-5.815,8.987-10.532C516.475,253.117,513.141,248.115,507.487,248.115z"/>
		<path fill="#DEC27B" stroke="#DDC17A" stroke-width="0.25" stroke-miterlimit="10" d="M529.645,242.219h4.31l16.145,21.431h0.081
			v-20.617h5.978v31.271h-4.311l-16.144-21.431h-0.081v20.82h-5.978V242.219z"/>
	</g>
</g>
</svg>
