<?xml version="1.0" encoding="utf-8"?>
<!-- Generator: Adobe Illustrator 16.0.0, SVG Export Plug-In . SVG Version: 6.00 Build 0)  -->
<!DOCTYPE svg PUBLIC "-//W3C//DTD SVG 1.1//EN" "http://www.w3.org/Graphics/SVG/1.1/DTD/svg11.dtd">
<svg version="1.1" id="Layer_1" xmlns="http://www.w3.org/2000/svg" xmlns:xlink="http://www.w3.org/1999/xlink" x="0px" y="0px"
	 width="227.961px" height="228.367px" viewBox="0 0 227.961 228.367" enable-background="new 0 0 227.961 228.367"
	 xml:space="preserve">
<path fill="#DEC07A" d="M227.961,83.997c0,46.391-51.031,83.997-113.98,83.997C51.031,167.994,0,130.388,0,83.997
	C0,37.607,51.031,0,113.981,0C176.93,0,227.961,37.607,227.961,83.997"/>
<path fill="#DEC07A" d="M192.591,159.665c0,16.258-13.18,29.437-29.438,29.437s-29.438-13.179-29.438-29.437
	s13.18-29.437,29.438-29.437S192.591,143.407,192.591,159.665"/>
<path fill="#DEC07A" d="M218.429,210.366c0,9.942-8.059,18.001-18,18.001c-9.942,0-18.002-8.059-18.002-18.001
	c0-9.941,8.06-18.001,18.002-18.001C210.37,192.365,218.429,200.425,218.429,210.366"/>
</svg>
