<?xml version="1.0" encoding="utf-8"?>
<!-- Generator: Adobe Illustrator 16.0.0, SVG Export Plug-In . SVG Version: 6.00 Build 0)  -->
<!DOCTYPE svg PUBLIC "-//W3C//DTD SVG 1.1//EN" "http://www.w3.org/Graphics/SVG/1.1/DTD/svg11.dtd">
<svg version="1.1" id="Layer_1" xmlns="http://www.w3.org/2000/svg" xmlns:xlink="http://www.w3.org/1999/xlink" x="0px" y="0px"
	 width="349.235px" height="265.444px" viewBox="0 0 349.235 265.444" enable-background="new 0 0 349.235 265.444"
	 xml:space="preserve">
<g>
	<path fill="#F1F1F1" d="M349.235,264.003c0,0.792-0.648,1.44-1.44,1.44H1.44c-0.792,0-1.44-0.648-1.44-1.44V1.44
		C0,0.648,0.648,0,1.44,0h346.355c0.792,0,1.44,0.648,1.44,1.44V264.003z"/>
</g>
<g>
	<path fill="#FFFFFF" d="M342.813,19.627c0,0.792-0.648,1.44-1.44,1.44H7.556c-0.792,0-1.44-0.648-1.44-1.44v-5.683
		c0-0.792,0.648-1.44,1.44-1.44h333.817c0.792,0,1.44,0.648,1.44,1.44V19.627z"/>
</g>
<circle fill="#E1E1E1" cx="14.679" cy="6.811" r="1.835"/>
<circle fill="#E1E1E1" cx="21.183" cy="6.812" r="1.835"/>
<rect y="25.076" fill="#939292" width="349.235" height="233.639"/>
<circle fill="#E1E1E1" cx="7.951" cy="6.812" r="1.835"/>
</svg>
