<?xml version="1.0" encoding="utf-8"?>
<!-- Generator: Adobe Illustrator 16.0.0, SVG Export Plug-In . SVG Version: 6.00 Build 0)  -->
<!DOCTYPE svg PUBLIC "-//W3C//DTD SVG 1.1//EN" "http://www.w3.org/Graphics/SVG/1.1/DTD/svg11.dtd">
<svg version="1.1" id="Layer_1" xmlns="http://www.w3.org/2000/svg" xmlns:xlink="http://www.w3.org/1999/xlink" x="0px" y="0px"
	 width="132.551px" height="131.862px" viewBox="0 0 132.551 131.862" enable-background="new 0 0 132.551 131.862"
	 xml:space="preserve">
<path fill="#818793" d="M117.867,66.498c0.161-6.424-1.414-13.095-1.414-13.095l12.38-12.217l-8.34-15.082l-16.931,3.99
	c-3.866-4.477-10.338-8.159-10.338-8.159l0.15-17.244L76.675,0l-9.264,14.684C62.53,14.395,54.21,16.23,54.21,16.23L42.043,4.07
	l-15.278,8.448l3.831,16.771c-4.192,3.617-8.329,10.357-8.329,10.357l-17.361,0.04L0,56.325l14.684,9.04
	c-0.401,5.316,1.415,13.096,1.415,13.096L3.718,90.677l8.34,15.081l16.93-3.988c3.506,4.011,10.339,8.159,10.339,8.159l-0.15,17.243
	l16.7,4.69l9.264-14.684c4.578,0.258,13.201-1.547,13.201-1.547l12.167,12.161l15.279-8.448l-3.832-16.771
	c4.471-3.83,8.329-10.357,8.329-10.357l17.36-0.04l4.906-16.638L117.867,66.498z M81.989,94.348
	c-15.898,8.791-35.821,3.196-44.5-12.499c-8.679-15.694-2.825-35.543,13.072-44.334c15.898-8.791,35.821-3.196,44.5,12.498
	C103.739,65.708,97.887,85.557,81.989,94.348"/>
<path fill="#DEC07A" d="M55.679,46.768c10.721-5.928,24.156-2.155,30.01,8.429c5.852,10.583,1.904,23.969-8.816,29.898
	s-24.156,2.154-30.01-8.429C41.011,66.083,44.957,52.696,55.679,46.768"/>
</svg>
