<?xml version="1.0" encoding="utf-8"?>
<!-- Generator: Adobe Illustrator 16.0.0, SVG Export Plug-In . SVG Version: 6.00 Build 0)  -->
<!DOCTYPE svg PUBLIC "-//W3C//DTD SVG 1.1//EN" "http://www.w3.org/Graphics/SVG/1.1/DTD/svg11.dtd">
<svg version="1.1" xmlns="http://www.w3.org/2000/svg" xmlns:xlink="http://www.w3.org/1999/xlink" x="0px" y="0px"
	 width="170.952px" height="134.198px" viewBox="0 0 170.952 134.198" enable-background="new 0 0 170.952 134.198"
	 xml:space="preserve">
<g id="Layer_1" display="none">
	<path display="inline" fill="#DEC07A" d="M170.952,62.991c0,34.789-38.27,62.991-85.477,62.991S0,97.78,0,62.991S38.269,0,85.476,0
		S170.952,28.202,170.952,62.991"/>
	<polygon display="inline" fill="#DEC07A" points="154.185,134.198 110.055,119.887 134.408,95.533 143.986,105.111 	"/>
</g>
<g id="Layer_2">
	<polygon fill="#AA9157" points="16.53,134.021 60.518,119.756 36.243,95.48 26.695,105.026 	"/>
	<path fill="#AA9157" d="M-0.184,63.043c0,34.676,38.146,62.789,85.199,62.789c47.058,0,85.203-28.112,85.203-62.789
		c0-34.677-38.146-62.789-85.203-62.789C37.962,0.255-0.184,28.367-0.184,63.043"/>
</g>
<g id="Layer_3">
	<path fill="#FDFBDF" d="M91.523,62.638c0,3.809-3.088,6.897-6.896,6.897c-3.81,0-6.897-3.089-6.897-6.897
		c0-3.81,3.088-6.897,6.897-6.897C88.436,55.74,91.523,58.828,91.523,62.638"/>
	<path fill="#FDFBDF" d="M118.225,62.638c0,3.809-3.088,6.897-6.897,6.897c-3.809,0-6.897-3.089-6.897-6.897
		c0-3.81,3.089-6.897,6.897-6.897C115.137,55.74,118.225,58.828,118.225,62.638"/>
	<path fill="#FDFBDF" d="M64.823,62.638c0,3.809-3.089,6.897-6.897,6.897s-6.896-3.089-6.896-6.897c0-3.81,3.088-6.897,6.896-6.897
		S64.823,58.828,64.823,62.638"/>
</g>
</svg>
