<?xml version="1.0" encoding="utf-8"?>
<!-- Generator: Adobe Illustrator 16.0.0, SVG Export Plug-In . SVG Version: 6.00 Build 0)  -->
<!DOCTYPE svg PUBLIC "-//W3C//DTD SVG 1.1//EN" "http://www.w3.org/Graphics/SVG/1.1/DTD/svg11.dtd">
<svg version="1.1" id="Layer_1" xmlns="http://www.w3.org/2000/svg" xmlns:xlink="http://www.w3.org/1999/xlink" x="0px" y="0px"
	 width="429.137px" height="471.839px" viewBox="0 0 429.137 471.839" enable-background="new 0 0 429.137 471.839"
	 xml:space="preserve">
<path fill="#D4474A" d="M227.153,459.824l-3.701-3.609c8.26-8.473,29.108-18.518,57.965-32.421
	c22.174-10.685,47.307-22.794,73.426-37.424c57.552-32.241,53.041-70.319,52.99-70.7l5.122-0.702
	c0.233,1.696,5.011,41.968-55.586,75.911c-26.259,14.711-51.467,26.855-73.709,37.573
	C256.351,441.609,234.777,452.004,227.153,459.824"/>
<path fill="#DEC07A" d="M217.548,471.839c41.362,0,62.299-18.623,109.871-53.036c47.571-34.414,40.364-100.898,40.364-100.898
	l3.583-76.145c0,0-0.724,50.984,0-6.345C373.615,57.171,217.548,81.479,217.548,81.479S63.73,57.157,63.73,235.415v6.345
	l3.583,76.145c0,0-7.207,66.484,40.365,100.898C155.25,453.216,176.185,471.839,217.548,471.839"/>
<path fill="#C5993F" d="M217.548,460.605v11.233c-41.363,0-62.298-18.622-109.87-53.036
	c-47.572-34.414-40.365-100.898-40.365-100.898L63.73,241.76c0,0,0,7.697,0-6.345C63.731,57.156,194.281,81.479,194.281,81.479
	l23.267,136.859L177.73,326.521h39.817l-5.17,47.729l5.17,37.257c0,0-6.837,11.477-6.837,23.273
	C210.71,446.578,215.425,459.33,217.548,460.605"/>
<path fill="#C5993F" d="M83.372,258.563c0,22.778-12.153,41.245-27.144,41.245c-14.991,0-27.144-18.467-27.144-41.245
	c0-22.779,12.153-41.245,27.144-41.245C71.219,217.318,83.372,235.784,83.372,258.563"/>
<path fill="#DEC07A" d="M402.639,258.563c0,22.778-12.153,41.245-27.144,41.245c-14.991,0-27.145-18.467-27.145-41.245
	c0-22.779,12.153-41.245,27.145-41.245C390.485,217.318,402.639,235.784,402.639,258.563"/>
<path fill="#8C6B30" d="M272.734,366.986c0,22.298-25.463,35.203-56.872,35.203c-31.412,0-56.875-12.905-56.875-35.203
	c0,0,16.782,6.744,56.875,6.744C255.952,373.73,272.734,366.986,272.734,366.986"/>
<path fill="#5B2E2E" d="M163.324,237.119c0,6.832-5.538,12.369-12.369,12.369s-12.369-5.537-12.369-12.369
	c0-6.83,5.538-12.368,12.369-12.368S163.324,230.289,163.324,237.119"/>
<path fill="#5B2E2E" d="M290.274,237.119c0,6.832-5.539,12.369-12.369,12.369c-6.832,0-12.369-5.537-12.369-12.369
	c0-6.83,5.537-12.368,12.369-12.368C284.735,224.751,290.274,230.289,290.274,237.119"/>
<path fill="#4B4D52" d="M385.587,203.756v-73.171c0-55.682-45.139-100.821-100.821-100.821H154.215
	c-55.682,0-100.821,45.139-100.821,100.821v73.171c0,0,61-20.163,162.467-20.163C317.329,183.593,385.587,203.756,385.587,203.756"
	/>
<path fill="#3E4147" d="M218.446,183.594c-101.467,0-165.052,20.163-165.052,20.163v-73.171
	c0-55.683,45.139-100.821,100.821-100.821h67.756l-2.584,151.27L218.446,183.594z"/>
<path fill="#818793" d="M239.394,29.764c0,4.997-8.91,9.048-19.903,9.048c-10.992,0-19.903-4.051-19.903-9.048
	c0-4.997,8.911-9.048,19.903-9.048C230.483,20.716,239.394,24.768,239.394,29.764"/>
<rect x="34.081" y="146.108" fill="#3E4147" width="10.688" height="85.247"/>
<rect x="397.294" y="146.108" fill="#3E4147" width="10.688" height="85.247"/>
<path fill="#818793" d="M239.338,107.284c-0.835,3.577-1.493,7.895-1.974,12.944c-0.48,5.051-0.621,9.495-0.42,13.335
	c0.062,1.174,0.123,1.995,0.188,2.462c0.186,1.287,0.296,2.246,0.326,2.87c0.072,1.371-0.357,2.544-1.288,3.516
	c-0.931,0.969-2.121,1.495-3.569,1.571c-2.115,0.11-3.824-0.674-5.129-2.353c-1.307-1.679-2.035-3.989-2.189-6.925
	c-0.164-3.132-0.043-6.997,0.365-11.594c0.407-4.596,1.014-8.92,1.824-12.966c-2.176,0.506-5.133,1.408-8.873,2.702
	c-4.861,1.63-8.06,2.8-9.594,3.507c-1.526,2.357-3.567,6.098-6.127,11.22c-2.56,5.121-4.359,9.004-5.397,11.651
	c-0.968,2.525-1.888,4.262-2.762,5.209c-0.871,0.951-2.033,1.464-3.482,1.538c-1.528,0.081-2.848-0.38-3.96-1.381
	c-1.113-1.003-1.708-2.208-1.782-3.619c-0.062-1.213,0.206-2.65,0.806-4.313c0.599-1.66,1.828-4.288,3.68-7.88
	c1.214-2.339,2.287-4.361,3.218-6.058c-0.35,0.097-0.718,0.155-1.111,0.175c-1.331,0.071-2.419-0.256-3.26-0.978
	c-0.844-0.721-1.299-1.728-1.367-3.021c-0.099-1.879,0.674-3.453,2.316-4.716c1.641-1.263,5.117-2.938,10.427-5.023l1.038-0.407
	c2.221-4.121,4.961-8.596,8.222-13.42c3.262-4.824,6.788-9.672,10.576-14.544c3.789-4.871,7.527-9.289,11.205-13.252
	c2.938-3.139,5.361-5.435,7.268-6.891c1.907-1.453,3.544-2.218,4.915-2.29c1.765-0.093,3.292,0.399,4.584,1.469
	c1.293,1.071,1.981,2.409,2.065,4.016c0.07,1.331-0.28,3.254-1.051,5.769l-2.516,8.201l-2.273,8.308
	c-1.285,4.741-2.133,8.064-2.543,9.97c0.936-0.165,1.657-0.264,2.166-0.289c1.211-0.064,2.252,0.078,3.113,0.426
	c0.862,0.347,1.537,0.841,2.023,1.484c0.482,0.641,0.754,1.473,0.808,2.49c0.081,1.567-0.331,2.903-1.233,4.011
	c-0.904,1.108-2.135,1.801-3.691,2.078l-2.57,0.37l-2.329,0.536c-0.118,0.006-0.225,0.023-0.321,0.046
	C239.561,107.263,239.456,107.275,239.338,107.284 M235.61,77.73c-1.97,2.187-4.186,4.844-6.652,7.978
	c-2.467,3.133-4.769,6.237-6.904,9.313c-2.137,3.079-3.873,5.751-5.204,8.019c4.236-1.555,8.271-2.887,12.101-3.991l0.641-0.151
	l0.195-0.775l2.414-9.022l2.967-9.698c0.031-0.12,0.054-0.229,0.07-0.327c0.015-0.098,0.047-0.229,0.098-0.389
	c0.052-0.159,0.093-0.301,0.126-0.418C235.491,78.148,235.542,77.97,235.61,77.73"/>
<path fill="#2A2C31" d="M42.009,317.904L42.009,317.904C18.808,317.904,0,299.096,0,275.896v-42.537
	c0-23.201,18.808-42.009,42.009-42.009"/>
<path fill="#2A2C31" d="M387.128,191.349L387.128,191.349c23.201,0,42.009,18.808,42.009,42.009v42.537
	c0,23.2-18.808,42.009-42.009,42.009"/>
<path fill="#2A2C31" d="M48.487,151.277H27.806v-34.945C27.806,52.186,79.992,0,144.138,0h152.509
	c64.146,0,116.332,52.186,116.332,116.332v33.655h-20.682v-33.655c0-52.743-42.908-95.651-95.65-95.651H144.138
	c-52.742,0-95.651,42.908-95.651,95.651V151.277z"/>
<path fill="#D4474A" d="M53.075,200.76c0-5.198-4.213-9.411-9.411-9.411c-5.197,0-9.41,4.213-9.41,9.411v107.734
	c0,5.197,4.213,9.41,9.41,9.41c5.198,0,9.411-4.213,9.411-9.41V200.76z"/>
<path fill="#D4474A" d="M401.709,201.19c0-5.198-4.213-9.411-9.411-9.411c-5.197,0-9.41,4.213-9.41,9.411v107.734
	c0,5.197,4.213,9.41,9.41,9.41c5.198,0,9.411-4.213,9.411-9.41V201.19z"/>
<path fill="#3E4147" d="M58.246,200.76c0-5.198-4.213-9.411-9.411-9.411c-5.197,0-9.41,4.213-9.41,9.411v107.734
	c0,5.197,4.213,9.41,9.41,9.41c5.198,0,9.411-4.213,9.411-9.41V200.76z"/>
<path fill="#3E4147" d="M396.538,200.76c0-5.198-4.213-9.411-9.41-9.411s-9.41,4.213-9.41,9.411v107.734
	c0,5.197,4.213,9.41,9.41,9.41s9.41-4.213,9.41-9.41V200.76z"/>
<rect x="63.73" y="191.089" fill="#5B2E2E" width="19.641" height="67.474"/>
<rect x="353.251" y="191.089" fill="#5B2E2E" width="19.641" height="67.474"/>
<path fill="#3E4147" d="M0.486,226.371c4.235,0,7.668,4.625,7.668,23.085c0,18.461-3.433,33.426-7.668,33.426"/>
<path fill="#3E4147" d="M429.137,282.882c-4.235,0-7.668-14.965-7.668-33.426c0-18.46,3.433-23.085,7.668-23.085"/>
<path fill="#818793" d="M38.138,210.221c-4.153,0-7.894-2.878-8.826-7.099c-1.078-4.88,2.005-9.71,6.883-10.788
	c0.923-0.202,93.271-20.373,179.666-20.373c86.352,0,183.227,20.151,184.194,20.356c4.89,1.027,8.022,5.824,6.994,10.714
	s-5.83,8.028-10.716,6.993c-0.95-0.199-96.041-19.967-180.473-19.967c-84.444,0-174.86,19.75-175.763,19.949
	C39.44,210.15,38.784,210.221,38.138,210.221"/>
<rect x="34.254" y="244.504" fill="#D4474A" width="5.17" height="4.576"/>
</svg>
