<?xml version="1.0" encoding="utf-8"?>
<!-- Generator: Adobe Illustrator 16.0.0, SVG Export Plug-In . SVG Version: 6.00 Build 0)  -->
<!DOCTYPE svg PUBLIC "-//W3C//DTD SVG 1.1//EN" "http://www.w3.org/Graphics/SVG/1.1/DTD/svg11.dtd">
<svg version="1.1" id="Layer_1" xmlns="http://www.w3.org/2000/svg" xmlns:xlink="http://www.w3.org/1999/xlink" x="0px" y="0px"
	 width="405.76px" height="464.664px" viewBox="0 0 405.76 464.664" enable-background="new 0 0 405.76 464.664"
	 xml:space="preserve">
<rect y="28.066" fill="#3E4147" width="405.76" height="436.598"/>
<rect x="26.836" y="57.78" fill="#262626" width="352.087" height="369.582"/>
<path fill="#E0E0DF" d="M405.76,29.475V3.845c0-2.124-1.722-3.845-3.845-3.845H3.845C1.721,0,0,1.721,0,3.845v25.63H405.76z"/>
<path fill="#F1605C" d="M17.975,14.097c0,1.965-1.593,3.558-3.559,3.558c-1.965,0-3.558-1.593-3.558-3.558s1.593-3.558,3.558-3.558
	C16.382,10.539,17.975,12.132,17.975,14.097"/>
<path fill="#FDF169" d="M29.668,14.097c0,1.965-1.593,3.558-3.558,3.558s-3.559-1.593-3.559-3.558s1.594-3.558,3.559-3.558
	S29.668,12.132,29.668,14.097"/>
<path fill="#A3D17E" d="M41.362,14.097c0,1.965-1.593,3.558-3.559,3.558c-1.965,0-3.558-1.593-3.558-3.558s1.593-3.558,3.558-3.558
	C39.77,10.539,41.362,12.132,41.362,14.097"/>
<path fill="#FFFFFF" d="M399.993,19.863c0,0.708-0.574,1.281-1.281,1.281H49.979c-0.708,0-1.282-0.573-1.282-1.281V8.329
	c0-0.707,0.574-1.281,1.282-1.281h348.733c0.707,0,1.281,0.574,1.281,1.281V19.863z"/>
<rect x="48.697" y="86.701" fill="#3E4147" width="307.515" height="1.476"/>
<rect x="48.697" y="112.249" fill="#3E4147" width="307.515" height="1.477"/>
<rect x="46.904" y="137.796" fill="#3E4147" width="307.515" height="1.477"/>
<rect x="46.904" y="188.89" fill="#3E4147" width="307.515" height="1.476"/>
<rect x="46.904" y="163.344" fill="#3E4147" width="307.515" height="1.476"/>
<g opacity="0.3">
	<g>
		<defs>
			<rect id="SVGID_1_" x="89.947" y="87.436" width="239.319" height="102.189"/>
		</defs>
		<clipPath id="SVGID_2_">
			<use xlink:href="#SVGID_1_"  overflow="visible"/>
		</clipPath>
		<polygon clip-path="url(#SVGID_2_)" fill="#DEC07A" points="89.947,189.629 89.947,164.88 149.776,138.535 209.606,147.264 
			269.437,112.987 329.266,87.44 329.266,189.629 		"/>
	</g>
</g>
<path fill="#DEC07A" d="M96.146,164.88c0,3.423-2.775,6.198-6.198,6.198s-6.198-2.775-6.198-6.198c0-3.423,2.775-6.198,6.198-6.198
	S96.146,161.457,96.146,164.88"/>
<path fill="#DEC07A" d="M155.975,138.535c0,3.423-2.774,6.198-6.198,6.198c-3.423,0-6.197-2.775-6.197-6.198
	c0-3.423,2.774-6.198,6.197-6.198C153.2,132.337,155.975,135.112,155.975,138.535"/>
<path fill="#DEC07A" d="M215.804,147.264c0,3.423-2.774,6.198-6.197,6.198c-3.424,0-6.198-2.775-6.198-6.198
	c0-3.423,2.774-6.198,6.198-6.198C213.029,141.066,215.804,143.841,215.804,147.264"/>
<path fill="#DEC07A" d="M275.634,112.987c0,3.423-2.775,6.198-6.198,6.198s-6.198-2.775-6.198-6.198s2.775-6.198,6.198-6.198
	S275.634,109.564,275.634,112.987"/>
<path fill="#DEC07A" d="M335.463,87.44c0,3.423-2.774,6.198-6.198,6.198c-3.423,0-6.197-2.775-6.197-6.198s2.774-6.198,6.197-6.198
	C332.688,81.242,335.463,84.018,335.463,87.44"/>
<path fill="#3E4147" d="M97.938,285.246c-16.909,0-30.618-13.709-30.618-30.619s13.709-30.619,30.618-30.619
	c16.91,0,30.619,13.709,30.619,30.619S114.848,285.246,97.938,285.246 M115.765,254.627c0-9.845-7.98-17.827-17.827-17.827
	c-9.845,0-17.827,7.982-17.827,17.827s7.982,17.827,17.827,17.827C107.784,272.454,115.765,264.472,115.765,254.627"/>
<path fill="#DEC07A" d="M83.346,244.384c-2.038,2.898-3.235,6.431-3.235,10.243c0,9.846,7.982,17.827,17.827,17.827v12.791
	c-16.909,0-30.618-13.709-30.618-30.618c0-6.108,1.789-11.8,4.871-16.577"/>
<path fill="#3E4147" d="M209.606,285.246c-16.91,0-30.619-13.709-30.619-30.619s13.709-30.619,30.619-30.619
	s30.619,13.709,30.619,30.619S226.517,285.246,209.606,285.246 M227.434,254.627c0-9.845-7.981-17.827-17.827-17.827
	s-17.827,7.982-17.827,17.827s7.981,17.827,17.827,17.827S227.434,264.472,227.434,254.627"/>
<path fill="#78A4D7" d="M209.606,236.8c-9.846,0-17.827,7.981-17.827,17.827c0,9.845,7.981,17.827,17.827,17.827v12.792
	c-16.91,0-30.619-13.709-30.619-30.619s13.709-30.619,30.619-30.619V236.8z"/>
<path fill="#3E4147" d="M312.853,285.246c-16.91,0-30.619-13.709-30.619-30.619s13.709-30.619,30.619-30.619
	s30.619,13.709,30.619,30.619S329.763,285.246,312.853,285.246 M330.679,254.627c0-9.845-7.98-17.827-17.826-17.827
	s-17.827,7.982-17.827,17.827s7.981,17.827,17.827,17.827S330.679,264.472,330.679,254.627"/>
<path fill="#C492BA" d="M296.308,261.276c2.636,6.553,9.05,11.178,16.545,11.178v12.792c-12.46,0-23.182-7.443-27.962-18.125"/>
<rect x="46.905" y="313.029" fill="#3E4147" width="15.309" height="81.957"/>
<rect x="71.255" y="313.029" fill="#3E4147" width="15.309" height="81.957"/>
<rect x="95.606" y="313.029" fill="#3E4147" width="15.309" height="81.957"/>
<rect x="119.956" y="313.029" fill="#3E4147" width="15.309" height="81.957"/>
<rect x="144.306" y="313.029" fill="#3E4147" width="15.31" height="81.957"/>
<rect x="168.657" y="313.029" fill="#3E4147" width="15.309" height="81.957"/>
<rect x="193.007" y="313.029" fill="#3E4147" width="15.31" height="81.957"/>
<rect x="217.358" y="313.029" fill="#3E4147" width="15.309" height="81.957"/>
<rect x="241.708" y="313.029" fill="#3E4147" width="15.309" height="81.957"/>
<rect x="266.058" y="313.029" fill="#3E4147" width="15.311" height="81.957"/>
<rect x="290.409" y="313.029" fill="#3E4147" width="15.309" height="81.957"/>
<rect x="314.759" y="313.029" fill="#3E4147" width="15.31" height="81.957"/>
<rect x="339.11" y="313.029" fill="#3E4147" width="15.309" height="81.957"/>
<rect x="46.905" y="373.043" fill="#DEC07A" width="15.309" height="21.943"/>
<rect x="71.255" y="357.608" fill="#DEC07A" width="15.309" height="37.378"/>
<rect x="95.606" y="360.975" fill="#DEC07A" width="15.309" height="34.012"/>
<rect x="119.956" y="346.389" fill="#DEC07A" width="15.309" height="48.598"/>
<rect x="144.306" y="339.656" fill="#DEC07A" width="15.31" height="55.33"/>
<rect x="168.657" y="336.29" fill="#DEC07A" width="15.309" height="58.696"/>
<rect x="193.007" y="351.101" fill="#DEC07A" width="15.31" height="43.886"/>
<rect x="217.358" y="357.608" fill="#DEC07A" width="15.309" height="37.378"/>
<rect x="241.708" y="339.656" fill="#DEC07A" width="15.309" height="55.33"/>
<rect x="266.058" y="331.804" fill="#DEC07A" width="15.311" height="63.183"/>
<rect x="290.409" y="328.438" fill="#DEC07A" width="15.309" height="66.549"/>
<rect x="314.759" y="325.071" fill="#DEC07A" width="15.31" height="69.915"/>
<rect x="339.11" y="319.462" fill="#DEC07A" width="15.309" height="75.524"/>
</svg>
