<?xml version="1.0" encoding="utf-8"?>
<!-- Generator: Adobe Illustrator 16.0.0, SVG Export Plug-In . SVG Version: 6.00 Build 0)  -->
<!DOCTYPE svg PUBLIC "-//W3C//DTD SVG 1.1//EN" "http://www.w3.org/Graphics/SVG/1.1/DTD/svg11.dtd">
<svg version="1.1" id="Layer_1" xmlns="http://www.w3.org/2000/svg" xmlns:xlink="http://www.w3.org/1999/xlink" x="0px" y="0px"
	 width="251.615px" height="174.691px" viewBox="0 0 251.615 174.691" enable-background="new 0 0 251.615 174.691"
	 xml:space="preserve">
<rect y="26.234" fill="#2D2F33" width="251.615" height="148.457"/>
<path fill="#E0E0DF" d="M251.615,27.552V3.594c0-1.985-1.609-3.594-3.595-3.594H3.594C1.609,0,0,1.609,0,3.594v23.958H251.615z"/>
<path fill="#F1605C" d="M16.803,13.177c0,1.837-1.489,3.326-3.326,3.326c-1.836,0-3.325-1.489-3.325-3.326
	c0-1.837,1.489-3.326,3.325-3.326C15.313,9.851,16.803,11.34,16.803,13.177"/>
<path fill="#FDF169" d="M27.733,13.177c0,1.837-1.489,3.326-3.326,3.326c-1.836,0-3.325-1.489-3.325-3.326
	c0-1.837,1.489-3.326,3.325-3.326C26.244,9.851,27.733,11.34,27.733,13.177"/>
<path fill="#A3D17E" d="M38.665,13.177c0,1.837-1.489,3.326-3.326,3.326s-3.325-1.489-3.325-3.326c0-1.837,1.488-3.326,3.325-3.326
	S38.665,11.34,38.665,13.177"/>
<rect x="20.802" y="59.085" fill="#6CC06E" width="16.613" height="4.753"/>
<rect x="41.172" y="59.085" fill="#6CC06E" width="47.521" height="4.753"/>
<rect x="92.45" y="59.085" fill="#6CC06E" width="13.194" height="4.753"/>
<rect x="20.802" y="48.412" fill="#6CC06E" width="33.226" height="4.753"/>
<rect x="58.377" y="48.412" fill="#6CC06E" width="16.613" height="4.753"/>
<rect x="79.338" y="48.412" fill="#6CC06E" width="5.908" height="4.753"/>
<rect x="89.662" y="48.412" fill="#6CC06E" width="33.226" height="4.753"/>
<rect x="127.236" y="48.412" fill="#6CC06E" width="16.612" height="4.753"/>
<rect x="148.198" y="48.412" fill="#6CC06E" width="5.909" height="4.753"/>
<rect x="20.802" y="69.758" fill="#6CC06E" width="33.226" height="4.753"/>
<rect x="58.377" y="69.758" fill="#6CC06E" width="16.613" height="4.753"/>
<rect x="79.338" y="69.758" fill="#6CC06E" width="5.908" height="4.753"/>
<rect x="62.792" y="80.432" fill="#6CC06E" width="33.226" height="4.753"/>
<rect x="100.366" y="80.432" fill="#6CC06E" width="16.612" height="4.753"/>
<rect x="121.328" y="80.432" fill="#6CC06E" width="5.908" height="4.753"/>
<rect x="52.021" y="80.432" fill="#6CC06E" width="6.035" height="4.753"/>
<rect x="31.06" y="80.431" fill="#6CC06E" width="16.613" height="4.753"/>
<rect x="20.802" y="80.431" fill="#6CC06E" width="5.909" height="4.753"/>
</svg>
