<?xml version="1.0" encoding="utf-8"?>
<!-- Generator: Adobe Illustrator 16.0.0, SVG Export Plug-In . SVG Version: 6.00 Build 0)  -->
<!DOCTYPE svg PUBLIC "-//W3C//DTD SVG 1.1//EN" "http://www.w3.org/Graphics/SVG/1.1/DTD/svg11.dtd">
<svg version="1.1" id="Layer_1" xmlns="http://www.w3.org/2000/svg" xmlns:xlink="http://www.w3.org/1999/xlink" x="0px" y="0px"
	 width="354.438px" height="462.292px" viewBox="0 0 354.438 462.292" enable-background="new 0 0 354.438 462.292"
	 xml:space="preserve">
<rect fill="#FFFFFF" width="354.438" height="462.292"/>
<path fill="#818793" d="M323.483,214.556H30.955V114.319h292.528V214.556z M34.803,210.707h284.832v-92.54H34.803V210.707z"/>
<rect x="25.046" y="162.513" transform="matrix(0.9485 0.3167 -0.3167 0.9485 61.2008 -47.6616)" fill="#818793" width="304.346" height="3.849"/>
<rect x="175.294" y="12.264" transform="matrix(0.3167 0.9485 -0.9485 0.3167 277.0617 -55.739)" fill="#818793" width="3.85" height="304.346"/>
<path fill="#818793" d="M323.483,342.16H197.893V241.923h125.591V342.16z M201.741,338.311h117.894v-92.54H201.741V338.311z"/>
<rect x="183.049" y="290.117" transform="matrix(0.784 0.6207 -0.6207 0.784 237.5856 -98.7434)" fill="#818793" width="155.279" height="3.848"/>
<rect x="258.764" y="214.402" transform="matrix(0.6208 0.784 -0.784 0.6208 327.81 -93.6279)" fill="#818793" width="3.848" height="155.278"/>
<rect x="149.286" y="30.733" fill="#818793" width="60.2" height="16.949"/>
<rect x="201.08" y="76.659" fill="#818793" width="33.273" height="10.711"/>
<rect x="160.786" y="76.659" fill="#818793" width="33.274" height="10.711"/>
<rect x="120.084" y="76.659" fill="#818793" width="33.274" height="10.711"/>
<path fill="#818793" d="M68.078,434.127H30.955v-14.273h37.123V434.127z M34.803,430.278h29.426v-6.576H34.803V430.278z"/>
<path fill="#818793" d="M170.87,434.127h-37.123v-14.273h37.123V434.127z M137.596,430.278h29.426v-6.576h-29.426V430.278z"/>
<path fill="#818793" d="M283.189,434.127h-37.122v-14.273h37.122V434.127z M249.915,430.278h29.427v-6.576h-29.427V430.278z"/>
<rect x="32.879" y="371.405" fill="#818793" width="87.019" height="3.849"/>
<rect x="32.879" y="386.102" fill="#818793" width="87.019" height="3.85"/>
<rect x="32.879" y="402.449" fill="#818793" width="52.332" height="3.849"/>
<rect x="32.879" y="245.454" fill="#818793" width="146.303" height="3.849"/>
<rect x="32.879" y="264.024" fill="#818793" width="146.303" height="3.85"/>
<rect x="32.879" y="282.596" fill="#818793" width="146.303" height="3.849"/>
<rect x="32.879" y="301.168" fill="#818793" width="146.303" height="3.849"/>
<rect x="32.879" y="319.74" fill="#818793" width="146.303" height="3.849"/>
<rect x="32.879" y="338.311" fill="#818793" width="87.983" height="3.85"/>
<rect x="135.672" y="371.405" fill="#818793" width="87.02" height="3.849"/>
<rect x="135.672" y="386.102" fill="#818793" width="87.02" height="3.85"/>
<rect x="135.671" y="402.449" fill="#818793" width="52.332" height="3.849"/>
<rect x="247.991" y="371.405" fill="#818793" width="73.137" height="3.849"/>
<rect x="247.991" y="386.102" fill="#818793" width="73.137" height="3.85"/>
<rect x="247.991" y="402.449" fill="#818793" width="43.983" height="3.849"/>
</svg>
