<?xml version="1.0" encoding="utf-8"?>
<!-- Generator: Adobe Illustrator 16.0.0, SVG Export Plug-In . SVG Version: 6.00 Build 0)  -->
<!DOCTYPE svg PUBLIC "-//W3C//DTD SVG 1.1//EN" "http://www.w3.org/Graphics/SVG/1.1/DTD/svg11.dtd">
<svg version="1.1" id="Layer_1" xmlns="http://www.w3.org/2000/svg" xmlns:xlink="http://www.w3.org/1999/xlink" x="0px" y="0px"
	 width="330.295px" height="358.625px" viewBox="0 0 330.295 358.625" enable-background="new 0 0 330.295 358.625"
	 xml:space="preserve">
<rect y="26.235" fill="#2D2F33" width="330.294" height="332.39"/>
<rect y="26.235" fill="#818793" width="80.918" height="332.39"/>
<path fill="#E0E0DF" d="M330.295,27.552V3.594c0-1.985-1.609-3.594-3.595-3.594H3.594C1.609,0,0.001,1.609,0.001,3.594v23.958
	H330.295z"/>
<path fill="#F1605C" d="M16.803,13.177c0,1.837-1.489,3.326-3.326,3.326c-1.836,0-3.325-1.489-3.325-3.326
	c0-1.837,1.489-3.326,3.325-3.326C15.313,9.851,16.803,11.34,16.803,13.177"/>
<path fill="#FDF169" d="M27.733,13.177c0,1.837-1.488,3.326-3.325,3.326s-3.325-1.489-3.325-3.326c0-1.837,1.488-3.326,3.325-3.326
	S27.733,11.34,27.733,13.177"/>
<path fill="#A3D17E" d="M38.665,13.177c0,1.837-1.489,3.326-3.326,3.326c-1.836,0-3.325-1.489-3.325-3.326
	c0-1.837,1.489-3.326,3.325-3.326C37.176,9.851,38.665,11.34,38.665,13.177"/>
<rect x="103.839" y="65.635" fill="#D4474A" width="26.809" height="7.67"/>
<rect x="136.709" y="65.635" fill="#FFFFFF" width="76.686" height="7.67"/>
<rect x="219.455" y="65.635" fill="#D4474A" width="21.293" height="7.67"/>
<rect x="103.839" y="48.412" fill="#DEC07A" width="53.616" height="7.67"/>
<rect x="164.473" y="48.412" fill="#78A4D7" width="26.808" height="7.67"/>
<rect x="198.298" y="48.412" fill="#C492BA" width="9.534" height="7.67"/>
<rect x="103.839" y="82.858" fill="#DEC07A" width="53.616" height="7.67"/>
<rect x="164.473" y="82.858" fill="#78A4D7" width="26.808" height="7.67"/>
<rect x="198.298" y="82.858" fill="#C492BA" width="9.534" height="7.67"/>
<rect x="154.216" y="100.082" fill="#FFFFFF" width="9.739" height="7.67"/>
<rect x="120.392" y="100.082" fill="#DEC07A" width="26.808" height="7.67"/>
<rect x="103.84" y="100.082" fill="#78A4D7" width="9.534" height="7.67"/>
<rect x="13.651" y="44.577" fill="#4B4E54" width="53.616" height="7.67"/>
<rect x="13.651" y="61.217" fill="#4B4E54" width="53.616" height="7.67"/>
<rect x="13.651" y="77.858" fill="#4B4E54" width="53.616" height="7.67"/>
</svg>
