<?xml version="1.0" encoding="utf-8"?>
<!-- Generator: Adobe Illustrator 16.0.0, SVG Export Plug-In . SVG Version: 6.00 Build 0)  -->
<!DOCTYPE svg PUBLIC "-//W3C//DTD SVG 1.1//EN" "http://www.w3.org/Graphics/SVG/1.1/DTD/svg11.dtd">
<svg version="1.1" id="Layer_1" xmlns="http://www.w3.org/2000/svg" xmlns:xlink="http://www.w3.org/1999/xlink" x="0px" y="0px"
	 width="405.76px" height="464.664px" viewBox="0 0 405.76 464.664" enable-background="new 0 0 405.76 464.664"
	 xml:space="preserve">
<rect y="28.066" fill="#2D2F33" width="405.76" height="436.598"/>
<rect x="310.392" y="28.066" fill="#262626" width="95.368" height="436.598"/>
<path fill="#E0E0DF" d="M405.76,29.475V3.845c0-2.124-1.722-3.845-3.845-3.845H3.845C1.721,0,0,1.721,0,3.845v25.63H405.76z"/>
<path fill="#F1605C" d="M17.975,14.097c0,1.965-1.593,3.558-3.558,3.558c-1.965,0-3.558-1.593-3.558-3.558s1.593-3.558,3.558-3.558
	C16.382,10.539,17.975,12.132,17.975,14.097"/>
<path fill="#FDF169" d="M29.668,14.097c0,1.965-1.593,3.558-3.558,3.558c-1.965,0-3.558-1.593-3.558-3.558s1.593-3.558,3.558-3.558
	C28.076,10.539,29.668,12.132,29.668,14.097"/>
<path fill="#A3D17E" d="M41.363,14.097c0,1.965-1.593,3.558-3.559,3.558c-1.965,0-3.558-1.593-3.558-3.558s1.593-3.558,3.558-3.558
	C39.77,10.539,41.363,12.132,41.363,14.097"/>
<path fill="#FFFFFF" d="M399.994,19.863c0,0.708-0.574,1.281-1.281,1.281H49.979c-0.708,0-1.282-0.573-1.282-1.281V8.329
	c0-0.707,0.574-1.281,1.282-1.281h348.733c0.707,0,1.281,0.574,1.281,1.281V19.863z"/>
<rect y="29.476" fill="#818793" width="99.392" height="435.188"/>
<rect x="127.546" y="77.869" fill="#D4474A" width="32.928" height="9.421"/>
<rect x="167.919" y="77.869" fill="#FFFFFF" width="94.191" height="9.421"/>
<rect x="269.557" y="77.869" fill="#D4474A" width="26.155" height="9.421"/>
<rect x="127.546" y="56.714" fill="#DEC07A" width="65.856" height="9.421"/>
<rect x="202.021" y="56.714" fill="#78A4D7" width="32.928" height="9.421"/>
<rect x="243.569" y="56.714" fill="#C492BA" width="11.711" height="9.421"/>
<rect x="127.546" y="99.025" fill="#DEC07A" width="65.856" height="9.421"/>
<rect x="202.021" y="99.025" fill="#78A4D7" width="32.928" height="9.421"/>
<rect x="243.569" y="99.025" fill="#C492BA" width="11.711" height="9.421"/>
<rect x="189.424" y="120.18" fill="#FFFFFF" width="11.962" height="9.421"/>
<rect x="147.876" y="120.18" fill="#DEC07A" width="32.928" height="9.421"/>
<rect x="127.546" y="120.18" fill="#78A4D7" width="11.711" height="9.421"/>
<rect x="127.546" y="164.363" fill="#D4474A" width="32.928" height="9.421"/>
<rect x="167.92" y="164.363" fill="#FFFFFF" width="42.049" height="9.421"/>
<rect x="217.414" y="164.363" fill="#D4474A" width="26.154" height="9.421"/>
<rect x="127.546" y="143.208" fill="#DEC07A" width="65.856" height="9.421"/>
<rect x="202.021" y="143.208" fill="#78A4D7" width="32.928" height="9.421"/>
<rect x="243.569" y="143.208" fill="#C492BA" width="11.711" height="9.421"/>
<rect x="127.546" y="185.519" fill="#DEC07A" width="65.856" height="9.421"/>
<rect x="189.424" y="206.674" fill="#FFFFFF" width="11.962" height="9.421"/>
<rect x="147.876" y="206.674" fill="#DEC07A" width="32.928" height="9.421"/>
<rect x="127.546" y="206.674" fill="#78A4D7" width="11.711" height="9.421"/>
<rect x="324.645" y="65.591" fill="#D4474A" width="13.817" height="3.953"/>
<rect x="341.587" y="65.591" fill="#FFFFFF" width="39.522" height="3.953"/>
<rect x="384.234" y="65.591" fill="#D4474A" width="10.975" height="3.953"/>
<rect x="324.645" y="56.714" fill="#DEC07A" width="27.634" height="3.953"/>
<rect x="355.895" y="56.714" fill="#78A4D7" width="13.817" height="3.953"/>
<rect x="373.329" y="56.714" fill="#C492BA" width="4.914" height="3.953"/>
<rect x="324.645" y="74.469" fill="#DEC07A" width="27.634" height="3.953"/>
<rect x="355.895" y="74.469" fill="#78A4D7" width="13.817" height="3.953"/>
<rect x="373.329" y="74.469" fill="#C492BA" width="4.914" height="3.953"/>
<rect x="350.61" y="83.345" fill="#FFFFFF" width="5.02" height="3.953"/>
<rect x="333.176" y="83.345" fill="#DEC07A" width="13.816" height="3.953"/>
<rect x="324.645" y="83.345" fill="#78A4D7" width="4.914" height="3.953"/>
<rect x="324.645" y="101.761" fill="#D4474A" width="13.817" height="3.953"/>
<rect x="341.585" y="101.761" fill="#FFFFFF" width="17.645" height="3.953"/>
<rect x="362.354" y="101.761" fill="#D4474A" width="10.974" height="3.953"/>
<rect x="324.645" y="92.883" fill="#DEC07A" width="27.634" height="3.953"/>
<rect x="355.895" y="92.883" fill="#78A4D7" width="13.817" height="3.953"/>
<rect x="373.329" y="92.883" fill="#C492BA" width="4.914" height="3.953"/>
<rect x="324.645" y="110.638" fill="#DEC07A" width="27.634" height="3.953"/>
<rect x="350.61" y="119.514" fill="#FFFFFF" width="5.02" height="3.953"/>
<rect x="333.176" y="119.514" fill="#DEC07A" width="13.816" height="3.953"/>
<rect x="324.645" y="119.514" fill="#78A4D7" width="4.914" height="3.953"/>
<rect x="16.768" y="52.004" fill="#4B4E54" width="65.856" height="9.421"/>
<rect x="16.768" y="72.443" fill="#4B4E54" width="65.856" height="9.421"/>
<rect x="16.768" y="92.883" fill="#4B4E54" width="65.856" height="9.421"/>
</svg>
