<?xml version="1.0" encoding="utf-8"?>
<!-- Generator: Adobe Illustrator 16.0.0, SVG Export Plug-In . SVG Version: 6.00 Build 0)  -->
<!DOCTYPE svg PUBLIC "-//W3C//DTD SVG 1.1//EN" "http://www.w3.org/Graphics/SVG/1.1/DTD/svg11.dtd">
<svg version="1.1" id="Layer_1" xmlns="http://www.w3.org/2000/svg" xmlns:xlink="http://www.w3.org/1999/xlink" x="0px" y="0px"
	 width="800.497px" height="800.497px" viewBox="0 0 800.497 800.497" enable-background="new 0 0 800.497 800.497"
	 xml:space="preserve">
<g>
	<defs>
		<rect id="SVGID_1_" width="800.497" height="800.497"/>
	</defs>
	<clipPath id="SVGID_2_">
		<use xlink:href="#SVGID_1_"  overflow="visible"/>
	</clipPath>
	<path clip-path="url(#SVGID_2_)" fill="#FFFFFF" d="M371.439,787.427c3.305,0.246,5.784,3.124,5.538,6.429
		s-3.124,5.784-6.428,5.538c-3.305-0.246-5.785-3.124-5.539-6.429C365.257,789.661,368.135,787.181,371.439,787.427"/>
	<path clip-path="url(#SVGID_2_)" fill="#FFFFFF" d="M429.947,1.104c3.305,0.246,5.784,3.124,5.538,6.429
		c-0.246,3.304-3.124,5.784-6.428,5.538c-3.306-0.246-5.785-3.124-5.539-6.429C423.765,3.338,426.643,0.858,429.947,1.104"/>
	<path clip-path="url(#SVGID_2_)" fill="#FFFFFF" d="M106.101,653.654c2.163,2.511,1.881,6.299-0.63,8.462
		c-2.51,2.163-6.299,1.881-8.462-0.63c-2.162-2.51-1.88-6.299,0.63-8.462C100.15,650.862,103.938,651.144,106.101,653.654"/>
	<path clip-path="url(#SVGID_2_)" fill="#FFFFFF" d="M703.486,139.011c2.163,2.511,1.882,6.299-0.63,8.462
		c-2.51,2.163-6.299,1.881-8.461-0.63c-2.163-2.51-1.881-6.299,0.629-8.462C697.536,136.219,701.324,136.5,703.486,139.011"/>
	<path clip-path="url(#SVGID_2_)" fill="#FFFFFF" d="M85.205,627.149c1.937,2.689,1.327,6.439-1.362,8.375
		c-2.689,1.938-6.439,1.327-8.375-1.361c-1.937-2.689-1.327-6.439,1.362-8.375C79.519,623.851,83.268,624.461,85.205,627.149"/>
	<path clip-path="url(#SVGID_2_)" fill="#FFFFFF" d="M725.029,166.334c1.938,2.689,1.327,6.439-1.362,8.375
		c-2.688,1.937-6.438,1.327-8.375-1.362s-1.326-6.439,1.362-8.375C719.344,163.036,723.093,163.646,725.029,166.334"/>
	<path clip-path="url(#SVGID_2_)" fill="#FFFFFF" d="M69.589,603.723c1.737,2.821,0.857,6.518-1.966,8.255
		c-2.822,1.736-6.517,0.855-8.254-1.966c-1.737-2.822-0.857-6.519,1.965-8.255C64.158,600.021,67.853,600.9,69.589,603.723"/>
	<path clip-path="url(#SVGID_2_)" fill="#FFFFFF" d="M741.127,190.486c1.737,2.822,0.857,6.518-1.966,8.254
		c-2.822,1.737-6.517,0.857-8.254-1.965c-1.737-2.822-0.857-6.518,1.966-8.255C735.695,186.784,739.39,187.664,741.127,190.486"/>
	<path clip-path="url(#SVGID_2_)" fill="#FFFFFF" d="M146.843,106.102c-2.511,2.163-6.299,1.881-8.462-0.63
		c-2.163-2.51-1.881-6.299,0.63-8.461c2.51-2.163,6.299-1.881,8.462,0.629C149.635,100.151,149.354,103.939,146.843,106.102"/>
	<path clip-path="url(#SVGID_2_)" fill="#FFFFFF" d="M661.486,703.487c-2.512,2.163-6.299,1.881-8.462-0.63
		c-2.163-2.51-1.882-6.299,0.63-8.462c2.51-2.162,6.299-1.88,8.462,0.63C664.278,697.536,663.997,701.324,661.486,703.487"/>
	<path clip-path="url(#SVGID_2_)" fill="#FFFFFF" d="M778.324,488.538c0.754-3.227,3.98-5.231,7.207-4.478
		c3.228,0.753,5.232,3.979,4.479,7.207c-0.754,3.227-3.981,5.231-7.208,4.478C779.575,494.992,777.57,491.766,778.324,488.538"/>
	<path clip-path="url(#SVGID_2_)" fill="#FFFFFF" d="M10.486,309.23c0.754-3.227,3.98-5.232,7.207-4.478
		c3.227,0.753,5.232,3.98,4.479,7.207c-0.754,3.227-3.981,5.232-7.208,4.478C11.737,315.684,9.732,312.457,10.486,309.23"/>
	<path clip-path="url(#SVGID_2_)" fill="#FFFFFF" d="M787.426,429.058c0.246-3.306,3.124-5.784,6.43-5.538
		c3.304,0.246,5.784,3.124,5.538,6.428c-0.246,3.305-3.124,5.785-6.43,5.539C789.66,435.24,787.181,432.362,787.426,429.058"/>
	<path clip-path="url(#SVGID_2_)" fill="#FFFFFF" d="M1.104,370.55c0.246-3.305,3.124-5.784,6.429-5.538
		c3.304,0.246,5.784,3.124,5.538,6.428c-0.246,3.305-3.124,5.785-6.429,5.539C3.337,376.733,0.857,373.855,1.104,370.55"/>
	<path clip-path="url(#SVGID_2_)" fill="#FFFFFF" d="M784.13,458.313c0.496-3.276,3.554-5.531,6.83-5.035
		c3.276,0.495,5.531,3.553,5.035,6.83c-0.496,3.275-3.553,5.529-6.83,5.035C785.889,464.647,783.634,461.589,784.13,458.313"/>
	<path clip-path="url(#SVGID_2_)" fill="#FFFFFF" d="M4.501,340.39c0.496-3.276,3.553-5.531,6.83-5.035
		c3.276,0.495,5.531,3.553,5.035,6.83c-0.496,3.276-3.553,5.53-6.83,5.035C6.26,346.724,4.005,343.666,4.501,340.39"/>
	<path clip-path="url(#SVGID_2_)" fill="#FFFFFF" d="M400.248,788.497c3.314,0,6,2.686,6,6s-2.686,6-6,6c-3.314,0-6-2.686-6-6
		S396.934,788.497,400.248,788.497"/>
	<path clip-path="url(#SVGID_2_)" fill="#FFFFFF" d="M400.248,0c3.314,0,6,2.686,6,6s-2.686,6-6,6c-3.314,0-6-2.686-6-6
		S396.934,0,400.248,0"/>
	<path clip-path="url(#SVGID_2_)" fill="#FFFFFF" d="M310.163,777.901c3.223,0.769,5.213,4.005,4.444,7.228
		c-0.769,3.225-4.005,5.213-7.228,4.445c-3.224-0.77-5.213-4.006-4.444-7.229C303.703,779.122,306.939,777.132,310.163,777.901"/>
	<path clip-path="url(#SVGID_2_)" fill="#FFFFFF" d="M493.118,10.924c3.223,0.769,5.213,4.005,4.444,7.228
		c-0.77,3.224-4.005,5.213-7.229,4.444c-3.224-0.768-5.213-4.005-4.443-7.228C486.658,12.145,489.896,10.155,493.118,10.924"/>
	<path clip-path="url(#SVGID_2_)" fill="#FFFFFF" d="M125.715,674.782c2.343,2.343,2.343,6.142,0,8.484
		c-2.343,2.343-6.142,2.343-8.485,0c-2.343-2.343-2.343-6.142,0-8.484C119.573,672.438,123.372,672.438,125.715,674.782"/>
	<path clip-path="url(#SVGID_2_)" fill="#FFFFFF" d="M683.267,117.23c2.343,2.343,2.343,6.142,0,8.485
		c-2.343,2.343-6.142,2.343-8.485,0c-2.343-2.343-2.343-6.142,0-8.485C677.125,114.888,680.924,114.888,683.267,117.23"/>
	<path clip-path="url(#SVGID_2_)" fill="#FFFFFF" d="M125.715,125.716c-2.343,2.343-6.142,2.343-8.485,0
		c-2.343-2.343-2.343-6.142,0-8.485c2.343-2.343,6.142-2.343,8.485,0C128.058,119.574,128.058,123.373,125.715,125.716"/>
	<path clip-path="url(#SVGID_2_)" fill="#FFFFFF" d="M683.267,683.267c-2.343,2.344-6.142,2.344-8.485,0
		c-2.343-2.343-2.343-6.142,0-8.484c2.344-2.343,6.143-2.343,8.485,0S685.609,680.924,683.267,683.267"/>
	<path clip-path="url(#SVGID_2_)" fill="#FFFFFF" d="M788.496,400.249c0-3.314,2.687-6,6-6c3.314,0,6,2.686,6,6c0,3.313-2.686,6-6,6
		C791.183,406.249,788.496,403.562,788.496,400.249"/>
	<path clip-path="url(#SVGID_2_)" fill="#FFFFFF" d="M0,400.249c0-3.314,2.686-6,6-6s6,2.686,6,6c0,3.313-2.686,6-6,6
		S0,403.562,0,400.249"/>
	<path clip-path="url(#SVGID_2_)" fill="#FFFFFF" d="M148.787,696.06c2.525,2.146,2.832,5.933,0.685,8.458
		c-2.146,2.524-5.932,2.831-8.457,0.685c-2.525-2.146-2.832-5.933-0.686-8.458C142.476,694.221,146.262,693.913,148.787,696.06"/>
	<path clip-path="url(#SVGID_2_)" fill="#FFFFFF" d="M659.481,95.295c2.525,2.146,2.832,5.933,0.686,8.458
		c-2.146,2.524-5.933,2.831-8.457,0.685c-2.525-2.146-2.832-5.933-0.687-8.458C653.171,93.456,656.957,93.149,659.481,95.295"/>
	<path clip-path="url(#SVGID_2_)" fill="#FFFFFF" d="M13.269,431.608c0.268,3.304-2.193,6.197-5.496,6.466
		c-3.303,0.268-6.197-2.193-6.465-5.496c-0.267-3.304,2.193-6.197,5.496-6.466C10.106,425.846,13,428.306,13.269,431.608"/>
	<path clip-path="url(#SVGID_2_)" fill="#FFFFFF" d="M799.188,367.919c0.269,3.303-2.192,6.197-5.496,6.465
		c-3.303,0.268-6.196-2.193-6.465-5.496c-0.267-3.303,2.193-6.197,5.496-6.465C796.026,362.157,798.921,364.617,799.188,367.919"/>
	<path clip-path="url(#SVGID_2_)" fill="#FFFFFF" d="M368.888,13.269c-3.303,0.268-6.197-2.193-6.465-5.496
		c-0.268-3.303,2.193-6.197,5.496-6.465c3.303-0.267,6.197,2.193,6.465,5.496C374.651,10.107,372.191,13.001,368.888,13.269"/>
	<path clip-path="url(#SVGID_2_)" fill="#FFFFFF" d="M432.577,799.189c-3.303,0.268-6.196-2.193-6.465-5.496
		c-0.268-3.303,2.193-6.197,5.496-6.465s6.197,2.192,6.465,5.496C438.341,796.027,435.881,798.921,432.577,799.189"/>
	<path clip-path="url(#SVGID_2_)" fill="#FFFFFF" d="M696.059,651.71c2.146-2.525,5.934-2.832,8.458-0.686s2.831,5.933,0.686,8.457
		c-2.146,2.525-5.933,2.832-8.458,0.687C694.22,658.021,693.913,654.235,696.059,651.71"/>
	<path clip-path="url(#SVGID_2_)" fill="#FFFFFF" d="M95.294,141.016c2.146-2.525,5.933-2.832,8.458-0.685
		c2.524,2.146,2.831,5.932,0.685,8.457s-5.933,2.832-8.458,0.686C93.456,147.327,93.148,143.541,95.294,141.016"/>
	<path clip-path="url(#SVGID_2_)" fill="#FFFFFF" d="M171.43,713.903c2.677,1.952,3.264,5.705,1.311,8.383
		c-1.953,2.677-5.706,3.264-8.383,1.311c-2.677-1.953-3.264-5.706-1.311-8.383S168.753,711.95,171.43,713.903"/>
	<path clip-path="url(#SVGID_2_)" fill="#FFFFFF" d="M636.139,76.9c2.677,1.953,3.265,5.706,1.312,8.383s-5.706,3.264-8.384,1.311
		c-2.677-1.953-3.264-5.706-1.311-8.383C629.709,75.534,633.462,74.947,636.139,76.9"/>
	<path clip-path="url(#SVGID_2_)" fill="#FFFFFF" d="M16.663,460.236c0.512,3.274-1.727,6.344-5.001,6.855
		c-3.274,0.512-6.343-1.727-6.855-5.001c-0.512-3.274,1.727-6.343,5.001-6.855C13.082,454.724,16.15,456.963,16.663,460.236"/>
	<path clip-path="url(#SVGID_2_)" fill="#FFFFFF" d="M795.69,338.407c0.512,3.274-1.728,6.343-5.001,6.855
		c-3.274,0.512-6.344-1.727-6.855-5.001s1.728-6.343,5.001-6.855C792.109,332.894,795.178,335.133,795.69,338.407"/>
	<path clip-path="url(#SVGID_2_)" fill="#FFFFFF" d="M340.26,16.663c-3.274,0.512-6.343-1.727-6.855-5.001
		c-0.512-3.274,1.727-6.343,5.001-6.855c3.274-0.512,6.343,1.727,6.855,5.001C345.773,13.082,343.534,16.151,340.26,16.663"/>
	<path clip-path="url(#SVGID_2_)" fill="#FFFFFF" d="M462.091,795.69c-3.274,0.512-6.344-1.727-6.855-5.001
		c-0.512-3.273,1.727-6.343,5.001-6.854c3.274-0.513,6.343,1.727,6.855,5.001C467.604,792.109,465.364,795.179,462.091,795.69"/>
	<path clip-path="url(#SVGID_2_)" fill="#FFFFFF" d="M713.902,629.067c1.953-2.678,5.706-3.265,8.383-1.312
		c2.678,1.953,3.265,5.706,1.312,8.383c-1.953,2.678-5.706,3.265-8.383,1.312C712.536,635.497,711.949,631.744,713.902,629.067"/>
	<path clip-path="url(#SVGID_2_)" fill="#FFFFFF" d="M76.9,164.358c1.953-2.677,5.706-3.264,8.383-1.311
		c2.677,1.953,3.264,5.706,1.311,8.383s-5.706,3.264-8.383,1.311C75.534,170.788,74.947,167.035,76.9,164.358"/>
	<path clip-path="url(#SVGID_2_)" fill="#FFFFFF" d="M198.947,732.234c2.833,1.719,3.738,5.408,2.02,8.241
		c-1.719,2.834-5.408,3.738-8.242,2.021c-2.833-1.719-3.738-5.408-2.019-8.241C192.424,731.421,196.113,730.517,198.947,732.234"/>
	<path clip-path="url(#SVGID_2_)" fill="#FFFFFF" d="M607.771,58.002c2.833,1.718,3.737,5.408,2.02,8.241
		c-1.718,2.834-5.408,3.738-8.242,2.02c-2.833-1.718-3.737-5.408-2.019-8.241C601.248,57.188,604.938,56.284,607.771,58.002"/>
	<path clip-path="url(#SVGID_2_)" fill="#FFFFFF" d="M23.158,492.657c0.789,3.219-1.181,6.467-4.399,7.256
		c-3.219,0.788-6.467-1.181-7.256-4.4c-0.789-3.218,1.181-6.467,4.399-7.255C19.121,487.469,22.369,489.439,23.158,492.657"/>
	<path clip-path="url(#SVGID_2_)" fill="#FFFFFF" d="M788.994,304.984c0.789,3.218-1.181,6.467-4.399,7.256
		c-3.219,0.788-6.467-1.181-7.256-4.4c-0.788-3.218,1.182-6.467,4.399-7.255C784.957,299.796,788.205,301.767,788.994,304.984"/>
	<path clip-path="url(#SVGID_2_)" fill="#FFFFFF" d="M307.84,23.158c-3.219,0.789-6.467-1.181-7.256-4.399
		c-0.788-3.219,1.181-6.467,4.4-7.256c3.218-0.789,6.467,1.181,7.255,4.399C313.028,19.121,311.058,22.369,307.84,23.158"/>
	<path clip-path="url(#SVGID_2_)" fill="#FFFFFF" d="M495.513,788.995c-3.218,0.788-6.467-1.182-7.256-4.399
		c-0.788-3.219,1.181-6.467,4.399-7.256s6.468,1.181,7.256,4.398C500.701,784.958,498.73,788.206,495.513,788.995"/>
	<path clip-path="url(#SVGID_2_)" fill="#FFFFFF" d="M732.234,601.55c1.718-2.834,5.408-3.738,8.241-2.02
		c2.834,1.718,3.737,5.407,2.02,8.241c-1.718,2.833-5.408,3.738-8.241,2.02C731.42,608.073,730.517,604.383,732.234,601.55"/>
	<path clip-path="url(#SVGID_2_)" fill="#FFFFFF" d="M58.001,192.726c1.718-2.833,5.408-3.738,8.241-2.02
		c2.834,1.718,3.738,5.408,2.02,8.242c-1.718,2.833-5.408,3.738-8.241,2.019C57.188,199.249,56.283,195.559,58.001,192.726"/>
	<path clip-path="url(#SVGID_2_)" fill="#FFFFFF" d="M224.136,746.257c2.953,1.503,4.129,5.115,2.626,8.068
		c-1.504,2.953-5.116,4.129-8.069,2.625c-2.953-1.503-4.129-5.115-2.626-8.067C217.57,745.929,221.183,744.753,224.136,746.257"/>
	<path clip-path="url(#SVGID_2_)" fill="#FFFFFF" d="M581.804,43.547c2.953,1.503,4.129,5.116,2.626,8.069
		c-1.504,2.953-5.116,4.129-8.069,2.625c-2.952-1.503-4.129-5.115-2.626-8.068C575.237,43.219,578.851,42.044,581.804,43.547"/>
	<path clip-path="url(#SVGID_2_)" fill="#FFFFFF" d="M31.054,520.383c1.025,3.151-0.698,6.537-3.849,7.562
		c-3.151,1.024-6.537-0.698-7.562-3.85c-1.025-3.15,0.698-6.537,3.849-7.562C26.643,515.509,30.029,517.232,31.054,520.383"/>
	<path clip-path="url(#SVGID_2_)" fill="#FFFFFF" d="M780.854,276.401c1.025,3.151-0.697,6.537-3.849,7.562
		s-6.537-0.698-7.562-3.849c-1.024-3.151,0.698-6.537,3.85-7.562C776.442,271.527,779.829,273.25,780.854,276.401"/>
	<path clip-path="url(#SVGID_2_)" fill="#FFFFFF" d="M280.114,31.054c-3.151,1.025-6.537-0.698-7.562-3.849
		c-1.025-3.151,0.698-6.537,3.849-7.562c3.151-1.025,6.537,0.698,7.562,3.849C284.988,26.644,283.265,30.029,280.114,31.054"/>
	<path clip-path="url(#SVGID_2_)" fill="#FFFFFF" d="M524.096,780.854c-3.151,1.024-6.537-0.698-7.562-3.85
		c-1.024-3.15,0.698-6.536,3.85-7.562c3.15-1.025,6.537,0.698,7.562,3.849C528.97,776.443,527.246,779.829,524.096,780.854"/>
	<path clip-path="url(#SVGID_2_)" fill="#FFFFFF" d="M746.256,576.361c1.503-2.953,5.116-4.129,8.069-2.626
		c2.953,1.504,4.129,5.115,2.625,8.068c-1.503,2.953-5.115,4.129-8.068,2.626C745.928,582.927,744.753,579.314,746.256,576.361"/>
	<path clip-path="url(#SVGID_2_)" fill="#FFFFFF" d="M43.546,218.693c1.503-2.953,5.116-4.129,8.069-2.626
		c2.953,1.504,4.129,5.116,2.625,8.069c-1.503,2.953-5.115,4.129-8.068,2.626C43.218,225.259,42.043,221.646,43.546,218.693"/>
	<path clip-path="url(#SVGID_2_)" fill="#FFFFFF" d="M41.964,549.812c1.277,3.058-0.168,6.572-3.226,7.848
		c-3.058,1.277-6.571-0.167-7.848-3.225c-1.276-3.059,0.168-6.572,3.226-7.85C37.174,545.31,40.687,546.753,41.964,549.812"/>
	<path clip-path="url(#SVGID_2_)" fill="#FFFFFF" d="M769.606,246.063c1.276,3.058-0.168,6.572-3.226,7.848
		c-3.059,1.277-6.571-0.167-7.849-3.225c-1.275-3.058,0.169-6.572,3.227-7.849C764.816,241.562,768.33,243.006,769.606,246.063"/>
	<path clip-path="url(#SVGID_2_)" fill="#FFFFFF" d="M41.146,252.66c-1.26,3.065-4.765,4.528-7.83,3.269
		c-3.065-1.26-4.529-4.766-3.269-7.831c1.26-3.065,4.765-4.528,7.83-3.268C40.942,246.089,42.406,249.595,41.146,252.66"/>
	<path clip-path="url(#SVGID_2_)" fill="#FFFFFF" d="M770.449,552.399c-1.26,3.064-4.765,4.527-7.83,3.269
		c-3.064-1.26-4.528-4.766-3.269-7.831c1.26-3.064,4.765-4.527,7.83-3.268C770.245,545.828,771.709,549.334,770.449,552.399"/>
	<path clip-path="url(#SVGID_2_)" fill="#FFFFFF" d="M547.837,41.146c-3.065-1.26-4.528-4.765-3.269-7.83s4.766-4.529,7.83-3.269
		c3.065,1.26,4.528,4.765,3.269,7.83C554.408,40.943,550.902,42.407,547.837,41.146"/>
	<path clip-path="url(#SVGID_2_)" fill="#FFFFFF" d="M248.098,770.45c-3.065-1.26-4.528-4.766-3.269-7.83
		c1.26-3.065,4.766-4.529,7.831-3.27c3.065,1.261,4.528,4.766,3.268,7.83C254.669,770.246,251.163,771.71,248.098,770.45"/>
	<path clip-path="url(#SVGID_2_)" fill="#FFFFFF" d="M549.811,758.533c3.059-1.277,6.572,0.168,7.849,3.226
		c1.276,3.059-0.167,6.571-3.226,7.849c-3.058,1.275-6.571-0.168-7.849-3.227C545.309,763.323,546.753,759.811,549.811,758.533"/>
	<path clip-path="url(#SVGID_2_)" fill="#FFFFFF" d="M246.063,30.891c3.058-1.276,6.572,0.168,7.848,3.226
		c1.277,3.058-0.167,6.571-3.225,7.848c-3.058,1.276-6.572-0.168-7.849-3.226C241.561,35.681,243.005,32.167,246.063,30.891"/>
	<path clip-path="url(#SVGID_2_)" fill="#FFFFFF" d="M54.049,575.984c1.5,2.955,0.32,6.565-2.634,8.065
		c-2.955,1.5-6.566,0.32-8.066-2.634c-1.5-2.955-0.321-6.565,2.634-8.065S52.549,573.029,54.049,575.984"/>
	<path clip-path="url(#SVGID_2_)" fill="#FFFFFF" d="M757.147,219.082c1.5,2.955,0.32,6.566-2.634,8.066
		c-2.955,1.5-6.566,0.32-8.066-2.634c-1.5-2.955-0.32-6.566,2.635-8.066S755.647,216.126,757.147,219.082"/>
	<path clip-path="url(#SVGID_2_)" fill="#FFFFFF" d="M31.185,279.713c-1.029,3.15-4.416,4.87-7.566,3.841
		c-3.15-1.029-4.87-4.417-3.841-7.567c1.029-3.149,4.416-4.869,7.566-3.84S32.214,276.563,31.185,279.713"/>
	<path clip-path="url(#SVGID_2_)" fill="#FFFFFF" d="M780.719,524.511c-1.029,3.149-4.416,4.869-7.566,3.841
		c-3.149-1.029-4.869-4.417-3.841-7.567c1.029-3.148,4.416-4.869,7.566-3.84C780.027,517.973,781.748,521.36,780.719,524.511"/>
	<path clip-path="url(#SVGID_2_)" fill="#FFFFFF" d="M520.784,31.185c-3.15-1.029-4.87-4.416-3.841-7.566
		c1.029-3.15,4.417-4.87,7.566-3.841c3.149,1.029,4.869,4.416,3.841,7.566C527.321,30.494,523.935,32.214,520.784,31.185"/>
	<path clip-path="url(#SVGID_2_)" fill="#FFFFFF" d="M275.987,780.72c-3.15-1.029-4.87-4.416-3.841-7.566
		c1.029-3.15,4.417-4.87,7.567-3.841c3.149,1.028,4.869,4.416,3.84,7.565C282.525,780.028,279.137,781.748,275.987,780.72"/>
	<path clip-path="url(#SVGID_2_)" fill="#FFFFFF" d="M575.983,746.448c2.955-1.5,6.566-0.32,8.066,2.634
		c1.5,2.955,0.32,6.565-2.634,8.065c-2.955,1.5-6.566,0.321-8.066-2.634S573.029,747.948,575.983,746.448"/>
	<path clip-path="url(#SVGID_2_)" fill="#FFFFFF" d="M219.081,43.35c2.955-1.5,6.566-0.32,8.066,2.634
		c1.5,2.955,0.32,6.566-2.634,8.066c-2.955,1.5-6.566,0.321-8.066-2.634S216.126,44.85,219.081,43.35"/>
	<path clip-path="url(#SVGID_2_)" fill="#FFFFFF" d="M630.873,712.577c2.666-1.968,6.422-1.403,8.391,1.263
		c1.969,2.665,1.403,6.422-1.263,8.391s-6.422,1.403-8.391-1.263S628.207,714.545,630.873,712.577"/>
	<path clip-path="url(#SVGID_2_)" fill="#FFFFFF" d="M162.496,78.267c2.666-1.968,6.422-1.403,8.391,1.263
		c1.968,2.665,1.403,6.422-1.263,8.39c-2.666,1.969-6.422,1.404-8.391-1.262C159.265,83.992,159.83,80.235,162.496,78.267"/>
	<path clip-path="url(#SVGID_2_)" fill="#FFFFFF" d="M602.922,731.398c2.826-1.73,6.521-0.841,8.25,1.985
		c1.73,2.826,0.841,6.52-1.985,8.25c-2.826,1.729-6.521,0.841-8.249-1.985C599.207,736.821,600.096,733.128,602.922,731.398"/>
	<path clip-path="url(#SVGID_2_)" fill="#FFFFFF" d="M191.31,58.864c2.826-1.73,6.52-0.841,8.25,1.985
		c1.73,2.827,0.841,6.52-1.986,8.25c-2.826,1.73-6.52,0.841-8.249-1.985C187.595,64.287,188.484,60.594,191.31,58.864"/>
	<path clip-path="url(#SVGID_2_)" fill="#FFFFFF" d="M338.554,783.564c3.272,0.526,5.497,3.605,4.97,6.877
		c-0.526,3.271-3.605,5.497-6.877,4.971c-3.271-0.527-5.497-3.606-4.97-6.878C332.203,785.263,335.282,783.037,338.554,783.564"/>
	<path clip-path="url(#SVGID_2_)" fill="#FFFFFF" d="M463.85,5.086c3.271,0.527,5.496,3.606,4.97,6.877
		c-0.526,3.272-3.605,5.497-6.877,4.971c-3.271-0.527-5.497-3.606-4.97-6.878C457.498,6.785,460.577,4.559,463.85,5.086"/>
</g>
</svg>
