<?xml version="1.0" encoding="utf-8"?>
<!-- Generator: Adobe Illustrator 16.0.0, SVG Export Plug-In . SVG Version: 6.00 Build 0)  -->
<!DOCTYPE svg PUBLIC "-//W3C//DTD SVG 1.1//EN" "http://www.w3.org/Graphics/SVG/1.1/DTD/svg11.dtd">
<svg version="1.1" id="Layer_1" xmlns="http://www.w3.org/2000/svg" xmlns:xlink="http://www.w3.org/1999/xlink" x="0px" y="0px"
	 width="354.437px" height="462.292px" viewBox="0 0 354.437 462.292" enable-background="new 0 0 354.437 462.292"
	 xml:space="preserve">
<rect fill="#FFFFFF" width="354.437" height="462.292"/>
<path fill="#818793" d="M157.244,172.766H30.954V72.53h126.29V172.766z M34.803,168.917h118.593V76.378H34.803V168.917z"/>
<rect x="16.185" y="120.723" transform="matrix(0.7857 0.6186 -0.6186 0.7857 96.0255 -31.9274)" fill="#818793" width="155.828" height="3.848"/>
<rect x="92.175" y="44.733" transform="matrix(0.6184 0.7859 -0.7859 0.6184 132.2938 -27.1466)" fill="#818793" width="3.848" height="155.828"/>
<path fill="#818793" d="M323.482,396.784h-125.59V296.547h125.59V396.784z M201.74,392.936h117.894v-92.54H201.74V392.936z"/>
<rect x="183.048" y="344.741" transform="matrix(0.784 0.6207 -0.6207 0.784 271.493 -86.9448)" fill="#818793" width="155.279" height="3.849"/>
<rect x="258.762" y="269.026" transform="matrix(0.6208 0.784 -0.784 0.6208 370.6169 -72.9178)" fill="#818793" width="3.849" height="155.279"/>
<rect x="32.878" y="30.733" fill="#818793" width="60.2" height="16.949"/>
<rect x="288.285" y="33.995" fill="#818793" width="33.273" height="10.425"/>
<rect x="247.992" y="33.995" fill="#818793" width="33.273" height="10.425"/>
<rect x="207.289" y="33.995" fill="#818793" width="33.273" height="10.425"/>
<rect x="203.041" y="428.433" fill="#818793" width="33.274" height="10.426"/>
<rect x="162.748" y="428.433" fill="#818793" width="33.274" height="10.426"/>
<rect x="122.046" y="428.433" fill="#818793" width="33.274" height="10.426"/>
<rect x="32.879" y="253.123" fill="#818793" width="33.274" height="10.425"/>
<rect x="135.671" y="253.123" fill="#818793" width="33.274" height="10.425"/>
<rect x="247.992" y="253.123" fill="#818793" width="33.273" height="10.425"/>
<rect x="32.879" y="202.751" fill="#818793" width="87.019" height="3.849"/>
<rect x="32.879" y="217.447" fill="#818793" width="87.019" height="3.849"/>
<rect x="32.878" y="233.794" fill="#818793" width="52.332" height="3.849"/>
<rect x="32.878" y="300.078" fill="#818793" width="146.302" height="3.849"/>
<rect x="32.878" y="318.649" fill="#818793" width="146.302" height="3.85"/>
<rect x="32.878" y="337.221" fill="#818793" width="146.302" height="3.849"/>
<rect x="32.878" y="355.793" fill="#818793" width="146.302" height="3.849"/>
<rect x="32.878" y="374.364" fill="#818793" width="146.302" height="3.849"/>
<rect x="32.879" y="392.935" fill="#818793" width="87.983" height="3.85"/>
<rect x="135.671" y="202.751" fill="#818793" width="87.019" height="3.849"/>
<rect x="135.671" y="217.447" fill="#818793" width="87.019" height="3.849"/>
<rect x="135.671" y="233.794" fill="#818793" width="52.332" height="3.849"/>
<rect x="247.99" y="202.751" fill="#818793" width="73.138" height="3.849"/>
<rect x="247.99" y="217.447" fill="#818793" width="73.138" height="3.849"/>
<rect x="247.992" y="233.794" fill="#818793" width="43.982" height="3.849"/>
<rect x="179.385" y="74.295" fill="#818793" width="146.302" height="3.849"/>
<rect x="179.385" y="92.867" fill="#818793" width="146.302" height="3.848"/>
<rect x="179.385" y="111.438" fill="#818793" width="146.302" height="3.848"/>
<rect x="179.385" y="130.008" fill="#818793" width="146.302" height="3.849"/>
<rect x="179.385" y="148.579" fill="#818793" width="146.302" height="3.849"/>
<rect x="179.385" y="167.151" fill="#818793" width="87.983" height="3.849"/>
</svg>
