<?xml version="1.0" encoding="utf-8"?>
<!-- Generator: Adobe Illustrator 16.0.0, SVG Export Plug-In . SVG Version: 6.00 Build 0)  -->
<!DOCTYPE svg PUBLIC "-//W3C//DTD SVG 1.1//EN" "http://www.w3.org/Graphics/SVG/1.1/DTD/svg11.dtd">
<svg version="1.1" id="Layer_1" xmlns="http://www.w3.org/2000/svg" xmlns:xlink="http://www.w3.org/1999/xlink" x="0px" y="0px"
	 width="569.65px" height="488.223px" viewBox="0 0 569.65 488.223" enable-background="new 0 0 569.65 488.223"
	 xml:space="preserve">
<rect x="95.178" y="83.108" fill="#FFFFFF" width="379.294" height="315.989"/>
<path fill="#E0E0DF" d="M474.472,84.426V60.468c0-1.985-1.609-3.594-3.594-3.594H98.771c-1.984,0-3.593,1.609-3.593,3.594v23.958
	H474.472z"/>
<path fill="#F1605C" d="M111.98,70.051c0,1.837-1.489,3.326-3.326,3.326c-1.836,0-3.325-1.489-3.325-3.326s1.489-3.326,3.325-3.326
	C110.491,66.725,111.98,68.214,111.98,70.051"/>
<path fill="#FDF169" d="M122.911,70.051c0,1.837-1.489,3.326-3.326,3.326c-1.836,0-3.325-1.489-3.325-3.326s1.489-3.326,3.325-3.326
	C121.422,66.725,122.911,68.214,122.911,70.051"/>
<path fill="#A3D17E" d="M133.842,70.051c0,1.837-1.489,3.326-3.326,3.326s-3.325-1.489-3.325-3.326s1.488-3.326,3.325-3.326
	S133.842,68.214,133.842,70.051"/>
<path fill="#FFFFFF" d="M469.082,75.441c0,0.661-0.536,1.198-1.198,1.198H141.897c-0.662,0-1.198-0.537-1.198-1.198v-10.78
	c0-0.662,0.536-1.198,1.198-1.198h325.986c0.662,0,1.198,0.536,1.198,1.198V75.441z"/>
<rect x="115.726" y="127.711" fill="#3E4147" width="338.197" height="98.773"/>
<rect x="115.726" y="245.849" fill="#DEC07A" width="93.432" height="5.832"/>
<rect x="115.726" y="260.765" fill="#DEC07A" width="93.432" height="5.832"/>
<rect x="115.726" y="275.68" fill="#DEC07A" width="93.432" height="5.832"/>
<rect x="115.726" y="290.596" fill="#DEC07A" width="46.716" height="5.832"/>
<rect x="238.109" y="245.849" fill="#DEC07A" width="93.432" height="5.832"/>
<rect x="238.109" y="260.765" fill="#DEC07A" width="93.432" height="5.832"/>
<rect x="238.109" y="275.68" fill="#DEC07A" width="93.432" height="5.832"/>
<rect x="238.109" y="290.596" fill="#DEC07A" width="46.716" height="5.832"/>
<rect x="360.492" y="245.849" fill="#DEC07A" width="93.432" height="5.832"/>
<rect x="360.492" y="260.765" fill="#DEC07A" width="93.432" height="5.832"/>
<rect x="360.492" y="275.68" fill="#DEC07A" width="93.432" height="5.832"/>
<rect x="360.492" y="290.596" fill="#DEC07A" width="46.717" height="5.832"/>
<rect x="133.843" y="186.879" fill="#DEC07A" width="93.432" height="5.832"/>
<rect x="133.843" y="186.879" fill="none" stroke="#FDFBDF" stroke-width="0.25" stroke-miterlimit="10" width="93.432" height="5.832"/>
<rect x="133.843" y="201.795" fill="#DEC07A" width="46.716" height="5.832"/>
<rect x="133.843" y="201.795" fill="none" stroke="#FDFBDF" stroke-width="0.25" stroke-miterlimit="10" width="46.716" height="5.832"/>
<rect x="115.726" y="98.426" fill="#818793" width="46.716" height="14.188"/>
<rect x="421.825" y="101.117" fill="#818793" width="32.099" height="7.896"/>
<rect x="383.132" y="101.117" fill="#818793" width="32.1" height="7.896"/>
<rect x="344.442" y="101.117" fill="#818793" width="32.099" height="7.896"/>
<path fill="#818793" d="M187.405,480.997v3.423c0,0-1.651,3.803,21.449,3.803h76.717h75.552c22.749,0,21.123-3.803,21.123-3.803
	v-3.423H187.405z"/>
<path fill="#3E4147" d="M218.149,405.428c0,0-1.616,23.475-2.282,28.798c-0.665,5.324-0.665,17.396-7.224,26.143
	c-6.56,8.746-19.679,18.634-19.679,18.634s-8.936,5.704,15.686,6.084c24.621,0.38,80.9,0.569,80.9,0.569s55.446-0.189,79.704-0.569
	s15.454-6.084,15.454-6.084s-12.926-9.888-19.387-18.634c-6.463-8.746-6.463-20.818-7.119-26.143
	c-0.655-5.323-2.248-28.798-2.248-28.798H218.149z"/>
<path fill="#4B4E54" d="M569.65,391.937c0,10.08-8.172,18.252-18.252,18.252H18.252C8.172,410.188,0,402.017,0,391.937V18.253
	C0,8.172,8.172,0,18.252,0h533.146c10.08,0,18.252,8.172,18.252,18.253V391.937z M540.701,28.949H27.967v289.977h512.734V28.949z"/>
<path fill="#3E4147" d="M569.65,346.098v45.838c0,10.081-8.172,18.253-18.252,18.253H18.252C8.172,410.188,0,402.017,0,391.936
	v-45.838l27.967-27.171h512.734V28.949l23.186-24.008c3.548,3.33,5.764,8.062,5.764,13.312v373.682
	c0,10.081-8.172,18.253-18.252,18.253H18.252C8.172,410.188,0,402.017,0,391.936"/>
<path fill="#818793" d="M569.65,348.098v43.838c0,10.081-8.172,18.253-18.252,18.253H18.252C8.172,410.188,0,402.017,0,391.936
	v-43.838H569.65z"/>
</svg>
