<?xml version="1.0" encoding="utf-8"?>
<!-- Generator: Adobe Illustrator 16.0.0, SVG Export Plug-In . SVG Version: 6.00 Build 0)  -->
<!DOCTYPE svg PUBLIC "-//W3C//DTD SVG 1.1//EN" "http://www.w3.org/Graphics/SVG/1.1/DTD/svg11.dtd">
<svg version="1.1" id="Layer_1" xmlns="http://www.w3.org/2000/svg" xmlns:xlink="http://www.w3.org/1999/xlink" x="0px" y="0px"
	 width="53.3px" height="94.948px" viewBox="0 0 53.3 94.948" enable-background="new 0 0 53.3 94.948" xml:space="preserve">
<path fill="#78A4D7" d="M2.242,74.064c-0.622,0-1.242-0.258-1.685-0.762c-0.817-0.93-0.724-2.345,0.205-3.162
	c6.527-5.729,10.271-13.99,10.271-22.667S7.29,30.535,0.763,24.806c-0.93-0.815-1.022-2.23-0.206-3.161
	c0.817-0.929,2.233-1.021,3.161-0.206c7.496,6.579,11.795,16.069,11.795,26.035c0,9.965-4.299,19.454-11.794,26.034
	C3.294,73.882,2.767,74.064,2.242,74.064"/>
<path fill="#78A4D7" d="M15.154,86.31c-0.622,0-1.241-0.258-1.684-0.762c-0.817-0.93-0.725-2.345,0.205-3.162
	c10.052-8.823,15.817-21.548,15.817-34.912s-5.766-26.09-15.817-34.913c-0.931-0.815-1.023-2.23-0.206-3.16
	c0.815-0.93,2.231-1.022,3.161-0.207c11.021,9.674,17.343,23.627,17.343,38.28s-6.321,28.605-17.343,38.279
	C16.206,86.127,15.68,86.31,15.154,86.31"/>
<path fill="#78A4D7" d="M30.568,94.948c-0.622,0-1.242-0.258-1.686-0.763c-0.816-0.93-0.723-2.345,0.206-3.161
	C41.628,80.018,48.82,64.145,48.82,47.474S41.628,14.929,29.087,3.923c-0.929-0.816-1.022-2.231-0.205-3.162
	c0.817-0.928,2.233-1.021,3.161-0.205C45.552,12.413,53.3,29.513,53.3,47.474c0,17.96-7.747,35.062-21.255,46.917
	C31.62,94.765,31.093,94.948,30.568,94.948"/>
</svg>
