<?xml version="1.0" encoding="utf-8"?>
<!-- Generator: Adobe Illustrator 16.0.0, SVG Export Plug-In . SVG Version: 6.00 Build 0)  -->
<!DOCTYPE svg PUBLIC "-//W3C//DTD SVG 1.1//EN" "http://www.w3.org/Graphics/SVG/1.1/DTD/svg11.dtd">
<svg version="1.1" id="Layer_1" xmlns="http://www.w3.org/2000/svg" xmlns:xlink="http://www.w3.org/1999/xlink" x="0px" y="0px"
	 width="405.761px" height="464.665px" viewBox="0 0 405.761 464.665" enable-background="new 0 0 405.761 464.665"
	 xml:space="preserve">
<rect y="28.066" fill="#FFFFFF" width="405.76" height="436.599"/>
<rect y="29.475" fill="#C5CCD2" width="405.76" height="177.351"/>
<path fill="#E0E0DF" d="M405.761,29.475V3.845c0-2.124-1.722-3.845-3.845-3.845H3.846C1.722,0,0,1.721,0,3.845v25.63H405.761z"/>
<path fill="#F1605C" d="M17.976,14.097c0,1.965-1.593,3.559-3.558,3.559c-1.965,0-3.558-1.593-3.558-3.559
	c0-1.965,1.593-3.558,3.558-3.558C16.382,10.539,17.976,12.132,17.976,14.097"/>
<path fill="#FDF169" d="M29.669,14.097c0,1.965-1.593,3.559-3.558,3.559s-3.558-1.593-3.558-3.559c0-1.965,1.593-3.558,3.558-3.558
	S29.669,12.132,29.669,14.097"/>
<path fill="#A3D17E" d="M41.363,14.097c0,1.965-1.593,3.559-3.558,3.559c-1.965,0-3.558-1.593-3.558-3.559
	c0-1.965,1.593-3.558,3.558-3.558C39.77,10.539,41.363,12.132,41.363,14.097"/>
<path fill="#FFFFFF" d="M399.994,19.864c0,0.708-0.574,1.281-1.281,1.281H49.979c-0.708,0-1.282-0.573-1.282-1.281V8.33
	c0-0.707,0.574-1.281,1.282-1.281h348.733c0.707,0,1.281,0.574,1.281,1.281V19.864z"/>
<rect x="158.174" y="75.779" fill="#3E4147" width="225.604" height="105.665"/>
<rect y="397.855" fill="#AEB4BA" width="405.76" height="66.81"/>
<rect x="21.983" y="309.704" fill="#DEC07A" width="99.951" height="6.238"/>
<rect x="21.983" y="325.661" fill="#DEC07A" width="99.951" height="6.238"/>
<rect x="21.983" y="341.616" fill="#DEC07A" width="99.951" height="6.239"/>
<rect x="21.982" y="357.573" fill="#DEC07A" width="49.976" height="6.239"/>
<rect x="152.905" y="309.704" fill="#DEC07A" width="99.95" height="6.238"/>
<rect x="152.905" y="325.661" fill="#DEC07A" width="99.95" height="6.238"/>
<rect x="152.905" y="341.616" fill="#DEC07A" width="99.95" height="6.239"/>
<rect x="152.904" y="357.573" fill="#DEC07A" width="49.976" height="6.239"/>
<rect x="283.827" y="309.704" fill="#DEC07A" width="99.951" height="6.238"/>
<rect x="283.827" y="325.661" fill="#DEC07A" width="99.951" height="6.238"/>
<rect x="283.827" y="341.616" fill="#DEC07A" width="99.951" height="6.239"/>
<rect x="283.826" y="357.573" fill="#DEC07A" width="49.977" height="6.239"/>
<rect x="21.983" y="113.579" fill="#818793" width="99.951" height="6.239"/>
<rect x="21.983" y="129.966" fill="#818793" width="99.951" height="6.239"/>
<rect x="21.983" y="146.352" fill="#818793" width="99.951" height="6.239"/>
<rect x="21.983" y="80.806" fill="#818793" width="99.951" height="6.239"/>
<rect x="21.983" y="97.192" fill="#818793" width="99.951" height="6.239"/>
<rect x="21.982" y="162.738" fill="#818793" width="49.976" height="6.239"/>
<rect x="21.982" y="44.452" fill="#818793" width="49.976" height="15.177"/>
<rect x="21.982" y="423.672" fill="#818793" width="49.976" height="15.176"/>
<rect x="349.439" y="47.331" fill="#818793" width="34.339" height="8.448"/>
<rect x="308.049" y="47.331" fill="#818793" width="34.338" height="8.448"/>
<rect x="266.657" y="47.331" fill="#818793" width="34.339" height="8.448"/>
<rect x="172.078" y="427.036" fill="#818793" width="34.339" height="8.447"/>
<rect x="130.687" y="427.036" fill="#818793" width="34.339" height="8.447"/>
<rect x="89.296" y="427.036" fill="#818793" width="34.339" height="8.447"/>
<rect x="21.983" y="232.728" fill="#C5CCD2" width="99.951" height="50.716"/>
<rect x="151.442" y="232.728" fill="#C5CCD2" width="99.95" height="50.716"/>
<rect x="283.827" y="232.728" fill="#C5CCD2" width="99.951" height="50.716"/>
</svg>
