<?xml version="1.0" encoding="utf-8"?>
<!-- Generator: Adobe Illustrator 16.0.0, SVG Export Plug-In . SVG Version: 6.00 Build 0)  -->
<!DOCTYPE svg PUBLIC "-//W3C//DTD SVG 1.1//EN" "http://www.w3.org/Graphics/SVG/1.1/DTD/svg11.dtd">
<svg version="1.1" id="Layer_1" xmlns="http://www.w3.org/2000/svg" xmlns:xlink="http://www.w3.org/1999/xlink" x="0px" y="0px"
	 width="569.65px" height="488.223px" viewBox="0 0 569.65 488.223" enable-background="new 0 0 569.65 488.223"
	 xml:space="preserve">
<line fill="#FFFFFF" x1="474.472" y1="399.097" x2="95.178" y2="399.097"/>
<path fill="#818793" d="M187.405,480.997v3.423c0,0-1.651,3.803,21.449,3.803h76.717h75.552c22.749,0,21.123-3.803,21.123-3.803
	v-3.423H187.405z"/>
<path fill="#3E4147" d="M218.149,405.428c0,0-1.616,23.475-2.282,28.798c-0.665,5.324-0.665,17.396-7.224,26.143
	c-6.56,8.746-19.679,18.634-19.679,18.634s-8.936,5.704,15.686,6.084c24.621,0.38,80.9,0.569,80.9,0.569s55.446-0.189,79.704-0.569
	s15.454-6.084,15.454-6.084s-12.926-9.888-19.387-18.634c-6.463-8.746-6.463-20.818-7.119-26.143
	c-0.655-5.323-2.248-28.798-2.248-28.798H218.149z"/>
<path fill="#4B4E54" d="M569.65,391.937c0,10.08-8.172,18.252-18.252,18.252H18.252C8.172,410.188,0,402.017,0,391.937V18.253
	C0,8.172,8.172,0,18.252,0h533.146c10.08,0,18.252,8.172,18.252,18.253V391.937z M540.701,28.949H27.967v289.977h512.734V28.949z"/>
<path fill="#3E4147" d="M569.65,346.098v45.838c0,10.081-8.172,18.253-18.252,18.253H18.252C8.172,410.188,0,402.017,0,391.936
	v-45.838l27.967-27.171h512.734V28.949l23.186-24.008c3.548,3.33,5.764,8.062,5.764,13.312v373.682
	c0,10.081-8.172,18.253-18.252,18.253H18.252C8.172,410.188,0,402.017,0,391.936"/>
<path fill="#818793" d="M569.65,348.098v43.838c0,10.081-8.172,18.253-18.252,18.253H18.252C8.172,410.188,0,402.017,0,391.936
	v-43.838H569.65z"/>
<rect x="27.967" y="28.949" fill="#262625" width="512.734" height="289.977"/>
</svg>
