<?xml version="1.0" encoding="utf-8"?>
<!-- Generator: Adobe Illustrator 16.0.0, SVG Export Plug-In . SVG Version: 6.00 Build 0)  -->
<!DOCTYPE svg PUBLIC "-//W3C//DTD SVG 1.1//EN" "http://www.w3.org/Graphics/SVG/1.1/DTD/svg11.dtd">
<svg version="1.1" id="Layer_1" xmlns="http://www.w3.org/2000/svg" xmlns:xlink="http://www.w3.org/1999/xlink" x="0px" y="0px"
	 width="240.931px" height="134.198px" viewBox="0 0 240.931 134.198" enable-background="new 0 0 240.931 134.198"
	 xml:space="preserve">
<path fill="#AA9157" d="M0,69.141c0,22.664,24.931,41.037,55.685,41.037c30.756,0,55.687-18.373,55.687-41.037
	S86.44,28.104,55.685,28.104C24.931,28.104,0,46.477,0,69.141"/>
<polygon fill="#AA9157" points="10.924,115.53 39.673,106.206 23.808,90.341 17.567,96.58 "/>
<path fill="#DEC07A" d="M240.931,62.991c0,34.789-38.27,62.991-85.477,62.991S69.979,97.78,69.979,62.991S108.247,0,155.454,0
	S240.931,28.202,240.931,62.991"/>
<polygon fill="#DEC07A" points="224.163,134.198 180.033,119.887 204.387,95.533 213.965,105.111 "/>
<path fill="#FDFBDF" d="M133.529,62.991c0,3.809-3.089,6.897-6.897,6.897s-6.896-3.089-6.896-6.897c0-3.81,3.088-6.897,6.896-6.897
	S133.529,59.182,133.529,62.991"/>
<path fill="#FDFBDF" d="M160.229,62.991c0,3.809-3.088,6.897-6.896,6.897c-3.81,0-6.897-3.089-6.897-6.897
	c0-3.81,3.088-6.897,6.897-6.897C157.142,56.094,160.229,59.182,160.229,62.991"/>
<path fill="#FDFBDF" d="M186.931,62.991c0,3.809-3.088,6.897-6.897,6.897c-3.809,0-6.897-3.089-6.897-6.897
	c0-3.81,3.089-6.897,6.897-6.897C183.843,56.094,186.931,59.182,186.931,62.991"/>
<path fill="#DEC07A" d="M240.931,62.991c0,34.789-38.27,62.991-85.477,62.991S69.979,97.78,69.979,62.991S108.247,0,155.454,0
	S240.931,28.202,240.931,62.991"/>
<polygon fill="#DEC07A" points="224.163,134.198 180.033,119.887 204.387,95.533 213.965,105.111 "/>
<path fill="#FDFBDF" d="M133.529,62.991c0,3.809-3.089,6.897-6.897,6.897s-6.896-3.089-6.896-6.897c0-3.81,3.088-6.897,6.896-6.897
	S133.529,59.182,133.529,62.991"/>
<path fill="#FDFBDF" d="M160.229,62.991c0,3.809-3.088,6.897-6.896,6.897c-3.81,0-6.897-3.089-6.897-6.897
	c0-3.81,3.088-6.897,6.897-6.897C157.142,56.094,160.229,59.182,160.229,62.991"/>
<path fill="#FDFBDF" d="M186.931,62.991c0,3.809-3.088,6.897-6.897,6.897c-3.809,0-6.897-3.089-6.897-6.897
	c0-3.81,3.089-6.897,6.897-6.897C183.843,56.094,186.931,59.182,186.931,62.991"/>
</svg>
