<?xml version="1.0" encoding="utf-8"?>
<!-- Generator: Adobe Illustrator 16.0.0, SVG Export Plug-In . SVG Version: 6.00 Build 0)  -->
<!DOCTYPE svg PUBLIC "-//W3C//DTD SVG 1.1//EN" "http://www.w3.org/Graphics/SVG/1.1/DTD/svg11.dtd">
<svg version="1.1" id="Layer_1" xmlns="http://www.w3.org/2000/svg" xmlns:xlink="http://www.w3.org/1999/xlink" x="0px" y="0px"
	 width="603.474px" height="344.742px" viewBox="0 0 603.474 344.742" enable-background="new 0 0 603.474 344.742"
	 xml:space="preserve">
<rect x="66.498" y="11.281" fill="#262626" width="468.216" height="306.04"/>
<rect x="112.844" y="72.229" fill="#2D2F33" width="385.54" height="245.092"/>
<rect x="112.844" y="72.229" fill="#818793" width="94.453" height="245.092"/>
<path fill="#E0E0DF" d="M498.384,73.766V45.8c0-2.317-1.878-4.195-4.195-4.195H117.039c-2.317,0-4.195,1.878-4.195,4.195v27.966
	H498.384z"/>
<path fill="#F1605C" d="M132.457,56.987c0,2.144-1.738,3.882-3.882,3.882c-2.145,0-3.882-1.738-3.882-3.882
	c0-2.144,1.737-3.882,3.882-3.882C130.719,53.105,132.457,54.843,132.457,56.987"/>
<path fill="#FDF169" d="M145.217,56.987c0,2.144-1.738,3.882-3.882,3.882c-2.145,0-3.883-1.738-3.883-3.882
	c0-2.144,1.738-3.882,3.883-3.882C143.479,53.105,145.217,54.843,145.217,56.987"/>
<path fill="#A3D17E" d="M157.976,56.987c0,2.144-1.737,3.882-3.882,3.882c-2.144,0-3.882-1.738-3.882-3.882
	c0-2.144,1.738-3.882,3.882-3.882C156.238,53.105,157.976,54.843,157.976,56.987"/>
<path fill="#4B4E54" d="M57.104,332.405V17.625C57.104,7.891,64.995,0,74.729,0h454.017c9.733,0,17.624,7.891,17.624,17.625v314.78
	H57.104z M72.262,309.492h458.95V16.92H72.262V309.492z"/>
<path fill="#3E4147" d="M541.207,5.163c3.188,3.189,5.162,7.595,5.162,12.463v314.779H57.104v-8.897l15.156-14.015h458.951V16.92
	L541.207,5.163z"/>
<rect y="326.412" fill="#818793" width="603.474" height="11.985"/>
<polygon fill="#3E4147" points="603.474,338.397 0,338.397 14.1,344.742 589.374,344.742 "/>
<rect x="260.847" y="325.861" fill="#3E4147" width="81.779" height="4.744"/>
<path fill="#262626" d="M305.614,8.108c0,1.752-1.42,3.173-3.172,3.173c-1.753,0-3.174-1.421-3.174-3.173s1.421-3.172,3.174-3.172
	C304.194,4.936,305.614,6.356,305.614,8.108"/>
<rect x="234.052" y="118.219" fill="#D4474A" width="31.292" height="8.953"/>
<rect x="272.419" y="118.219" fill="#FFFFFF" width="89.511" height="8.953"/>
<rect x="369.006" y="118.219" fill="#D4474A" width="24.854" height="8.953"/>
<rect x="234.052" y="98.115" fill="#DEC07A" width="62.584" height="8.953"/>
<rect x="304.826" y="98.115" fill="#78A4D7" width="31.292" height="8.953"/>
<rect x="344.309" y="98.115" fill="#C492BA" width="11.129" height="8.953"/>
<rect x="234.052" y="138.323" fill="#DEC07A" width="62.584" height="8.953"/>
<rect x="304.826" y="138.323" fill="#78A4D7" width="31.292" height="8.953"/>
<rect x="344.309" y="138.323" fill="#C492BA" width="11.129" height="8.953"/>
<rect x="292.854" y="158.427" fill="#FFFFFF" width="11.368" height="8.953"/>
<rect x="253.372" y="158.427" fill="#DEC07A" width="31.292" height="8.953"/>
<rect x="234.052" y="158.427" fill="#78A4D7" width="11.129" height="8.953"/>
<rect x="128.778" y="93.638" fill="#4B4E54" width="62.584" height="8.953"/>
<rect x="128.778" y="113.063" fill="#4B4E54" width="62.584" height="8.952"/>
<rect x="128.778" y="132.486" fill="#4B4E54" width="62.584" height="8.953"/>
</svg>
