<?xml version="1.0" encoding="utf-8"?>
<!-- Generator: Adobe Illustrator 16.0.0, SVG Export Plug-In . SVG Version: 6.00 Build 0)  -->
<!DOCTYPE svg PUBLIC "-//W3C//DTD SVG 1.1//EN" "http://www.w3.org/Graphics/SVG/1.1/DTD/svg11.dtd">
<svg version="1.1" id="Layer_1" xmlns="http://www.w3.org/2000/svg" xmlns:xlink="http://www.w3.org/1999/xlink" x="0px" y="0px"
	 width="53.299px" height="94.948px" viewBox="0 0 53.299 94.948" enable-background="new 0 0 53.299 94.948" xml:space="preserve">
<path fill="#D4474A" d="M51.058,20.884c0.622,0,1.241,0.258,1.684,0.762c0.817,0.93,0.724,2.345-0.205,3.161
	c-6.526,5.73-10.27,13.992-10.27,22.668s3.743,16.939,10.271,22.668c0.93,0.816,1.022,2.231,0.205,3.161
	c-0.816,0.929-2.232,1.021-3.16,0.206c-7.496-6.579-11.796-16.069-11.796-26.035c0-9.965,4.3-19.454,11.794-26.035
	C50.006,21.066,50.533,20.884,51.058,20.884"/>
<path fill="#D4474A" d="M38.145,8.639c0.622,0,1.242,0.258,1.685,0.762c0.817,0.93,0.724,2.346-0.205,3.162
	C29.573,21.386,23.806,34.11,23.806,47.475c0,13.365,5.767,26.09,15.819,34.913c0.929,0.815,1.021,2.231,0.205,3.161
	c-0.816,0.929-2.232,1.021-3.161,0.206c-11.022-9.673-17.343-23.626-17.343-38.28c0-14.653,6.321-28.605,17.342-38.279
	C37.093,8.821,37.621,8.639,38.145,8.639"/>
<path fill="#D4474A" d="M22.732,0c0.622,0,1.242,0.259,1.684,0.763c0.817,0.93,0.724,2.345-0.205,3.162
	C11.672,14.931,4.48,30.804,4.48,47.475s7.192,32.544,19.732,43.551c0.93,0.817,1.023,2.232,0.206,3.162
	c-0.817,0.928-2.233,1.021-3.161,0.205C7.748,82.535,0,65.436,0,47.475c0-17.96,7.747-35.062,21.255-46.917
	C21.68,0.184,22.207,0,22.732,0"/>
</svg>
