<?xml version="1.0" encoding="utf-8"?>
<!-- Generator: Adobe Illustrator 16.0.0, SVG Export Plug-In . SVG Version: 6.00 Build 0)  -->
<!DOCTYPE svg PUBLIC "-//W3C//DTD SVG 1.1//EN" "http://www.w3.org/Graphics/SVG/1.1/DTD/svg11.dtd">
<svg version="1.1" id="Layer_1" xmlns="http://www.w3.org/2000/svg" xmlns:xlink="http://www.w3.org/1999/xlink" x="0px" y="0px"
	 width="16px" height="192.974px" viewBox="0 0 16 192.974" enable-background="new 0 0 16 192.974" xml:space="preserve">
<polygon fill="#818793" points="1.719,17.726 4.849,6.08 11.012,6.08 14.282,17.726 "/>
<rect y="72.596" fill="#818793" width="16" height="113"/>
<rect y="16.726" fill="#3E4147" width="16" height="56.5"/>
<rect x="1.718" y="185.597" fill="#3E4147" width="12.563" height="7.377"/>
<rect x="3.979" y="24.006" fill="#262626" width="1.877" height="42.082"/>
<rect x="10.144" y="24.006" fill="#262626" width="1.877" height="42.082"/>
<path fill="#3E4147" d="M8.6,175.648c0.39,0.091,0.859,0.163,1.409,0.215s1.034,0.068,1.453,0.046
	c0.127-0.007,0.217-0.014,0.268-0.021c0.141-0.021,0.245-0.032,0.312-0.035c0.149-0.009,0.277,0.039,0.383,0.14
	c0.105,0.102,0.163,0.231,0.171,0.389c0.012,0.23-0.073,0.416-0.256,0.559s-0.435,0.222-0.754,0.238
	c-0.341,0.019-0.763,0.005-1.263-0.039c-0.5-0.045-0.972-0.11-1.412-0.199c0.055,0.236,0.152,0.559,0.294,0.967
	c0.178,0.529,0.305,0.877,0.382,1.045c0.257,0.166,0.664,0.389,1.222,0.667c0.558,0.279,0.981,0.476,1.269,0.588
	c0.275,0.105,0.465,0.205,0.567,0.3c0.104,0.096,0.16,0.223,0.168,0.381c0.009,0.166-0.041,0.31-0.151,0.431
	c-0.108,0.121-0.239,0.187-0.394,0.194c-0.132,0.007-0.288-0.022-0.469-0.088s-0.467-0.199-0.858-0.401
	c-0.255-0.132-0.475-0.249-0.66-0.351c0.011,0.039,0.018,0.078,0.02,0.121c0.008,0.146-0.028,0.264-0.107,0.355
	c-0.078,0.092-0.188,0.142-0.328,0.148c-0.205,0.012-0.377-0.073-0.514-0.252c-0.138-0.179-0.32-0.558-0.547-1.136l-0.045-0.112
	c-0.449-0.242-0.936-0.541-1.461-0.896c-0.526-0.356-1.055-0.74-1.584-1.152c-0.531-0.413-1.012-0.819-1.444-1.221
	c-0.341-0.319-0.591-0.583-0.75-0.791c-0.157-0.208-0.241-0.386-0.249-0.535c-0.01-0.192,0.043-0.358,0.16-0.5
	c0.116-0.14,0.262-0.215,0.438-0.225c0.145-0.007,0.354,0.03,0.628,0.114l0.893,0.274l0.905,0.248
	c0.516,0.14,0.878,0.232,1.086,0.276c-0.018-0.103-0.029-0.18-0.031-0.235c-0.008-0.133,0.008-0.246,0.046-0.34
	s0.091-0.167,0.162-0.22c0.069-0.053,0.16-0.082,0.271-0.088c0.171-0.01,0.316,0.035,0.438,0.135c0.12,0.098,0.196,0.231,0.227,0.4
	l0.039,0.281l0.059,0.253c0.001,0.013,0.003,0.025,0.005,0.035C8.597,175.624,8.599,175.636,8.6,175.648 M5.381,176.054
	c0.237,0.215,0.528,0.457,0.869,0.725c0.341,0.27,0.679,0.52,1.014,0.752c0.336,0.233,0.627,0.422,0.874,0.567
	c-0.17-0.462-0.314-0.901-0.436-1.318l-0.017-0.069l-0.084-0.021l-0.981-0.264l-1.058-0.322c-0.013-0.003-0.024-0.006-0.034-0.008
	c-0.012-0.002-0.025-0.006-0.044-0.011c-0.017-0.006-0.032-0.01-0.045-0.014C5.427,176.067,5.407,176.062,5.381,176.054"/>
<path fill="#3E4147" d="M10.779,173.051c0.595,0.345,0.905,0.742,0.928,1.189c0.015,0.256-0.074,0.472-0.264,0.646
	c-0.19,0.175-0.433,0.271-0.726,0.285c-0.338,0.018-0.738-0.044-1.203-0.188c-0.466-0.142-0.906-0.338-1.321-0.591
	c-0.706-0.417-1.067-0.773-1.082-1.073c-0.007-0.131,0.028-0.24,0.104-0.325c0.077-0.085,0.179-0.132,0.302-0.138
	c0.098-0.006,0.191,0.012,0.281,0.049c0.09,0.039,0.226,0.121,0.407,0.248c0.838,0.56,1.478,0.828,1.916,0.805
	c0.142-0.007,0.208-0.064,0.202-0.171c-0.006-0.115-0.116-0.257-0.33-0.425c-0.361-0.289-0.814-0.582-1.361-0.879l-0.72-0.398
	c-0.278-0.157-0.422-0.339-0.433-0.548c-0.008-0.132,0.027-0.241,0.104-0.327c0.077-0.085,0.181-0.131,0.313-0.138
	c0.119-0.007,0.242,0.016,0.365,0.067c0.125,0.051,0.355,0.176,0.69,0.371c0.631,0.364,1.063,0.541,1.298,0.528
	c0.073-0.004,0.13-0.025,0.17-0.063c0.041-0.039,0.061-0.085,0.058-0.141c-0.009-0.17-0.24-0.417-0.693-0.74l-0.507-0.365
	c-0.191-0.139-0.29-0.271-0.297-0.395c-0.004-0.089,0.022-0.164,0.082-0.225c0.059-0.062,0.133-0.095,0.222-0.1
	c0.154-0.008,0.348,0.044,0.582,0.156c0.235,0.111,0.481,0.268,0.74,0.468c0.755,0.599,1.144,1.146,1.171,1.646
	c0.011,0.218-0.055,0.4-0.199,0.549s-0.333,0.229-0.568,0.242C10.947,173.074,10.87,173.067,10.779,173.051"/>
<path fill="#3E4147" d="M6.229,167.983c-0.031-0.101-0.046-0.148-0.046-0.145l-0.117-0.385c-0.058-0.194-0.087-0.326-0.092-0.394
	c-0.007-0.137,0.033-0.251,0.121-0.343s0.196-0.143,0.328-0.149c0.185-0.01,0.342,0.062,0.474,0.213
	c0.073,0.086,0.131,0.259,0.175,0.518c0.042,0.241,0.146,0.62,0.31,1.138c0.041,0.135,0.079,0.244,0.113,0.328l0.166,0.1
	c0.538,0.323,1.076,0.583,1.612,0.781c0.44,0.157,0.753,0.23,0.936,0.221c0.223-0.012,0.328-0.108,0.318-0.293
	c-0.008-0.148-0.135-0.351-0.378-0.604c-0.244-0.255-0.568-0.52-0.972-0.793c-0.195-0.127-0.296-0.259-0.304-0.396
	c-0.005-0.098,0.024-0.179,0.087-0.245c0.063-0.064,0.141-0.1,0.235-0.104c0.149-0.008,0.351,0.056,0.606,0.193
	c0.256,0.136,0.53,0.328,0.825,0.578c0.703,0.592,1.069,1.17,1.099,1.732c0.017,0.307-0.07,0.561-0.262,0.761
	c-0.19,0.2-0.443,0.31-0.759,0.325c-0.35,0.02-0.747-0.041-1.19-0.178s-0.977-0.371-1.602-0.702
	c0.021,0.098,0.034,0.174,0.037,0.229c0.009,0.157-0.027,0.286-0.108,0.388c-0.079,0.1-0.188,0.153-0.325,0.161
	c-0.179,0.009-0.316-0.052-0.412-0.181c-0.098-0.13-0.181-0.373-0.25-0.728c-0.041-0.208-0.084-0.368-0.129-0.481l-0.105-0.071
	c-0.663-0.401-1.273-0.83-1.832-1.283c-0.254-0.205-0.387-0.407-0.396-0.608c-0.008-0.132,0.024-0.245,0.097-0.338
	c0.071-0.094,0.164-0.144,0.274-0.149c0.095-0.005,0.199,0.024,0.315,0.09c0.117,0.063,0.343,0.222,0.677,0.474
	C5.888,167.747,6.046,167.86,6.229,167.983"/>
<path fill="#3E4147" d="M8.217,166.513l-0.055-0.074c-0.371-0.459-0.632-0.82-0.785-1.081c-0.153-0.262-0.234-0.485-0.244-0.674
	c-0.007-0.146,0.042-0.274,0.149-0.39c0.107-0.114,0.235-0.176,0.386-0.184c0.11-0.006,0.214,0.016,0.311,0.064
	c0.097,0.048,0.283,0.17,0.559,0.365l0.359,0.27c0.423,0.303,0.724,0.449,0.902,0.44c0.133-0.007,0.195-0.074,0.188-0.202
	c-0.01-0.18-0.119-0.37-0.332-0.573c-0.12-0.113-0.393-0.326-0.815-0.638c-0.183-0.131-0.277-0.264-0.284-0.396
	c-0.005-0.094,0.023-0.171,0.084-0.229c0.062-0.06,0.143-0.091,0.246-0.097c0.303-0.016,0.734,0.213,1.293,0.683
	c0.233,0.206,0.43,0.408,0.59,0.604c0.16,0.197,0.287,0.396,0.381,0.597c0.094,0.2,0.146,0.381,0.153,0.543
	c0.013,0.234-0.063,0.44-0.228,0.618c-0.163,0.178-0.364,0.272-0.604,0.284c-0.252,0.015-0.552-0.05-0.898-0.189
	c-0.348-0.14-0.655-0.325-0.925-0.554c0.341,0.683,0.98,1.229,1.921,1.637l0.473,0.201c0.223,0.09,0.381,0.18,0.473,0.27
	c0.092,0.089,0.143,0.193,0.148,0.312c0.007,0.128-0.031,0.24-0.114,0.337c-0.083,0.096-0.187,0.147-0.31,0.153
	c-0.256,0.014-0.732-0.103-1.43-0.348c-0.418-0.15-0.917-0.344-1.496-0.583c-0.58-0.239-1.089-0.465-1.527-0.676
	c-0.719-0.349-1.347-0.705-1.881-1.073c-0.534-0.367-0.951-0.723-1.25-1.066c-0.297-0.345-0.453-0.651-0.469-0.926
	c-0.011-0.204,0.055-0.376,0.195-0.513c0.14-0.138,0.328-0.213,0.562-0.226c0.345-0.019,0.701,0.062,1.067,0.242
	c0.367,0.181,0.724,0.444,1.071,0.793c0.254,0.258,0.509,0.563,0.767,0.92c0.259,0.356,0.47,0.697,0.638,1.021l0.08,0.041
	C7.843,166.359,8.06,166.457,8.217,166.513 M6.212,165.592c-0.196-0.315-0.434-0.595-0.711-0.842
	c-0.148-0.134-0.307-0.248-0.475-0.345c-0.168-0.096-0.289-0.142-0.365-0.137c-0.03,0.001-0.057,0.012-0.079,0.032
	c-0.022,0.02-0.033,0.048-0.031,0.082c0.005,0.09,0.07,0.187,0.195,0.292c0.13,0.113,0.286,0.23,0.471,0.354
	c0.185,0.122,0.346,0.222,0.487,0.295l0.429,0.228C6.137,165.551,6.163,165.564,6.212,165.592"/>
<path fill="#3E4147" d="M9.642,162.974c0.092,0.047,0.185,0.067,0.279,0.062c0.299-0.016,0.438-0.192,0.422-0.528
	c-0.014-0.239-0.131-0.509-0.352-0.81s-0.498-0.564-0.83-0.79l-0.379-0.256c-0.138-0.096-0.21-0.203-0.216-0.323
	c-0.005-0.102,0.026-0.188,0.096-0.255c0.069-0.068,0.155-0.104,0.257-0.109c0.328-0.018,0.752,0.202,1.273,0.658
	c0.367,0.319,0.659,0.664,0.875,1.035s0.333,0.729,0.352,1.075c0.02,0.375-0.089,0.69-0.325,0.947
	c-0.237,0.256-0.552,0.395-0.944,0.415c-0.479,0.025-0.985-0.089-1.521-0.341c-0.537-0.252-0.99-0.581-1.358-0.986
	c-0.367-0.406-0.562-0.809-0.582-1.205c-0.013-0.252,0.059-0.461,0.217-0.627s0.365-0.257,0.621-0.27
	c0.243-0.013,0.492,0.031,0.745,0.134s0.482,0.246,0.689,0.433c0.207,0.186,0.373,0.396,0.502,0.634
	c0.127,0.237,0.198,0.479,0.211,0.727C9.68,162.705,9.669,162.831,9.642,162.974 M8.687,162.62c0.009-0.065,0.013-0.118,0.011-0.161
	c-0.011-0.196-0.103-0.385-0.276-0.565c-0.175-0.182-0.345-0.268-0.512-0.26c-0.046,0.003-0.084,0.019-0.113,0.048
	c-0.027,0.029-0.041,0.063-0.039,0.103c0.006,0.093,0.097,0.222,0.273,0.386C8.208,162.334,8.427,162.483,8.687,162.62"/>
<path fill="#3E4147" d="M8.547,159.343l-0.236-0.212c-0.494-0.449-0.915-0.897-1.264-1.345c-0.142-0.182-0.245-0.34-0.31-0.473
	s-0.101-0.257-0.106-0.373c-0.008-0.148,0.031-0.277,0.115-0.384s0.189-0.164,0.317-0.171c0.115-0.006,0.221,0.017,0.318,0.066
	c0.097,0.052,0.25,0.16,0.46,0.33c0.331,0.272,0.656,0.498,0.975,0.677c0.32,0.177,0.555,0.263,0.703,0.255
	c0.124-0.008,0.183-0.065,0.177-0.176c-0.012-0.215-0.271-0.486-0.78-0.819c-0.332-0.222-0.534-0.366-0.604-0.433
	c-0.069-0.068-0.107-0.152-0.112-0.254c-0.006-0.091,0.021-0.166,0.078-0.229c0.057-0.063,0.131-0.097,0.226-0.103
	c0.149-0.007,0.36,0.059,0.632,0.198c0.273,0.14,0.552,0.322,0.837,0.546c0.299,0.242,0.537,0.497,0.714,0.769
	c0.178,0.271,0.272,0.53,0.285,0.776c0.014,0.248-0.062,0.457-0.224,0.629c-0.162,0.17-0.371,0.263-0.627,0.276
	c-0.243,0.013-0.466-0.015-0.665-0.084c-0.201-0.069-0.451-0.202-0.754-0.399c0.221,0.355,0.516,0.693,0.885,1.012
	c0.37,0.318,0.729,0.546,1.078,0.681l0.537,0.203c0.271,0.103,0.41,0.255,0.422,0.46c0.007,0.136-0.036,0.252-0.129,0.35
	c-0.095,0.097-0.215,0.149-0.364,0.156c-0.243,0.014-0.688-0.093-1.335-0.318c-0.647-0.225-1.268-0.486-1.86-0.784
	c-0.491-0.243-0.853-0.462-1.083-0.655s-0.35-0.375-0.359-0.546c-0.006-0.106,0.031-0.201,0.11-0.284
	c0.079-0.084,0.179-0.128,0.298-0.135c0.111-0.006,0.217,0.017,0.317,0.066l0.595,0.322l0.575,0.322
	c0.026,0.012,0.048,0.023,0.066,0.032C8.472,159.303,8.503,159.319,8.547,159.343"/>
<path fill="#3E4147" d="M5.479,153.685c-0.03-0.101-0.046-0.148-0.046-0.145l-0.117-0.387c-0.056-0.192-0.087-0.324-0.091-0.393
	c-0.007-0.136,0.033-0.25,0.12-0.343c0.088-0.093,0.197-0.143,0.33-0.149c0.183-0.009,0.34,0.062,0.472,0.213
	c0.073,0.086,0.132,0.258,0.175,0.518c0.043,0.242,0.146,0.621,0.311,1.139c0.041,0.135,0.079,0.244,0.113,0.327l0.166,0.101
	c0.539,0.322,1.075,0.583,1.612,0.781c0.44,0.157,0.752,0.23,0.936,0.221c0.222-0.012,0.327-0.109,0.317-0.293
	c-0.007-0.148-0.134-0.351-0.378-0.605c-0.244-0.254-0.567-0.519-0.972-0.792c-0.194-0.127-0.295-0.259-0.302-0.396
	c-0.007-0.098,0.022-0.18,0.086-0.245c0.062-0.064,0.142-0.101,0.234-0.104c0.149-0.008,0.353,0.056,0.607,0.191
	c0.255,0.138,0.53,0.33,0.826,0.579c0.702,0.593,1.067,1.171,1.098,1.733c0.017,0.307-0.071,0.561-0.262,0.761
	c-0.191,0.2-0.444,0.31-0.759,0.325c-0.351,0.018-0.747-0.041-1.19-0.178c-0.442-0.137-0.978-0.371-1.603-0.702
	c0.022,0.097,0.035,0.174,0.039,0.229c0.008,0.157-0.028,0.286-0.108,0.387c-0.081,0.101-0.189,0.153-0.325,0.162
	c-0.18,0.009-0.318-0.052-0.414-0.182c-0.097-0.129-0.18-0.372-0.25-0.728c-0.041-0.207-0.084-0.368-0.128-0.481l-0.106-0.07
	c-0.662-0.401-1.272-0.83-1.832-1.283c-0.254-0.205-0.387-0.408-0.396-0.608c-0.007-0.132,0.025-0.245,0.097-0.339
	c0.073-0.093,0.164-0.143,0.275-0.148c0.094-0.006,0.199,0.024,0.315,0.088c0.117,0.065,0.343,0.224,0.677,0.476
	C5.139,153.448,5.297,153.562,5.479,153.685"/>
<path fill="#3E4147" d="M8.55,150.95c0.111-0.005,0.279,0.053,0.506,0.174c0.227,0.119,0.425,0.256,0.596,0.404
	c0.309,0.266,0.553,0.542,0.729,0.828c0.178,0.285,0.272,0.546,0.285,0.78c0.014,0.265-0.067,0.485-0.241,0.664
	c-0.175,0.178-0.398,0.274-0.671,0.289c-0.568,0.028-1.286-0.216-2.156-0.734c-0.301-0.181-0.515-0.339-0.644-0.473
	c-0.129-0.136-0.197-0.274-0.205-0.419c-0.006-0.133,0.035-0.243,0.124-0.331c0.09-0.089,0.207-0.136,0.352-0.144
	c0.095-0.005,0.181,0.008,0.263,0.04c0.08,0.033,0.179,0.093,0.295,0.181c0.711,0.511,1.193,0.759,1.449,0.746
	c0.154-0.009,0.228-0.084,0.219-0.224c-0.006-0.11-0.084-0.252-0.239-0.424c-0.172-0.188-0.351-0.353-0.533-0.492
	c-0.182-0.14-0.302-0.245-0.358-0.315c-0.058-0.068-0.089-0.144-0.093-0.226c-0.005-0.089,0.021-0.162,0.078-0.219
	C8.362,151.001,8.442,150.966,8.55,150.95 M4.286,150.264c0.246-0.013,0.481,0.078,0.703,0.274c0.223,0.195,0.34,0.412,0.353,0.651
	c0.007,0.138-0.033,0.255-0.119,0.356c-0.087,0.101-0.194,0.154-0.321,0.16c-0.253,0.015-0.492-0.08-0.722-0.278
	c-0.228-0.2-0.349-0.42-0.362-0.658c-0.007-0.146,0.033-0.264,0.12-0.356C4.024,150.321,4.141,150.271,4.286,150.264"/>
<path fill="#3E4147" d="M8.605,147.856c0.248-0.014,0.615,0.218,1.101,0.692c0.325,0.317,0.574,0.646,0.748,0.987
	s0.271,0.679,0.287,1.011c0.02,0.367-0.08,0.665-0.299,0.896c-0.219,0.229-0.525,0.354-0.917,0.375
	c-0.401,0.021-0.813-0.053-1.237-0.221s-0.837-0.426-1.24-0.771c-0.34-0.282-0.604-0.568-0.795-0.857s-0.293-0.562-0.307-0.817
	c-0.008-0.149,0.023-0.285,0.091-0.409c0.069-0.123,0.167-0.221,0.296-0.294s0.272-0.114,0.431-0.122
	c0.243-0.014,0.497,0.029,0.76,0.127c0.264,0.097,0.483,0.226,0.659,0.385c0.175,0.16,0.267,0.323,0.275,0.489
	c0.006,0.094-0.027,0.183-0.099,0.265c-0.07,0.083-0.152,0.127-0.246,0.133c-0.056,0.002-0.106-0.008-0.153-0.031
	c-0.045-0.023-0.104-0.071-0.177-0.145c-0.212-0.203-0.384-0.301-0.516-0.294c-0.043,0.002-0.076,0.015-0.102,0.038
	c-0.023,0.021-0.034,0.055-0.032,0.098c0.004,0.082,0.06,0.188,0.166,0.318c0.108,0.131,0.252,0.268,0.43,0.407
	c0.245,0.188,0.506,0.337,0.784,0.446c0.276,0.109,0.516,0.16,0.716,0.148c0.137-0.007,0.245-0.054,0.322-0.142
	c0.08-0.087,0.115-0.193,0.109-0.317c-0.006-0.111-0.04-0.241-0.104-0.392c-0.064-0.15-0.15-0.3-0.262-0.448
	c-0.109-0.149-0.224-0.273-0.34-0.374l-0.417-0.369c-0.175-0.153-0.266-0.296-0.272-0.428c-0.006-0.099,0.027-0.187,0.095-0.263
	C8.431,147.901,8.511,147.861,8.605,147.856"/>
<rect x="6.813" fill="#3E4147" width="2.373" height="6.08"/>
</svg>
