<?xml version="1.0" encoding="utf-8"?>
<!-- Generator: Adobe Illustrator 16.0.0, SVG Export Plug-In . SVG Version: 6.00 Build 0)  -->
<!DOCTYPE svg PUBLIC "-//W3C//DTD SVG 1.1//EN" "http://www.w3.org/Graphics/SVG/1.1/DTD/svg11.dtd">
<svg version="1.1" id="Layer_1" xmlns="http://www.w3.org/2000/svg" xmlns:xlink="http://www.w3.org/1999/xlink" x="0px" y="0px"
	 width="41.553px" height="344.901px" viewBox="0 0 41.553 344.901" enable-background="new 0 0 41.553 344.901"
	 xml:space="preserve">
<rect fill="#818793" width="41.553" height="344.901"/>
<rect x="7.632" y="335.53" fill="#C5CCD2" width="28.289" height="1.461"/>
<rect x="7.632" y="257.934" fill="#C5CCD2" width="28.289" height="1.461"/>
<rect x="21.776" y="320.011" fill="#C5CCD2" width="14.146" height="1.461"/>
<rect x="21.776" y="304.493" fill="#C5CCD2" width="14.146" height="1.461"/>
<rect x="21.776" y="288.973" fill="#C5CCD2" width="14.146" height="1.461"/>
<rect x="21.776" y="273.454" fill="#C5CCD2" width="14.146" height="1.461"/>
<rect x="7.632" y="180.339" fill="#C5CCD2" width="28.289" height="1.461"/>
<rect x="21.776" y="242.415" fill="#C5CCD2" width="14.146" height="1.461"/>
<rect x="21.776" y="226.896" fill="#C5CCD2" width="14.146" height="1.461"/>
<rect x="21.776" y="211.377" fill="#C5CCD2" width="14.146" height="1.461"/>
<rect x="21.776" y="195.858" fill="#C5CCD2" width="14.146" height="1.461"/>
<rect x="7.632" y="102.743" fill="#C5CCD2" width="28.289" height="1.461"/>
<rect x="21.776" y="164.82" fill="#C5CCD2" width="14.146" height="1.461"/>
<rect x="21.776" y="149.3" fill="#C5CCD2" width="14.146" height="1.461"/>
<rect x="21.776" y="133.781" fill="#C5CCD2" width="14.146" height="1.461"/>
<rect x="21.776" y="118.262" fill="#C5CCD2" width="14.146" height="1.461"/>
<rect x="7.632" y="25.147" fill="#C5CCD2" width="28.289" height="1.461"/>
<rect x="21.776" y="87.224" fill="#C5CCD2" width="14.146" height="1.461"/>
<rect x="21.776" y="71.705" fill="#C5CCD2" width="14.146" height="1.461"/>
<rect x="21.776" y="56.186" fill="#C5CCD2" width="14.146" height="1.461"/>
<rect x="21.776" y="40.667" fill="#C5CCD2" width="14.146" height="1.461"/>
<path fill="#262626" d="M20.776,9.093c2.024,0,3.667,1.642,3.667,3.667c0,2.024-1.643,3.667-3.667,3.667
	c-2.025,0-3.667-1.643-3.667-3.667C17.109,10.735,18.751,9.093,20.776,9.093"/>
</svg>
