<?xml version="1.0" encoding="utf-8"?>
<!-- Generator: Adobe Illustrator 16.0.0, SVG Export Plug-In . SVG Version: 6.00 Build 0)  -->
<!DOCTYPE svg PUBLIC "-//W3C//DTD SVG 1.1//EN" "http://www.w3.org/Graphics/SVG/1.1/DTD/svg11.dtd">
<svg version="1.1" id="Layer_1" xmlns="http://www.w3.org/2000/svg" xmlns:xlink="http://www.w3.org/1999/xlink" x="0px" y="0px"
	 width="203.657px" height="118.854px" viewBox="0 0 203.657 118.854" enable-background="new 0 0 203.657 118.854"
	 xml:space="preserve">
<path fill="#818793" d="M167.911,59.427c0,32.821-26.606,59.428-59.428,59.428c-32.82,0-59.427-26.606-59.427-59.428
	C49.057,26.606,75.663,0,108.483,0C141.305,0,167.911,26.606,167.911,59.427"/>
<path fill="#818793" d="M85.325,76.191c0,23.562-19.101,42.663-42.662,42.663C19.101,118.854,0,99.753,0,76.191
	s19.101-42.663,42.663-42.663C66.225,33.528,85.325,52.63,85.325,76.191"/>
<path fill="#818793" d="M203.657,85.104c0,18.641-15.111,33.751-33.75,33.751c-18.641,0-33.751-15.11-33.751-33.751
	c0-18.64,15.11-33.751,33.751-33.751C188.546,51.353,203.657,66.464,203.657,85.104"/>
<rect x="42.662" y="69.871" fill="#818793" width="127.245" height="48.983"/>
<path fill="#818793" d="M187.284,48.229c0,12.646-10.25,22.896-22.896,22.896c-12.645,0-22.895-10.25-22.895-22.896
	c0-12.645,10.25-22.895,22.895-22.895C177.034,25.335,187.284,35.585,187.284,48.229"/>
</svg>
