<?xml version="1.0" encoding="utf-8"?>
<!-- Generator: Adobe Illustrator 16.0.0, SVG Export Plug-In . SVG Version: 6.00 Build 0)  -->
<!DOCTYPE svg PUBLIC "-//W3C//DTD SVG 1.1//EN" "http://www.w3.org/Graphics/SVG/1.1/DTD/svg11.dtd">
<svg version="1.1" id="Layer_1" xmlns="http://www.w3.org/2000/svg" xmlns:xlink="http://www.w3.org/1999/xlink" x="0px" y="0px"
	 width="126.256px" height="126.256px" viewBox="0 0 126.256 126.256" enable-background="new 0 0 126.256 126.256"
	 xml:space="preserve">
<path fill="#818793" d="M103.256,23v47.729L55.526,23H103.256z M126.256,0H0l126.256,126.256V0z"/>
<rect x="107.438" y="3.719" fill="#C5CCD2" width="1.097" height="10.39"/>
<rect x="49.241" y="3.719" fill="#C5CCD2" width="1.096" height="10.39"/>
<rect x="95.799" y="3.718" fill="#C5CCD2" width="1.096" height="5.195"/>
<rect x="84.16" y="3.718" fill="#C5CCD2" width="1.096" height="5.195"/>
<rect x="72.52" y="3.718" fill="#C5CCD2" width="1.097" height="5.195"/>
<rect x="60.881" y="3.718" fill="#C5CCD2" width="1.096" height="5.195"/>
<rect x="37.602" y="3.718" fill="#C5CCD2" width="1.096" height="5.195"/>
<rect x="25.962" y="3.718" fill="#C5CCD2" width="1.096" height="5.195"/>
<rect x="14.323" y="3.718" fill="#C5CCD2" width="1.096" height="5.195"/>
<rect x="110.968" y="50.777" fill="#C5CCD2" width="10.39" height="1.096"/>
<rect x="116.163" y="97.335" fill="#C5CCD2" width="5.194" height="1.097"/>
<rect x="116.163" y="85.695" fill="#C5CCD2" width="5.194" height="1.097"/>
<rect x="116.163" y="74.057" fill="#C5CCD2" width="5.194" height="1.096"/>
<rect x="116.163" y="62.417" fill="#C5CCD2" width="5.194" height="1.096"/>
<rect x="116.163" y="39.139" fill="#C5CCD2" width="5.194" height="1.096"/>
<rect x="116.163" y="27.499" fill="#C5CCD2" width="5.194" height="1.096"/>
<rect x="116.163" y="15.859" fill="#C5CCD2" width="5.194" height="1.096"/>
<rect x="116.163" y="4.221" fill="#C5CCD2" width="5.194" height="1.096"/>
</svg>
