<?xml version="1.0" encoding="utf-8"?>
<!-- Generator: Adobe Illustrator 16.0.0, SVG Export Plug-In . SVG Version: 6.00 Build 0)  -->
<!DOCTYPE svg PUBLIC "-//W3C//DTD SVG 1.1//EN" "http://www.w3.org/Graphics/SVG/1.1/DTD/svg11.dtd">
<svg version="1.1" id="Layer_1" xmlns="http://www.w3.org/2000/svg" xmlns:xlink="http://www.w3.org/1999/xlink" x="0px" y="0px"
	 width="404.054px" height="474.894px" viewBox="0 0 404.054 474.894" enable-background="new 0 0 404.054 474.894"
	 xml:space="preserve">
<rect x="11.807" y="11.808" fill="#CBD0D8" width="392.247" height="463.086"/>
<polygon fill="#FFFFFF" points="353.674,463.086 0,463.086 0,0 392.247,0 392.247,425.06 "/>
<path fill="#DEC07A" d="M156.373,59.194c-0.268,1.148-0.479,2.533-0.633,4.153c-0.154,1.62-0.199,3.046-0.135,4.278
	c0.02,0.377,0.04,0.64,0.06,0.79c0.06,0.412,0.095,0.72,0.105,0.921c0.023,0.439-0.115,0.815-0.413,1.127
	c-0.299,0.311-0.681,0.48-1.145,0.504c-0.679,0.035-1.227-0.216-1.646-0.755c-0.419-0.538-0.653-1.279-0.702-2.221
	c-0.053-1.005-0.014-2.245,0.117-3.719c0.131-1.475,0.325-2.862,0.585-4.16c-0.698,0.163-1.646,0.452-2.846,0.867
	c-1.56,0.523-2.586,0.898-3.078,1.125c-0.49,0.756-1.144,1.956-1.965,3.599c-0.822,1.644-1.399,2.89-1.732,3.738
	c-0.31,0.81-0.605,1.367-0.886,1.671c-0.279,0.305-0.652,0.469-1.117,0.493c-0.49,0.026-0.913-0.122-1.27-0.443
	c-0.357-0.322-0.548-0.708-0.572-1.161c-0.02-0.389,0.066-0.85,0.259-1.383c0.192-0.533,0.586-1.376,1.18-2.527
	c0.39-0.751,0.734-1.399,1.032-1.944c-0.112,0.031-0.23,0.05-0.356,0.057c-0.427,0.022-0.776-0.083-1.046-0.313
	c-0.27-0.232-0.416-0.555-0.438-0.969c-0.032-0.603,0.216-1.108,0.743-1.513c0.526-0.406,1.641-0.943,3.345-1.611l0.333-0.131
	c0.712-1.322,1.591-2.758,2.637-4.305c1.047-1.548,2.178-3.103,3.393-4.666c1.216-1.562,2.415-2.98,3.595-4.251
	c0.942-1.007,1.72-1.744,2.331-2.211c0.612-0.466,1.137-0.712,1.577-0.735c0.566-0.029,1.056,0.129,1.471,0.472
	c0.414,0.343,0.635,0.772,0.662,1.288c0.023,0.427-0.09,1.044-0.337,1.85l-0.807,2.631l-0.73,2.665
	c-0.412,1.521-0.683,2.587-0.815,3.199c0.3-0.053,0.532-0.085,0.695-0.093c0.388-0.021,0.722,0.024,0.999,0.137
	c0.276,0.111,0.493,0.27,0.648,0.476c0.156,0.206,0.242,0.472,0.26,0.799c0.026,0.502-0.106,0.931-0.396,1.286
	c-0.29,0.356-0.685,0.578-1.184,0.667l-0.825,0.119l-0.747,0.172c-0.038,0.002-0.072,0.007-0.103,0.014
	C156.444,59.188,156.411,59.192,156.373,59.194 M155.177,49.714c-0.632,0.701-1.343,1.554-2.134,2.559s-1.53,2.001-2.215,2.988
	c-0.685,0.988-1.242,1.845-1.669,2.572c1.359-0.498,2.653-0.926,3.881-1.28l0.206-0.048l0.063-0.249l0.774-2.895l0.952-3.111
	c0.01-0.039,0.017-0.074,0.023-0.105c0.004-0.032,0.015-0.074,0.031-0.125c0.016-0.051,0.03-0.097,0.04-0.134
	C155.139,49.849,155.154,49.791,155.177,49.714"/>
<path fill="#DEC07A" d="M164.023,65.616c-1.017,1.754-2.184,2.665-3.504,2.734c-0.753,0.039-1.387-0.22-1.901-0.779
	c-0.515-0.559-0.795-1.272-0.84-2.138c-0.053-0.993,0.131-2.174,0.551-3.544c0.419-1.37,1-2.667,1.743-3.89
	c1.226-2.08,2.279-3.142,3.158-3.189c0.39-0.02,0.71,0.083,0.961,0.309c0.251,0.226,0.387,0.522,0.406,0.885
	c0.015,0.289-0.034,0.567-0.145,0.831c-0.113,0.264-0.357,0.663-0.731,1.2c-1.648,2.467-2.438,4.348-2.37,5.641
	c0.022,0.416,0.19,0.615,0.504,0.599c0.34-0.019,0.757-0.342,1.253-0.973c0.851-1.065,1.714-2.401,2.587-4.01l1.174-2.122
	c0.461-0.817,0.999-1.243,1.614-1.274c0.39-0.021,0.71,0.082,0.961,0.308c0.252,0.226,0.388,0.534,0.408,0.924
	c0.018,0.352-0.048,0.711-0.199,1.077c-0.151,0.368-0.515,1.046-1.093,2.033c-1.074,1.858-1.593,3.132-1.557,3.823
	c0.012,0.214,0.073,0.381,0.187,0.5c0.113,0.12,0.251,0.177,0.415,0.167c0.502-0.026,1.229-0.707,2.179-2.041l1.075-1.493
	c0.411-0.562,0.799-0.854,1.164-0.873c0.263-0.014,0.485,0.066,0.664,0.239c0.18,0.174,0.276,0.391,0.29,0.655
	c0.023,0.453-0.13,1.025-0.459,1.716s-0.788,1.418-1.378,2.179c-1.761,2.221-3.376,3.37-4.846,3.447
	c-0.641,0.034-1.18-0.161-1.618-0.585c-0.438-0.424-0.676-0.982-0.711-1.674C163.956,66.11,163.975,65.883,164.023,65.616"/>
<path fill="#DEC07A" d="M178.95,52.21c0.297-0.092,0.44-0.136,0.427-0.136l1.135-0.343c0.571-0.168,0.957-0.257,1.158-0.269
	c0.402-0.021,0.739,0.097,1.011,0.354c0.27,0.258,0.417,0.58,0.437,0.97c0.028,0.54-0.18,1.004-0.626,1.393
	c-0.253,0.215-0.761,0.386-1.523,0.514c-0.711,0.125-1.829,0.43-3.353,0.913c-0.397,0.122-0.718,0.231-0.965,0.334l-0.296,0.487
	c-0.95,1.586-1.717,3.17-2.302,4.75c-0.461,1.297-0.678,2.216-0.65,2.756c0.035,0.652,0.322,0.965,0.863,0.937
	c0.439-0.023,1.034-0.395,1.783-1.114c0.75-0.72,1.529-1.674,2.335-2.863c0.374-0.573,0.761-0.871,1.163-0.892
	c0.289-0.015,0.529,0.07,0.722,0.255c0.193,0.187,0.296,0.416,0.31,0.693c0.023,0.439-0.166,1.035-0.568,1.786
	c-0.401,0.752-0.969,1.562-1.705,2.433c-1.743,2.069-3.445,3.147-5.103,3.234c-0.904,0.048-1.651-0.208-2.241-0.771
	c-0.59-0.561-0.91-1.305-0.958-2.236c-0.055-1.029,0.12-2.198,0.524-3.504c0.404-1.307,1.094-2.879,2.068-4.719
	c-0.287,0.065-0.511,0.103-0.675,0.111c-0.465,0.024-0.845-0.082-1.141-0.319c-0.295-0.236-0.454-0.555-0.475-0.957
	c-0.027-0.528,0.15-0.934,0.531-1.218c0.382-0.285,1.097-0.53,2.145-0.736c0.61-0.121,1.082-0.247,1.416-0.377l0.21-0.312
	c1.183-1.952,2.443-3.75,3.781-5.396c0.602-0.75,1.199-1.14,1.79-1.171c0.389-0.021,0.722,0.076,0.997,0.288
	c0.276,0.212,0.422,0.482,0.44,0.808c0.014,0.277-0.073,0.587-0.264,0.93c-0.189,0.344-0.655,1.008-1.397,1.992
	C179.646,51.21,179.312,51.674,178.95,52.21"/>
<path fill="#DEC07A" d="M183.281,58.068l0.218-0.163c1.354-1.091,2.416-1.862,3.186-2.312c0.77-0.45,1.431-0.689,1.984-0.718
	c0.426-0.023,0.81,0.125,1.148,0.44c0.337,0.316,0.518,0.695,0.541,1.135c0.017,0.326-0.046,0.631-0.189,0.916
	c-0.142,0.285-0.501,0.833-1.075,1.645l-0.795,1.061c-0.892,1.245-1.324,2.13-1.297,2.658c0.02,0.39,0.219,0.574,0.596,0.554
	c0.528-0.026,1.09-0.353,1.688-0.976c0.333-0.358,0.959-1.158,1.877-2.404c0.388-0.537,0.775-0.815,1.165-0.836
	c0.276-0.014,0.502,0.068,0.675,0.248c0.173,0.181,0.267,0.421,0.283,0.722c0.047,0.894-0.624,2.162-2.011,3.811
	c-0.607,0.687-1.201,1.266-1.78,1.737c-0.58,0.472-1.165,0.845-1.755,1.122c-0.591,0.277-1.124,0.427-1.602,0.452
	c-0.691,0.036-1.298-0.187-1.821-0.67c-0.523-0.481-0.803-1.076-0.839-1.78c-0.039-0.74,0.148-1.622,0.56-2.646
	c0.413-1.023,0.957-1.93,1.634-2.722c-2.014,1.001-3.622,2.887-4.824,5.658l-0.589,1.391c-0.268,0.657-0.534,1.121-0.796,1.393
	c-0.263,0.272-0.57,0.418-0.922,0.437c-0.377,0.02-0.708-0.092-0.991-0.335c-0.284-0.244-0.435-0.547-0.454-0.912
	c-0.039-0.754,0.302-2.158,1.027-4.212c0.439-1.232,1.011-2.701,1.714-4.407c0.705-1.706,1.369-3.206,1.994-4.498
	c1.023-2.12,2.076-3.967,3.159-5.542c1.082-1.574,2.13-2.801,3.142-3.68c1.013-0.877,1.92-1.338,2.725-1.38
	c0.603-0.032,1.107,0.159,1.513,0.573c0.406,0.413,0.627,0.965,0.664,1.657c0.053,1.017-0.186,2.066-0.715,3.145
	c-0.529,1.08-1.309,2.131-2.337,3.156c-0.756,0.745-1.658,1.497-2.708,2.258c-1.049,0.761-2.053,1.386-3.01,1.877l-0.12,0.234
	C183.733,56.967,183.446,57.605,183.281,58.068 M185.996,52.162c0.927-0.579,1.753-1.275,2.479-2.095
	c0.393-0.437,0.73-0.902,1.013-1.395c0.283-0.494,0.418-0.854,0.406-1.08c-0.004-0.088-0.036-0.165-0.097-0.231
	c-0.059-0.066-0.14-0.096-0.241-0.091c-0.264,0.014-0.55,0.205-0.858,0.574c-0.333,0.383-0.68,0.845-1.042,1.386
	c-0.362,0.543-0.652,1.021-0.869,1.435l-0.671,1.263C186.116,51.941,186.075,52.02,185.996,52.162"/>
<path fill="#DEC07A" d="M193.706,62.265c-0.136,0.271-0.198,0.545-0.184,0.822c0.046,0.879,0.566,1.292,1.558,1.241
	c0.704-0.037,1.498-0.381,2.383-1.032c0.886-0.651,1.663-1.466,2.329-2.446l0.754-1.117c0.281-0.405,0.598-0.617,0.95-0.635
	c0.301-0.016,0.552,0.078,0.751,0.281c0.2,0.204,0.307,0.457,0.323,0.758c0.051,0.968-0.595,2.217-1.938,3.749
	c-0.939,1.083-1.955,1.942-3.049,2.578c-1.094,0.638-2.15,0.982-3.168,1.036c-1.106,0.057-2.035-0.262-2.79-0.959
	c-0.755-0.698-1.162-1.624-1.223-2.78c-0.074-1.407,0.261-2.901,1.003-4.483c0.742-1.583,1.711-2.914,2.908-3.998
	c1.197-1.083,2.38-1.655,3.548-1.717c0.741-0.038,1.357,0.175,1.848,0.641c0.49,0.466,0.755,1.075,0.794,1.829
	c0.038,0.716-0.094,1.448-0.395,2.193c-0.301,0.747-0.725,1.424-1.273,2.033c-0.547,0.607-1.171,1.099-1.869,1.478
	c-0.698,0.377-1.412,0.584-2.14,0.623C194.499,62.375,194.126,62.344,193.706,62.265 M194.749,59.451
	c0.19,0.028,0.348,0.039,0.474,0.032c0.578-0.031,1.133-0.304,1.667-0.815c0.534-0.513,0.788-1.015,0.762-1.504
	c-0.007-0.138-0.053-0.25-0.14-0.333c-0.086-0.084-0.185-0.123-0.299-0.117c-0.276,0.015-0.655,0.283-1.139,0.806
	C195.592,58.044,195.15,58.687,194.749,59.451"/>
<path fill="#DEC07A" d="M204.402,59.04l0.625-0.694c1.322-1.455,2.643-2.695,3.963-3.722c0.531-0.419,0.995-0.724,1.388-0.914
	c0.394-0.191,0.759-0.295,1.099-0.313c0.439-0.022,0.817,0.09,1.133,0.338c0.314,0.248,0.482,0.561,0.503,0.937
	c0.017,0.34-0.05,0.652-0.197,0.937c-0.149,0.285-0.471,0.737-0.968,1.355c-0.807,0.975-1.471,1.932-1.995,2.873
	c-0.522,0.94-0.774,1.631-0.751,2.07c0.02,0.365,0.191,0.538,0.518,0.521c0.629-0.033,1.433-0.799,2.414-2.299
	c0.652-0.979,1.078-1.572,1.275-1.778c0.197-0.205,0.445-0.316,0.748-0.331c0.264-0.014,0.488,0.062,0.674,0.229
	s0.285,0.389,0.299,0.665c0.023,0.439-0.171,1.06-0.583,1.863c-0.411,0.803-0.948,1.625-1.608,2.466
	c-0.711,0.881-1.465,1.582-2.262,2.102c-0.798,0.52-1.561,0.8-2.289,0.838s-1.346-0.181-1.85-0.659
	c-0.504-0.477-0.775-1.093-0.814-1.846c-0.037-0.717,0.043-1.371,0.246-1.96c0.202-0.59,0.596-1.329,1.18-2.216
	c-1.051,0.646-2.045,1.515-2.982,2.604c-0.938,1.088-1.607,2.146-2.007,3.175l-0.597,1.581c-0.299,0.796-0.749,1.211-1.353,1.243
	c-0.401,0.021-0.745-0.106-1.031-0.381c-0.284-0.275-0.439-0.632-0.461-1.072c-0.038-0.716,0.274-2.026,0.937-3.932
	c0.662-1.906,1.433-3.732,2.312-5.479c0.716-1.448,1.359-2.512,1.928-3.191c0.57-0.678,1.105-1.03,1.607-1.057
	c0.314-0.016,0.594,0.091,0.84,0.324c0.245,0.233,0.377,0.526,0.396,0.878c0.017,0.326-0.05,0.639-0.196,0.937l-0.947,1.75
	l-0.951,1.694c-0.033,0.077-0.065,0.142-0.094,0.194C204.52,58.819,204.471,58.91,204.402,59.04"/>
<path fill="#DEC07A" d="M221.068,50.002c0.298-0.091,0.439-0.136,0.428-0.135l1.135-0.344c0.57-0.168,0.957-0.258,1.158-0.268
	c0.402-0.021,0.738,0.097,1.01,0.353c0.271,0.257,0.418,0.58,0.439,0.97c0.027,0.54-0.182,1.004-0.627,1.393
	c-0.253,0.215-0.762,0.386-1.523,0.515c-0.711,0.125-1.828,0.429-3.354,0.912c-0.396,0.122-0.719,0.233-0.964,0.334l-0.296,0.488
	c-0.95,1.587-1.719,3.17-2.303,4.75c-0.461,1.297-0.678,2.216-0.648,2.756c0.033,0.652,0.32,0.965,0.861,0.937
	c0.438-0.023,1.035-0.395,1.785-1.114c0.748-0.72,1.526-1.674,2.334-2.863c0.373-0.573,0.76-0.871,1.162-0.891
	c0.289-0.017,0.53,0.068,0.723,0.255c0.191,0.185,0.295,0.416,0.31,0.692c0.022,0.44-0.167,1.035-0.567,1.787
	c-0.401,0.752-0.971,1.563-1.705,2.433c-1.744,2.068-3.444,3.147-5.104,3.233c-0.904,0.048-1.65-0.208-2.242-0.77
	c-0.589-0.562-0.908-1.306-0.958-2.237c-0.054-1.029,0.121-2.198,0.525-3.504c0.403-1.306,1.093-2.879,2.067-4.719
	c-0.285,0.064-0.512,0.102-0.675,0.111c-0.465,0.024-0.845-0.082-1.141-0.318c-0.296-0.236-0.454-0.556-0.476-0.958
	c-0.027-0.528,0.149-0.935,0.531-1.218c0.383-0.285,1.098-0.53,2.145-0.736c0.611-0.121,1.084-0.246,1.416-0.377l0.211-0.313
	c1.183-1.952,2.443-3.75,3.779-5.395c0.604-0.749,1.2-1.14,1.791-1.171c0.389-0.021,0.723,0.076,0.998,0.288
	c0.275,0.212,0.422,0.481,0.438,0.808c0.015,0.277-0.072,0.587-0.263,0.931c-0.189,0.344-0.656,1.007-1.398,1.991
	C221.766,49.002,221.432,49.468,221.068,50.002"/>
<path fill="#DEC07A" d="M229.121,59.048c0.017,0.328-0.153,0.824-0.509,1.492c-0.354,0.667-0.753,1.252-1.192,1.753
	c-0.784,0.91-1.598,1.627-2.438,2.149c-0.841,0.523-1.608,0.803-2.299,0.839c-0.779,0.04-1.431-0.196-1.955-0.71
	c-0.524-0.514-0.81-1.174-0.851-1.978c-0.088-1.671,0.633-3.787,2.162-6.349c0.533-0.885,0.998-1.516,1.393-1.897
	c0.396-0.38,0.807-0.58,1.234-0.603c0.391-0.02,0.715,0.101,0.974,0.365c0.26,0.264,0.399,0.609,0.423,1.036
	c0.016,0.276-0.025,0.534-0.12,0.771c-0.095,0.239-0.271,0.527-0.53,0.869c-1.504,2.095-2.235,3.518-2.195,4.273
	c0.023,0.451,0.242,0.667,0.658,0.645c0.326-0.017,0.742-0.252,1.246-0.707c0.554-0.508,1.037-1.031,1.448-1.57
	c0.414-0.537,0.722-0.891,0.929-1.059c0.205-0.168,0.427-0.258,0.666-0.271c0.264-0.014,0.479,0.064,0.645,0.231
	C228.976,58.496,229.078,58.735,229.121,59.048 M231.146,46.488c0.038,0.729-0.231,1.42-0.808,2.074
	c-0.577,0.654-1.217,0.999-1.92,1.036c-0.402,0.021-0.752-0.096-1.049-0.351c-0.297-0.255-0.455-0.572-0.475-0.948
	c-0.039-0.742,0.236-1.449,0.824-2.123c0.589-0.672,1.234-1.028,1.938-1.065c0.426-0.021,0.777,0.095,1.049,0.353
	C230.976,45.72,231.123,46.062,231.146,46.488"/>
<path fill="#DEC07A" d="M238.237,59.213c0.038,0.729-0.642,1.81-2.041,3.244c-0.933,0.955-1.902,1.69-2.908,2.203
	c-1.006,0.512-1.999,0.794-2.979,0.845c-1.08,0.057-1.959-0.237-2.635-0.883c-0.676-0.644-1.045-1.544-1.105-2.7
	c-0.061-1.181,0.156-2.395,0.65-3.644c0.494-1.247,1.254-2.465,2.273-3.652c0.83-1.001,1.671-1.782,2.523-2.343
	c0.852-0.562,1.655-0.862,2.41-0.902c0.439-0.021,0.84,0.067,1.204,0.268c0.362,0.202,0.652,0.492,0.867,0.871
	s0.335,0.802,0.358,1.266c0.039,0.717-0.086,1.463-0.373,2.24c-0.286,0.777-0.665,1.425-1.135,1.939
	c-0.472,0.517-0.951,0.787-1.441,0.812c-0.277,0.015-0.537-0.082-0.781-0.289c-0.244-0.208-0.373-0.45-0.388-0.728
	c-0.009-0.163,0.022-0.312,0.091-0.448c0.068-0.135,0.209-0.311,0.425-0.524c0.599-0.622,0.886-1.129,0.865-1.519
	c-0.006-0.125-0.043-0.225-0.11-0.296c-0.066-0.072-0.162-0.105-0.287-0.098c-0.24,0.012-0.552,0.176-0.938,0.492
	c-0.386,0.317-0.787,0.738-1.2,1.263c-0.553,0.723-0.992,1.492-1.314,2.309c-0.323,0.816-0.469,1.521-0.438,2.111
	c0.022,0.402,0.161,0.719,0.42,0.951c0.257,0.232,0.568,0.339,0.933,0.32c0.326-0.018,0.711-0.119,1.155-0.306
	c0.443-0.187,0.884-0.443,1.32-0.769c0.437-0.325,0.804-0.659,1.101-1.002l1.088-1.229c0.451-0.514,0.871-0.783,1.262-0.803
	c0.289-0.015,0.546,0.078,0.771,0.28C238.104,58.697,238.223,58.936,238.237,59.213"/>
<polygon fill="#DEC07A" points="164.133,76.838 164.133,78.021 165.652,78.021 165.652,78.935 164.133,78.935 164.133,81.301 
	163.085,81.301 163.085,75.925 165.751,75.925 165.751,76.838 "/>
<path fill="#DEC07A" d="M169.503,81.444c-1.64,0-2.66-1.255-2.66-2.837c0-1.598,1.055-2.825,2.66-2.825
	c1.604,0,2.66,1.227,2.66,2.825C172.163,80.189,171.143,81.444,169.503,81.444 M169.503,76.817c-0.991,0-1.576,0.877-1.576,1.747
	c0,0.827,0.414,1.847,1.576,1.847c1.162,0,1.576-1.02,1.576-1.847C171.079,77.694,170.494,76.817,169.503,76.817"/>
<path fill="#DEC07A" d="M177.027,81.302h-1.27l-1.304-2.168h-0.015v2.168h-1.048v-5.376h1.419c1.062,0,1.797,0.47,1.797,1.618
	c0,0.685-0.378,1.369-1.098,1.49L177.027,81.302z M174.438,78.399h0.136c0.577,0,0.984-0.171,0.984-0.828
	c0-0.663-0.421-0.791-0.977-0.791h-0.143V78.399z"/>
<polygon fill="#DEC07A" points="182.668,77.964 182.654,77.964 181.435,81.373 181.071,81.373 179.894,77.964 179.88,77.964 
	179.402,81.302 178.347,81.302 179.253,75.782 179.994,75.782 181.32,79.327 182.59,75.782 183.346,75.782 184.151,81.302 
	183.096,81.302 "/>
<path fill="#DEC07A" d="M191.063,80.708c-0.484,0.422-1.023,0.749-1.688,0.749c-0.992,0-1.727-0.726-1.727-1.719
	c0-0.656,0.321-1.172,0.852-1.531l0.352-0.243c-0.274-0.383-0.477-0.773-0.477-1.25c0-0.875,0.656-1.462,1.5-1.462
	c0.852,0,1.508,0.571,1.508,1.454c0,0.649-0.468,1.095-0.968,1.423l0.82,1.054l0.594-0.757l0.727,0.679l-0.633,0.852l1.016,1.344
	h-1.399L191.063,80.708z M189.469,78.691c-0.313,0.235-0.664,0.516-0.664,0.946c0,0.375,0.312,0.789,0.703,0.789
	c0.359,0,0.633-0.274,0.875-0.508L189.469,78.691z M189.883,77.456l0.196-0.164c0.203-0.172,0.328-0.359,0.328-0.641
	c0-0.273-0.157-0.577-0.461-0.577c-0.313,0-0.485,0.265-0.485,0.546c0,0.157,0.047,0.306,0.141,0.438L189.883,77.456z"/>
<polygon fill="#DEC07A" points="197.535,76.838 197.535,78.021 199.054,78.021 199.054,78.935 197.535,78.935 197.535,81.301 
	196.487,81.301 196.487,75.925 199.154,75.925 199.154,76.838 "/>
<path fill="#DEC07A" d="M201.044,75.925h1.048v3.009c0,0.663,0.057,1.597,0.949,1.597c0.891,0,0.947-0.934,0.947-1.597v-3.009h1.049
	v3.216c0,1.312-0.556,2.303-1.996,2.303s-1.997-0.991-1.997-2.303V75.925z"/>
<polygon fill="#DEC07A" points="206.493,75.782 207.249,75.782 210.08,79.541 210.093,79.541 210.093,75.925 211.143,75.925 
	211.143,81.408 210.386,81.408 207.555,77.651 207.541,77.651 207.541,81.302 206.493,81.302 "/>
<path fill="#DEC07A" d="M216.213,77.352c-0.293-0.357-0.734-0.571-1.184-0.571c-1.006,0-1.583,0.927-1.583,1.854
	c0,0.906,0.599,1.811,1.576,1.811c0.448,0,0.897-0.235,1.19-0.57v1.247c-0.393,0.186-0.785,0.321-1.22,0.321
	c-1.512,0-2.631-1.306-2.631-2.789c0-1.526,1.077-2.874,2.653-2.874c0.421,0,0.834,0.115,1.197,0.315V77.352z"/>
<polygon fill="#DEC07A" points="219.365,81.302 218.317,81.302 218.317,76.839 217.233,76.839 217.233,75.926 220.449,75.926 
	220.449,76.839 219.365,76.839 "/>
<rect x="221.548" y="75.926" fill="#DEC07A" width="1.049" height="5.376"/>
<path fill="#DEC07A" d="M226.477,81.444c-1.641,0-2.66-1.255-2.66-2.837c0-1.598,1.057-2.825,2.66-2.825
	c1.605,0,2.66,1.227,2.66,2.825C229.137,80.189,228.116,81.444,226.477,81.444 M226.477,76.817c-0.991,0-1.576,0.877-1.576,1.747
	c0,0.827,0.414,1.847,1.576,1.847s1.576-1.02,1.576-1.847C228.053,77.694,227.467,76.817,226.477,76.817"/>
<polygon fill="#DEC07A" points="230.363,75.782 231.119,75.782 233.95,79.541 233.965,79.541 233.965,75.925 235.014,75.925 
	235.014,81.408 234.258,81.408 231.426,77.651 231.412,77.651 231.412,81.302 230.363,81.302 "/>
<rect x="37.636" y="259.626" fill="#818793" width="84.168" height="8.548"/>
<rect x="37.636" y="281.485" fill="#818793" width="84.168" height="8.547"/>
<rect x="37.636" y="303.346" fill="#818793" width="84.168" height="8.546"/>
<rect x="37.636" y="325.204" fill="#818793" width="42.084" height="8.548"/>
<rect x="153.607" y="259.626" fill="#818793" width="84.168" height="8.548"/>
<rect x="153.607" y="281.485" fill="#818793" width="84.168" height="8.547"/>
<rect x="153.607" y="303.346" fill="#818793" width="84.168" height="8.546"/>
<rect x="153.607" y="325.204" fill="#818793" width="42.084" height="8.548"/>
<rect x="269.58" y="259.626" fill="#818793" width="84.168" height="8.548"/>
<rect x="269.58" y="281.485" fill="#818793" width="84.168" height="8.547"/>
<rect x="269.58" y="303.346" fill="#818793" width="84.168" height="8.546"/>
<rect x="269.58" y="325.204" fill="#818793" width="42.084" height="8.548"/>
<rect x="37.636" y="147.397" fill="#818793" width="311.854" height="8.547"/>
<rect x="37.636" y="169.258" fill="#818793" width="311.854" height="8.547"/>
<rect x="37.636" y="191.116" fill="#818793" width="311.854" height="8.546"/>
<rect x="37.636" y="212.977" fill="#818793" width="111.823" height="8.547"/>
<rect x="37.636" y="108.433" fill="#C5CCD2" width="316.112" height="4.396"/>
<path fill="#C5CCD2" d="M78.389,413.153H43.077v-35.312h35.312V413.153z M83.83,372.4H37.636v46.194H83.83V372.4z"/>
<path fill="#C5CCD2" d="M192.865,413.153h-35.312v-35.312h35.312V413.153z M198.306,372.4h-46.194v46.194h46.194V372.4z"/>
<path fill="#C5CCD2" d="M310.334,413.153h-35.312v-35.312h35.312V413.153z M315.774,372.4H269.58v46.194h46.194V372.4z"/>
<polygon fill="#AEB4BA" points="353.733,463.086 353.733,424.573 392.246,424.573 "/>
<path fill="#2A2C31" d="M51.665,388.242c1.101,0.858,2.112,1.778,3.117,2.702c0.992,0.932,1.947,1.89,2.909,2.843
	c1.885,1.933,3.673,3.933,5.39,5.98l-5.117,0.506c0.123-0.304,0.28-0.696,0.397-0.926l0.362-0.722
	c0.252-0.473,0.501-0.978,0.777-1.381c0.54-0.848,1.079-1.726,1.672-2.529c0.606-0.77,1.207-1.549,1.84-2.302
	c0.617-0.775,1.255-1.514,1.945-2.179c1.375-1.345,2.69-2.795,4.168-3.999c1.46-1.228,2.957-2.412,4.464-3.574
	c0.75-0.592,1.528-1.128,2.333-1.63l2.399-1.52l2.431-1.465c0.827-0.461,1.617-0.977,2.477-1.379
	c1.696-0.841,3.44-1.601,5.197-2.324c1.746-0.739,3.54-1.392,5.38-1.944c-1.232,1.509-2.51,2.92-3.836,4.243
	c-1.316,1.339-2.644,2.642-4.02,3.865c-1.333,1.277-2.637,2.57-3.985,3.799l-2.032,1.822c-0.677,0.606-1.386,1.172-2.015,1.818
	c-1.305,1.242-2.621,2.462-3.974,3.639c-0.7,0.571-1.293,1.226-1.934,1.836l-1.92,1.834l-0.978,0.902l-0.892,0.945
	c-0.588,0.636-1.21,1.247-1.825,1.865l-1.673,1.9c-0.306,0.319-0.509,0.624-0.749,0.936l-0.615,0.76l-3.218,3.979l-1.899-3.473
	c-1.282-2.344-2.493-4.737-3.606-7.197c-0.538-1.242-1.082-2.48-1.59-3.744C52.55,390.857,52.062,389.58,51.665,388.242"/>
<path fill="#2A2C31" d="M169.223,388.242c1.101,0.858,2.112,1.778,3.117,2.702c0.992,0.932,1.947,1.89,2.909,2.843
	c1.885,1.933,3.673,3.933,5.39,5.98l-5.117,0.506c0.123-0.304,0.28-0.696,0.397-0.926l0.362-0.722
	c0.252-0.473,0.501-0.978,0.777-1.381c0.54-0.848,1.079-1.726,1.672-2.529c0.606-0.77,1.207-1.549,1.84-2.302
	c0.617-0.775,1.255-1.514,1.945-2.179c1.375-1.345,2.69-2.795,4.168-3.999c1.46-1.228,2.957-2.412,4.464-3.574
	c0.75-0.592,1.528-1.128,2.333-1.63l2.399-1.52l2.431-1.465c0.827-0.461,1.617-0.977,2.477-1.379
	c1.696-0.841,3.439-1.601,5.197-2.324c1.746-0.739,3.539-1.392,5.38-1.944c-1.231,1.509-2.511,2.92-3.836,4.243
	c-1.316,1.339-2.644,2.642-4.021,3.865c-1.333,1.277-2.637,2.57-3.985,3.799l-2.032,1.822c-0.677,0.606-1.386,1.172-2.015,1.818
	c-1.305,1.242-2.621,2.462-3.974,3.639c-0.7,0.571-1.293,1.226-1.934,1.836l-1.92,1.834l-0.978,0.902l-0.892,0.945
	c-0.588,0.636-1.21,1.247-1.825,1.865l-1.673,1.9c-0.306,0.319-0.509,0.624-0.749,0.936l-0.615,0.76l-3.218,3.979l-1.899-3.473
	c-1.282-2.344-2.493-4.737-3.606-7.197c-0.538-1.242-1.082-2.48-1.59-3.744C170.109,390.857,169.621,389.58,169.223,388.242"/>
<path fill="#2A2C31" d="M286.966,388.242c1.101,0.858,2.112,1.778,3.117,2.702c0.992,0.932,1.947,1.89,2.909,2.843
	c1.885,1.933,3.673,3.933,5.39,5.98l-5.116,0.506c0.123-0.304,0.279-0.696,0.396-0.926l0.361-0.722
	c0.252-0.473,0.502-0.978,0.777-1.381c0.54-0.848,1.079-1.726,1.672-2.529c0.606-0.77,1.207-1.549,1.84-2.302
	c0.617-0.775,1.256-1.514,1.945-2.179c1.375-1.345,2.69-2.795,4.168-3.999c1.461-1.228,2.957-2.412,4.465-3.574
	c0.75-0.592,1.527-1.128,2.332-1.63l2.399-1.52l2.431-1.465c0.827-0.461,1.617-0.977,2.478-1.379
	c1.696-0.841,3.44-1.601,5.196-2.324c1.746-0.739,3.541-1.392,5.381-1.944c-1.232,1.509-2.51,2.92-3.836,4.243
	c-1.316,1.339-2.645,2.642-4.021,3.865c-1.333,1.277-2.637,2.57-3.985,3.799l-2.031,1.822c-0.678,0.606-1.387,1.172-2.016,1.818
	c-1.305,1.242-2.621,2.462-3.974,3.639c-0.7,0.571-1.293,1.226-1.935,1.836l-1.92,1.834l-0.978,0.902l-0.892,0.945
	c-0.588,0.636-1.211,1.247-1.825,1.865l-1.673,1.9c-0.307,0.319-0.51,0.624-0.75,0.936l-0.614,0.76l-3.218,3.979l-1.899-3.473
	c-1.282-2.344-2.493-4.737-3.606-7.197c-0.537-1.242-1.082-2.48-1.59-3.744C287.852,390.857,287.364,389.58,286.966,388.242"/>
</svg>
