<?xml version="1.0" standalone="no"?>
<!DOCTYPE svg PUBLIC "-//W3C//DTD SVG 1.1//EN" "http://www.w3.org/Graphics/SVG/1.1/DTD/svg11.dtd" >
<svg xmlns="http://www.w3.org/2000/svg">
<metadata>
Created by FontPrep 20130207 at Tue Oct  1 14:57:14 2013
 By Chris Arnold
Generated in 2010 by FontLab Studio. Copyright info pending.
</metadata>
<defs>
<font id="1d2edb727159dffec03be400fd70540d" horiz-adv-x='1024' >
  <font-face 
    font-family="ChunkFive"
    font-weight="400"
    font-stretch="normal"
    units-per-em="2048"
    panose-1="0 0 0 0 0 0 0 0 0 0"
    ascent="1536"
    descent="-512"
    x-height="1024"
    cap-height="1432"
    bbox="-20 -471 2099 1669"
    underline-thickness="102"
    underline-position="-102"
    unicode-range="U+0020-2212"
  />
<missing-glyph horiz-adv-x="573" 
 />
    <glyph glyph-name=".notdef" horiz-adv-x="573" 
 />
    <glyph glyph-name=".null" horiz-adv-x="0" 
 />
    <glyph glyph-name="nonmarkingreturn" horiz-adv-x="681" 
 />
    <glyph glyph-name="space" unicode=" " horiz-adv-x="512" 
 />
    <glyph glyph-name="exclam" unicode="!" horiz-adv-x="630" 
d="M66 1432h489v-390l-109 -516h-270l-110 516v390zM57 210q0 84 65 150t170 66t174 -64t69 -152t-68 -150t-171 -62t-171 64t-68 148z" />
    <glyph glyph-name="quotedbl" unicode="&#x22;" horiz-adv-x="1032" 
d="M567 1436h394l-74 -613h-256zM72 1436h393l-62 -613h-256z" />
    <glyph glyph-name="numbersign" unicode="#" horiz-adv-x="1536" 
d="M659 887l-59 -234h274l60 234h-275zM143 887v278h316l96 375h270l-96 -375h275l96 375h270l-96 -375h231v-278h-301l-59 -234h248v-278h-320l-94 -377l-270 4l94 373h-275l-94 -377l-270 4l94 373h-227v278h299l59 234h-246z" />
    <glyph glyph-name="dollar" unicode="$" horiz-adv-x="1234" 
d="M459 1589h289v-213q78 -37 114 -100l17 115h299v-480h-316q0 103 -63 165t-164 63q-43 0 -82 -28t-39 -76q0 -89 181 -149t330 -147q77 -45 128 -128t51 -189t-41 -186q-71 -138 -254 -189q-76 -20 -161 -22v-211h-289v268q-55 31 -107 76l-22 -123h-299v493h321
q0 -141 175 -186q36 -8 73 -10q150 0 150 100q0 41 -69 74q-69 32 -166 66t-195 82t-168 142q-68 94 -68 220q0 188 114 290t261 111v172z" />
    <glyph glyph-name="percent" unicode="%" horiz-adv-x="1906" 
d="M455 815q45 1 75 63t29 164q0 102 -33 168t-77 67q-45 1 -79 -61t-34 -166q0 -103 37 -169t82 -66zM1464 188q45 0 75 62t30 166q0 102 -33 168t-77 66t-79 -61q-34 -61 -34 -165t36 -170t82 -66zM618 0h-231l885 1432h233zM456 627q-190 0 -308 115q-118 116 -118 302
t126 306q125 119 288 118q199 0 311 -114q111 -114 111 -304t-110 -306t-300 -117zM1472 842q182 0 292 -115q112 -115 112 -304t-110 -306t-300 -117t-308 116t-118 302t125 305t307 119z" />
    <glyph glyph-name="ampersand" unicode="&#x26;" horiz-adv-x="1579" 
d="M727 1110q0 43 -29 80t-81 37q-51 0 -81 -35t-30 -78q0 -94 123 -147q6 -4 29 14q69 52 69 129zM403 422q-1 -60 51 -103t115 -43q145 0 242 86l-260 256h-8q-140 -91 -140 -196zM20 420q0 264 302 418q-62 42 -106 116t-44 154q0 136 125 242t329 106t317 -106
q114 -106 114 -230q0 -214 -234 -311l191 -191q59 111 106 273h439v-258h-201q-47 -135 -117 -242l127 -125h119v-266h-305l-133 131q-80 -74 -210 -116t-276 -42q-251 0 -397 126t-146 321z" />
    <glyph glyph-name="quotesingle" unicode="'" horiz-adv-x="559" 
d="M74 1436h405l-73 -613h-256z" />
    <glyph glyph-name="parenleft" unicode="(" 
d="M553 1174q-125 -223 -125 -541q0 -317 115 -541q55 -106 97 -168t103 -133l-211 -219q-193 174 -336 460q-144 286 -145 607q0 170 50 341q83 283 283 530q76 96 148 159l211 -217q-59 -74 -94 -122t-96 -156z" />
    <glyph glyph-name="parenright" unicode=")" 
d="M743 637q0 -321 -144 -607t-337 -460l-211 219q61 72 104 133q212 308 212 712q0 316 -125 537q-61 109 -97 157q-35 48 -94 122l211 217q159 -139 303 -386q78 -132 128 -303t50 -341z" />
    <glyph glyph-name="asterisk" unicode="*" horiz-adv-x="845" 
d="M772 807l-186 -143l-162 227l-170 -234l-180 152l178 192l-242 84l84 201l234 -108l-27 254h252l-33 -261l232 115l84 -201l-248 -81z" />
    <glyph glyph-name="plus" unicode="+" horiz-adv-x="1120" 
d="M1069 891v-266h-375v-375h-266v375h-377v266h377v377h266v-377h375z" />
    <glyph glyph-name="comma" unicode="," horiz-adv-x="557" 
d="M223 -397l-235 133q115 145 162 295t32 370l373 -98q6 -195 -82 -376t-250 -324z" />
    <glyph glyph-name="hyphen" unicode="-" horiz-adv-x="696" 
d="M51 352v273h594v-273h-594z" />
    <glyph glyph-name="period" unicode="." horiz-adv-x="528" 
d="M31 213q0 86 63 160q64 73 168 73t170 -74t66 -164q0 -92 -62 -154t-168 -62q-104 0 -171 67q-66 68 -66 154z" />
    <glyph glyph-name="slash" unicode="/" horiz-adv-x="1073" 
d="M301 -164l-291 4l762 1700h291z" />
    <glyph glyph-name="zero" unicode="0" horiz-adv-x="1226" 
d="M436 718q0 -181 57 -303t127 -122t117 116t47 299t-51 302t-127 118q-61 2 -116 -113q-54 -116 -54 -297zM608 1458q292 0 440 -200t148 -546t-151 -542q-151 -195 -422 -195q-271 1 -432 191t-161 536t162 552q160 204 416 204z" />
    <glyph glyph-name="one" unicode="1" horiz-adv-x="1015" 
d="M774 1432v-1160h191v-272h-820v272h205v760l-205 -96l-94 227l42 21q98 46 119 63q21 15 48 35t47 40t48 49q28 28 55 61h364z" />
    <glyph glyph-name="two" unicode="2" horiz-adv-x="1208" 
d="M600 1454q209 0 348 -123t139 -325q-1 -164 -71 -251t-256 -208q-86 -55 -180 -136t-127 -139h360v164h344v-436h-1106v297q82 135 140 202t159 146q46 43 150 112t158 121t55 109q0 135 -172 135q-51 0 -103 -30t-78 -52q-24 -24 -71 -73l-221 233q219 254 532 254z" />
    <glyph glyph-name="three" unicode="3" horiz-adv-x="1105" 
d="M508 -27q-140 0 -278 70t-199 162l209 217q133 -133 270 -133q86 0 135 41t49 116q0 150 -170 150h-153v244h149q76 0 125 37t49 109t-54 115q-54 42 -126 42q-123 0 -240 -123l-198 240q66 72 188 133t250 61q248 0 385 -118t137 -316q0 -143 -151 -260
q190 -137 190 -343t-170 -325t-397 -119z" />
    <glyph glyph-name="four" unicode="4" horiz-adv-x="1196" 
d="M610 625v379l-303 -379h303zM20 403v293l590 736h424v-807h109v-222h-109v-133h111v-270h-664v270h129v133h-590z" />
    <glyph glyph-name="five" unicode="5" horiz-adv-x="1181" 
d="M522 -27q-132 0 -279 75q-146 75 -212 173l223 232q147 -152 287 -152q102 0 164 57q61 58 61 144t-60 144t-156 58t-185 -94l-263 117l125 705h811v-306h-551l-34 -198q76 49 221 49q193 0 335 -130t142 -355q0 -126 -53 -226t-142 -163q-184 -130 -434 -130z" />
    <glyph glyph-name="six" unicode="6" horiz-adv-x="1189" 
d="M600 303q84 0 139 51t53 124q-2 74 -41 130q-40 56 -124 54q-121 -6 -211 -117q0 -88 50 -165t134 -77zM1159 496q0 -210 -143 -358t-393 -156t-416 164q-213 221 -166 668q10 95 47 213t99 207q63 89 179 152q116 64 247 68t275 -42t230 -120l-139 -266
q-329 192 -481 24q-70 -78 -86 -198q42 41 116 72t152 32q201 8 340 -122t139 -338z" />
    <glyph glyph-name="seven" unicode="7" horiz-adv-x="1159" 
d="M31 1026v406h1108v-273l-551 -1159h-443l549 1159h-336v-133h-327z" />
    <glyph glyph-name="eight" unicode="8" horiz-adv-x="1144" 
d="M735 1069q0 55 -46 92t-106 37q-61 0 -105 -39t-44 -90t39 -84t79 -41t85 -10q98 47 98 135zM385 422q0 -62 56 -110t135 -48t133 44q53 44 54 131t-80 129t-179 46q-49 -29 -84 -79q-35 -51 -35 -113zM31 420q0 102 61 206t160 154q-74 45 -114 120t-40 153
q0 175 131 289t359 114t358 -114q129 -114 129 -289q0 -96 -49 -170t-123 -109q99 -49 155 -147t56 -207q0 -193 -148 -320t-396 -127t-393 126q-146 126 -146 321z" />
    <glyph glyph-name="nine" unicode="9" horiz-adv-x="1202" 
d="M589 1133q-83 1 -138 -51t-53 -125t41 -129q40 -56 133 -53t184 116q0 94 -42 168t-125 74zM31 940q0 209 143 357q143 149 394 157t422 -166t179 -475q2 -105 -8 -205t-50 -216q-41 -116 -105 -202t-181 -145q-228 -115 -523 -21q-144 45 -230 119l139 267
q178 -104 299 -105q116 4 184 76t66 203q-98 -98 -250 -105q-201 -8 -340 122t-139 339z" />
    <glyph glyph-name="colon" unicode=":" horiz-adv-x="520" 
d="M31 825q0 84 62 156q61 72 165 72t168 -73t63 -162q0 -89 -62 -150q-61 -62 -161 -62t-168 68t-67 151zM31 202q0 84 62 156q61 72 165 72t168 -73t63 -161q0 -88 -64 -150q-65 -62 -164 -62t-165 66q-65 67 -65 152z" />
    <glyph glyph-name="semicolon" unicode=";" horiz-adv-x="618" 
d="M10 -264q115 145 162 295t33 370l373 -98q6 -195 -82 -376t-250 -324zM588 784q0 -90 -64 -153t-164 -63q-102 0 -170 68t-69 153q0 85 63 159q64 74 168 74t170 -74t66 -164z" />
    <glyph glyph-name="less" unicode="&#x3c;" horiz-adv-x="1124" 
d="M72 694v256l880 363l101 -250l-627 -240l627 -241l-101 -250z" />
    <glyph glyph-name="equal" unicode="=" horiz-adv-x="946" 
d="M51 805v272h844v-272h-844zM51 352v273h844v-273h-844z" />
    <glyph glyph-name="greater" unicode="&#x3e;" horiz-adv-x="1124" 
d="M1053 952v-256l-881 -362l-100 250l626 239l-626 242l100 250z" />
    <glyph glyph-name="question" unicode="?" horiz-adv-x="1064" 
d="M503 -2q-103 0 -171 64t-68 148t65 150t170 66t174 -64t69 -152q0 -89 -68 -151q-68 -61 -171 -61zM537 1464q213 0 350 -110t137 -310q0 -138 -116 -240q-48 -42 -95 -77q-115 -86 -115 -137v-113h-379l-2 164q-1 63 51 127t112 105q163 114 163 176q0 96 -151 96
q-60 0 -134 -49t-133 -119l-221 223q227 264 533 264z" />
    <glyph glyph-name="at" unicode="@" horiz-adv-x="1595" 
d="M804 719q-92 0 -144 -78t-52 -168t44 -150t102 -61q88 0 172 49l39 267q-68 141 -161 141zM790 924q120 0 207 -107l13 82l202 -27l-82 -583q2 1 23 -13t55 -14q109 0 158 96t49 205q0 239 -174 397t-465 158q-147 0 -266 -63q-120 -63 -188 -163q-140 -206 -140 -444
q0 -237 184 -416t449 -179q176 0 293 49t162 86l20 14l99 -141q-18 -18 -85 -56q-215 -124 -489 -124q-325 0 -565 221t-240 563q0 230 117 439q134 241 366 335q130 53 283 53q369 0 589 -208t220 -521q0 -127 -37 -218t-77 -141q-41 -50 -109 -83t-154 -33
q-129 16 -184 68q-135 -98 -274 -98t-253 118q-114 119 -114 299q0 99 45 199t143 175q99 75 219 75z" />
    <glyph glyph-name="A" unicode="A" horiz-adv-x="1685" 
d="M774 1096l-133 -443h268zM1655 268v-268h-821v268h194l-43 140h-420l-43 -140h160v-268h-651v268h139l276 899h-84v265h787l362 -1164h144z" />
    <glyph glyph-name="B" unicode="B" horiz-adv-x="1406" 
d="M723 1161h-129v-307h125q79 0 109 40t30 114t-38 114t-97 39zM758 266q68 0 116 48t50 128q0 80 -45 130t-127 51h-158v-357h164zM829 0h-778v266h119v901h-119v265h764q502 0 502 -351q0 -131 -44 -201t-157 -116q121 -33 196 -120t74 -228q0 -216 -131 -316t-426 -100z
" />
    <glyph glyph-name="C" unicode="C" horiz-adv-x="1404" 
d="M769 -33q-343 0 -541 198t-197 537q0 168 59 314q106 264 352 387q109 53 211 53q211 0 316 -139l47 115h321v-582h-366q-3 110 -59 184t-162 74t-172 -117q-68 -117 -68 -284t80 -279t219 -111q89 0 174 59q74 46 139 128l13 14l239 -262q-262 -289 -605 -289z" />
    <glyph glyph-name="D" unicode="D" horiz-adv-x="1474" 
d="M983 722q0 192 -77 316q-77 123 -230 123h-78v-889h78q156 2 232 130t75 320zM668 0h-617v272h127v889h-127v271h625q362 0 570 -197t208 -500q0 -351 -204 -543t-582 -192z" />
    <glyph glyph-name="E" unicode="E" horiz-adv-x="1337" 
d="M51 1161v271h1235v-453h-354v182h-328v-282h389v-273h-389v-334h328v191h354v-463h-1235v272h129v889h-129z" />
    <glyph glyph-name="F" unicode="F" horiz-adv-x="1306" 
d="M51 1161v271h1225v-453h-363v182h-309v-356h389v-273h-389v-260h209v-272h-762v272h127v889h-127z" />
    <glyph glyph-name="G" unicode="G" horiz-adv-x="1589" 
d="M674 -18q-274 0 -459 197q-184 199 -184 523t189 539t439 215q196 0 299 -74q33 -23 49 -37q15 -15 31 -35t21 -26l43 148h305v-605h-367q-4 121 -71 191q-68 70 -162 69q-121 1 -201 -113t-80 -274t76 -268t210 -106q134 0 192 100v86h-125v219h680v-219h-82v-512h-410
l-63 129q-37 -61 -127 -104t-203 -43z" />
    <glyph glyph-name="H" unicode="H" horiz-adv-x="1572" 
d="M51 1161v271h664v-271h-127v-309h389v309h-121v271h666v-271h-119v-891h119v-270h-666v270h121v310h-389v-310h127v-270h-664v270h113v891h-113z" />
    <glyph glyph-name="I" unicode="I" horiz-adv-x="782" 
d="M51 1161v271h680v-271h-127v-889h127v-272h-680v272h129v889h-129z" />
    <glyph glyph-name="J" unicode="J" horiz-adv-x="948" 
d="M133 -143q170 0 170 295v1011h-176v269h770v-269h-170v-1011q0 -283 -135 -426t-442 -144q-52 0 -107 23l-2 270q41 -18 92 -18z" />
    <glyph glyph-name="K" unicode="K" horiz-adv-x="1669" 
d="M696 1432v-265h-110v-333l381 333h-148v265h682v-265h-119l-297 -256l414 -645h119v-266h-799v266h139l-221 348l-151 -129v-219h110v-266h-645v266h111v901h-111v265h645z" />
    <glyph glyph-name="L" unicode="L" horiz-adv-x="1249" 
d="M51 1161v271h647v-271h-108v-889h264v260h344v-532h-1147v272h113v889h-113z" />
    <glyph glyph-name="M" unicode="M" horiz-adv-x="2064" 
d="M1481 1071h-8q-35 -190 -60 -274l-215 -797h-428l-229 817q-35 119 -43 254h-9v-807h117v-264h-555v264h111v903h-109v265h776l207 -766l197 766h780v-265h-112v-901h112v-266h-647v266h117l-2 684v121z" />
    <glyph glyph-name="N" unicode="N" horiz-adv-x="1671" 
d="M1620 1432v-265h-135v-1167h-441l-522 780v-516h158v-264h-629v264h121v903h-119v265h588l504 -752l-2 487h-139v265h616z" />
    <glyph glyph-name="O" unicode="O" horiz-adv-x="1515" 
d="M762 285q98 -1 154 115t56 312t-56 320t-168 123q-94 2 -152 -120q-58 -123 -59 -317q0 -194 63 -314q64 -119 162 -119zM769 -37q-339 0 -539 194t-199 566q0 332 200 540q201 208 519 207q366 0 550 -202t184 -556q0 -353 -188 -551t-527 -198z" />
    <glyph glyph-name="P" unicode="P" horiz-adv-x="1310" 
d="M688 1165h-102v-356h92q90 0 145 45t55 130t-50 133t-140 48zM51 1163v269h664q342 0 462 -134q59 -66 81 -138t22 -167q0 -195 -154 -300t-385 -105h-155v-318h125v-270h-660v270h115v893h-115z" />
    <glyph glyph-name="Q" unicode="Q" horiz-adv-x="1546" 
d="M722 307q66 0 118 45q-12 86 -36 129t-73 43q-84 0 -137 -149q62 -68 128 -68zM717 711q133 0 244 -80q4 49 4 80q0 182 -69 305t-171 124t-173 -119t-71 -296q0 -66 8 -113q95 99 228 99zM731 0q-319 0 -510 186q-190 186 -190 520t190 533t498 199q350 0 525 -194
t175 -526t-170 -519q35 -133 90 -133q41 0 41 92v59h136v-104q0 -143 -80 -235t-214 -93q-134 1 -214 65t-117 162q-74 -12 -160 -12z" />
    <glyph glyph-name="R" unicode="R" horiz-adv-x="1509" 
d="M690 1165h-102v-348h92q90 0 143 43t54 123q-1 182 -187 182zM51 1163v269h666q342 0 463 -125q59 -61 82 -131q22 -70 22 -176t-83 -188q-83 -81 -214 -99q109 -15 189 -99t80 -208t48 -123q48 0 48 65v68h137v-113q0 -143 -71 -235t-228 -93q-199 -1 -298 99t-99 262
t-36 208q-36 44 -169 44v-318h125v-270h-662v270h115v893h-115z" />
    <glyph glyph-name="S" unicode="S" horiz-adv-x="1454" 
d="M432 516q0 -186 258 -205q174 0 174 103q0 69 -200 112q-200 44 -382 146q-87 49 -146 141q-58 92 -58 208t47 203q83 153 278 218q82 27 162 26q317 0 428 -208l21 172h352v-514h-371q0 111 -74 174q-75 63 -188 63q-51 0 -96 -30q-45 -31 -45 -83t84 -96t203 -81
q119 -38 237 -87t203 -145q84 -97 84 -221q0 -239 -180 -346q-162 -97 -363 -97q-268 0 -428 189l-22 -158h-359v516h381z" />
    <glyph glyph-name="T" unicode="T" horiz-adv-x="1435" 
d="M31 1432h1374v-533h-301v262h-172v-889h170v-272h-762v272h168v889h-176v-262h-301v533z" />
    <glyph glyph-name="U" unicode="U" horiz-adv-x="1509" 
d="M31 1165v267h651v-265h-111v-442q-1 -233 49 -316t156 -83q70 0 111 26t68 116q28 91 28 259v434h-111v271h607v-265h-111v-497q0 -705 -588 -705q-635 18 -635 694v506h-114z" />
    <glyph glyph-name="V" unicode="V" horiz-adv-x="1583" 
d="M1604 1432v-267h-101l-491 -1165h-377l-543 1165h-112v267h755l-2 -267h-110l174 -458q59 -180 63 -248h10q6 92 74 260l186 446h-106l-2 267h582z" />
    <glyph glyph-name="W" unicode="W" horiz-adv-x="2078" 
d="M1513 1165v267h586v-267h-112l-306 -1165h-485l-123 487q-27 98 -51 254h-8q-14 -102 -49 -249l-125 -492h-475l-271 1165h-114v267h675v-267h-118l53 -299q28 -122 65 -403h11q4 47 100 508l102 461h426l129 -566q39 -182 62 -403h10q16 178 61 391l70 311h-113z" />
    <glyph glyph-name="X" unicode="X" horiz-adv-x="1710" 
d="M731 264v-264h-680v264h178l301 391l-370 510h-107v267h811v-267h-119l201 -272l209 272h-180v267h680v-267h-174l-310 -395l369 -504h119v-266h-817v266h116l-198 266l-211 -268h182z" />
    <glyph glyph-name="Y" unicode="Y" horiz-adv-x="1370" 
d="M840 1169v263h551v-263h-111l-379 -665v-238h115v-266h-656v266h117v242l-397 661h-100v263h700v-263h-107l119 -217q6 -16 33 -82t31 -84h8q4 18 76 177l112 206h-112z" />
    <glyph glyph-name="Z" unicode="Z" horiz-adv-x="1462" 
d="M63 893v539h1344l4 -273l-749 -889h378l2 262h363v-532h-1354v266l746 895l-387 -2l2 -266h-349z" />
    <glyph glyph-name="bracketleft" unicode="[" horiz-adv-x="1474" 
d="M696 1165h-102v-356h92q90 0 145 45t55 130t-49 133q-51 48 -141 48zM59 1163v271h664q339 0 462 -148q58 -70 81 -146t22 -173q0 -215 -221 -338l229 -363h119v-266h-393l-340 549h-88v-279h125v-270h-660v270h115v893h-115z" />
    <glyph glyph-name="backslash" unicode="\" horiz-adv-x="1073" 
d="M1063 -160l-291 -4l-762 1704h291z" />
    <glyph glyph-name="bracketright" unicode="]" horiz-adv-x="1325" 
d="M678 0h-617v266h84v1002h-84v268h474v-926l237 142h-147v272h573v-272h-158l-129 -76l285 -408h84v-268h-332l-344 489l-72 -49v-172h146v-268z" />
    <glyph glyph-name="asciicircum" unicode="^" horiz-adv-x="1222" 
d="M465 1434h297l440 -813h-364l-224 458l-229 -458h-365z" />
    <glyph glyph-name="underscore" unicode="_" horiz-adv-x="1431" 
d="M51 -2v170h1329v-170h-1329z" />
    <glyph glyph-name="a" unicode="a" horiz-adv-x="1228" 
d="M420 324q0 -43 30 -70t76 -27q45 1 81 21t52 47v78q-35 59 -120 59q-119 0 -119 -108zM1075 662v-400h123v-262h-438l-49 92q-51 -70 -129 -100t-148 -31q-162 0 -282 88t-121 256q0 167 124 271t302 104q55 0 119 -21t83 -51v72q0 115 -194 115q-135 -1 -305 -95
l-86 238q242 145 449 145t365 -86q85 -45 136 -132t51 -203z" />
    <glyph glyph-name="b" unicode="b" horiz-adv-x="1343" 
d="M848 490q0 108 -41 185t-105 77t-109 -73q-44 -73 -38 -190q0 -102 44 -174q45 -71 107 -71t102 70q40 68 40 176zM63 0v266h87v1002h-87v268h496v-592q33 39 113 68t155 28q223 0 350 -158q125 -158 121 -388t-131 -373t-342 -144q-136 0 -209 46q-27 16 -61 47l-31 -70
h-461z" />
    <glyph glyph-name="c" unicode="c" horiz-adv-x="1087" 
d="M428 517q0 -105 57 -174t154 -71q139 -2 248 117l180 -209q-80 -88 -213 -148t-289 -61q-239 -1 -401 143t-162 402t145 392t359 134q158 0 256 -116l35 98h241v-463h-301q-11 215 -141 215q-74 0 -121 -77t-47 -182z" />
    <glyph glyph-name="d" unicode="d" horiz-adv-x="1298" 
d="M461 532q0 -108 41 -185t105 -77t109 73q44 73 38 189q0 102 -44 174t-107 72t-103 -70q-40 -68 -39 -176zM754 1270h-95v266h510v-1270h99v-266h-480l-34 76q-102 -94 -258 -94q-211 0 -343 160q-133 160 -133 385t140 371t336 146q135 1 258 -77v303z" />
    <glyph glyph-name="e" unicode="e" horiz-adv-x="1110" 
d="M576 776q-84 0 -120 -53t-40 -111h309q-2 74 -33 119t-116 45zM551 -37q-215 0 -378 141q-163 140 -163 400t156 404t395 145q180 0 312 -83t183 -229t-1 -331h-645q23 -120 108 -152q43 -16 103 -16q167 0 286 98l172 -199q-207 -178 -528 -178z" />
    <glyph glyph-name="f" unicode="f" horiz-adv-x="790" 
d="M541 1024h186v-266h-186v-490h123v-268h-611v268h82v490h-84v266h84v174q0 175 103 278q42 40 120 68t170 29t183 -15q90 -16 131 -36l-123 -236q-45 20 -113 21q-66 0 -65 -109v-174z" />
    <glyph glyph-name="g" unicode="g" horiz-adv-x="1310" 
d="M457 532q0 -108 41 -185t105 -77t109 73q44 73 38 189q0 102 -44 174t-107 72t-103 -70q-40 -68 -39 -176zM525 -143q114 0 170 57t57 135v70q-88 -113 -240 -113q-246 0 -369 148t-123 378t134 371t381 141q63 0 123 -26t94 -57l41 63h487v-268h-123v-613
q0 -261 -162 -411t-477 -152q-152 2 -272 56t-197 124l109 228q49 -43 151 -87t216 -44z" />
    <glyph glyph-name="h" unicode="h" horiz-adv-x="1353" 
d="M694 268v-268h-643v268h86v1002h-86v266h496v-639q25 41 124 102t205 61t181 -37q125 -62 157 -249q12 -70 13 -164v-342h96v-268h-526v557q0 137 -52 172q-27 18 -69 19q-129 0 -129 -191v-289h147z" />
    <glyph glyph-name="i" unicode="i" horiz-adv-x="675" 
d="M109 1323q0 77 60 143q61 66 161 66t162 -66t63 -148q0 -82 -60 -142q-61 -60 -159 -60t-162 64t-65 143zM625 268v-268h-574v268h86v490h-86v266h475v-756h99z" />
    <glyph glyph-name="j" unicode="j" horiz-adv-x="737" 
d="M233 1323q1 77 61 143t160 66t163 -66t63 -148t-60 -142t-158 -60t-164 64q-65 64 -65 143zM262 143v615h-86v266h475v-881q0 -85 -12 -157t-51 -152t-105 -135q-65 -55 -181 -91t-273 -36v274q69 0 115 24t69 52q49 58 49 221z" />
    <glyph glyph-name="k" unicode="k" horiz-adv-x="1339" 
d="M625 0h-547v266h84v1002h-84v268h473v-926l237 142h-147v270h573v-270h-157l-139 -88l276 -396h102v-268h-606v268h86l-155 221l-72 -49v-172h76v-268z" />
    <glyph glyph-name="l" unicode="l" horiz-adv-x="679" 
d="M649 268v-268h-598v268h88v1004h-86v264h475v-1268h121z" />
    <glyph glyph-name="m" unicode="m" horiz-adv-x="1859" 
d="M1231 756q-61 0 -85 -38t-24 -112v-332h123v-274h-530v522q-1 138 -15 186t-71 48q-92 0 -92 -123v-365h122v-268h-608v268h86v484h-86v270h387l45 -121q125 150 264 150t201 -48t96 -100q131 147 302 148q237 0 316 -155q65 -128 67 -337v-283h100v-276h-520v502l2 94
q0 123 -45 152q-14 8 -35 8z" />
    <glyph glyph-name="n" unicode="n" horiz-adv-x="1325" 
d="M682 268v-268h-631v268h86v490h-86v266h436l48 -127q119 164 292 164q258 0 331 -200q40 -103 40 -251v-342h96v-268h-516v607q0 69 -16 91q-38 51 -98 52q-129 0 -129 -191v-291h147z" />
    <glyph glyph-name="o" unicode="o" horiz-adv-x="1175" 
d="M442 508q0 -120 43 -196t107 -76t103 76q38 76 38 196t-40 196t-104 77t-106 -76q-41 -78 -41 -197zM596 -27q-240 1 -408 143t-166 393t169 395t393 145q250 -3 408 -147t160 -393q4 -249 -156 -393t-400 -143z" />
    <glyph glyph-name="p" unicode="p" horiz-adv-x="1306" 
d="M51 -418v268h86v902h-86v272h469l35 -72q119 88 248 88q229 0 356 -154t127 -388t-132 -377t-320 -143t-281 79v-207h111v-268h-613zM846 490q0 108 -41 185t-105 77t-109 -73q-44 -73 -38 -190q0 -102 44 -174q45 -71 107 -71t102 70q40 68 40 176z" />
    <glyph glyph-name="q" unicode="q" horiz-adv-x="1351" 
d="M651 -471v268h133v271q-104 -86 -262 -86q-201 0 -336 147t-135 396t137 384t353 135q87 0 155 -28t88 -53l39 61h477v-266h-100v-955h100v-274h-649zM642 270q62 0 102 70t40 176q0 108 -41 185t-105 77t-109 -72q-44 -73 -37 -190q0 -102 44 -174t106 -72z" />
    <glyph glyph-name="r" unicode="r" horiz-adv-x="847" 
d="M631 268v-268h-580v268h90v490h-88v266h385l62 -131q25 45 44 71t54 56q66 56 219 55v-368q-147 1 -218 -49t-71 -179v-211h103z" />
    <glyph glyph-name="s" unicode="s" horiz-adv-x="1040" 
d="M31 0v369h274q0 -49 44 -83q68 -52 165 -54q98 -1 98 69q0 35 -61 54t-132 37q-71 19 -108 32q-272 96 -272 328q0 143 116 220t231 77q114 -1 200 -47t119 -113l16 135h252v-369h-266q0 63 -65 109q-64 46 -144 47q-80 0 -80 -74q0 -30 41 -50q41 -19 63 -27t73 -25
q51 -16 103 -34q110 -38 191 -92q112 -75 111 -220t-113 -230q-113 -84 -269 -84q-104 0 -189 43t-124 107l-18 -125h-256z" />
    <glyph glyph-name="t" unicode="t" horiz-adv-x="743" 
d="M31 758v266h110v188l377 121v-309h195v-266h-195v-365q0 -7 -1 -29t0 -34t2 -30q4 -72 65 -71q47 0 129 35v-262q-41 -16 -122 -28t-149 -11q-68 0 -128 22q-60 23 -94 53q-58 52 -73 208q-4 51 -6 147v365h-110z" />
    <glyph glyph-name="u" unicode="u" horiz-adv-x="1292" 
d="M31 754v270h495v-494q0 -135 25 -196q25 -62 83 -62t95 44t37 112v326h-135v270h530v-752h101v-272h-388l-55 129l-20 -23q-19 -26 -27 -32t-31 -28t-41 -30t-56 -26t-116 -19q-227 0 -319 119t-92 381v283h-86z" />
    <glyph glyph-name="v" unicode="v" horiz-adv-x="1255" 
d="M727 764v260h528v-260h-106l-354 -764h-318l-381 764h-96v260h623v-260h-103l94 -217q46 -133 54 -215h8q4 94 61 225l99 207h-109z" />
    <glyph glyph-name="w" unicode="w" horiz-adv-x="1785" 
d="M1286 758v266h500v-266h-84l-240 -758h-432l-141 463l-148 -463h-422l-231 758h-88v266h551v-266h-70l45 -150q42 -139 52 -295h4q20 268 84 482l65 229h379l78 -266q59 -188 88 -445h4q18 193 55 324l35 121h-84z" />
    <glyph glyph-name="x" unicode="x" horiz-adv-x="1329" 
d="M768 768v256h522v-256h-135l-217 -219l258 -295h96v-254h-653v254h96l-155 166l-148 -166h133v-254h-524v254h137l209 235l-254 279h-92v256h664v-256h-97l144 -156l153 156h-137z" />
    <glyph glyph-name="y" unicode="y" horiz-adv-x="1187" 
d="M688 764v260h520v-254h-98l-389 -946q-81 -172 -178 -229q-97 -58 -262 -60q-139 8 -248 103l153 241q127 -111 199 -45q35 33 51 84l29 86l-399 758h-84v262h630v-260h-96l133 -320l133 320h-94z" />
    <glyph glyph-name="z" unicode="z" horiz-adv-x="1132" 
d="M317 614h-266v410h1014v-264l-487 -492h215v140h288v-408h-1030v268l494 492h-228v-146z" />
    <glyph glyph-name="bar" unicode="|" horiz-adv-x="681" 
d="M205 1436h272v-1854h-272v1854z" />
    <glyph glyph-name="questiondown" unicode="&#xbf;" horiz-adv-x="1064" 
d="M562 1151q103 -1 171 -65t68 -147t-65 -149t-170 -67q-105 0 -174 63q-68 62 -68 152t67 152q68 61 171 61zM528 -315q-213 -1 -350 109t-137 310q0 74 34 136t82 105q48 42 95 77q115 86 115 137v113h378l3 -164q0 -62 -52 -126t-111 -106q-163 -115 -163 -176
q0 -96 151 -96q61 0 135 49t132 119l221 -223q-227 -264 -533 -264z" />
    <glyph glyph-name="ring" unicode="&#x2da;" horiz-adv-x="1705" 
 />
    <glyph glyph-name="endash" unicode="&#x2013;" horiz-adv-x="915" 
d="M66 352v273h772v-273h-772z" />
    <glyph glyph-name="emdash" unicode="&#x2014;" horiz-adv-x="1292" 
d="M86 352v273h1104v-273h-1104z" />
    <glyph glyph-name="bullet" unicode="&#x2022;" horiz-adv-x="712" 
d="M123 659q0 86 63 160q64 74 168 74t170 -74t66 -165t-62 -153q-62 -63 -168 -63q-104 0 -170 68t-67 153z" />
    <glyph glyph-name="minus" unicode="&#x2212;" horiz-adv-x="1705" 
d="M434 352v273h756v-273h-756z" />
    <glyph glyph-name="CR" horiz-adv-x="573" 
 />
    </font>
</defs>
</svg>
