<?xml version="1.0" standalone="no"?>
<!DOCTYPE svg PUBLIC "-//W3C//DTD SVG 1.1//EN" "http://www.w3.org/Graphics/SVG/1.1/DTD/svg11.dtd" >
<svg>
<metadata>
Created by FontForge 20110222 at Fri Dec 20 15:27:10 2013
 By Orthosie Webhosting
Copyright (c) 2012 by Jonathan Faust. All rights reserved.
</metadata>
<defs>
<font id="EastwoodRegular" horiz-adv-x="801" >
  <font-face 
    font-family="EastwoodRegular"
    font-weight="400"
    font-stretch="normal"
    units-per-em="1000"
    panose-1="2 0 5 5 0 0 0 2 0 4"
    ascent="750"
    descent="-250"
    x-height="500"
    cap-height="700"
    bbox="-15 -286 1681 973"
    underline-thickness="50"
    underline-position="-50"
    unicode-range="U+0020-2212"
  />
<missing-glyph horiz-adv-x="345" 
 />
    <glyph glyph-name=".notdef" horiz-adv-x="345" 
 />
    <glyph glyph-name=".null" horiz-adv-x="0" 
 />
    <glyph glyph-name="nonmarkingreturn" horiz-adv-x="333" 
 />
    <glyph glyph-name="space" unicode=" " horiz-adv-x="345" 
 />
    <glyph glyph-name="exclam" unicode="!" horiz-adv-x="148" 
d="M48 95h53q5 0 5 -6v-83l-5 -6h-53q-3 0 -4.5 1.5t-1.5 2.5v2v83q0 3 1.5 4.5t2.5 1.5h2zM48 701h53q5 0 5 -6v-477l-5 -6h-53q-3 0 -4.5 1.5t-1.5 2.5v2v477q0 3 1.5 4.5t2.5 1.5h2z" />
    <glyph glyph-name="quotedbl" unicode="&#x22;" horiz-adv-x="244" 
d="M47 701h53q5 0 5 -6v-89q0 -7 -1 -14.5t-6 -23t-18.5 -25t-33.5 -9.5q-5 0 -5 5v10l5 6q12 0 18.5 12.5t7.5 25.5v13h-25q-3 0 -4.5 1.5t-1.5 2.5v2v83q0 3 1.5 4.5t3.5 1.5h1zM146 701h53q5 0 5 -6v-89q0 -7 -1 -14.5t-6 -23t-18.5 -25t-33.5 -9.5q-5 0 -5 5v10l5 6
q12 0 18.5 12.5t6.5 25.5l1 13h-25q-3 0 -4.5 1.5t-1.5 2.5v2v83q0 3 1.5 4.5t2.5 1.5h2z" />
    <glyph glyph-name="numbersign" unicode="#" horiz-adv-x="653" 
d="M530 509h113q5 0 5 -6v-46q0 -3 -3 -6h-1h-1h-125v-1l-2 -2l-39 -195h121q5 0 5 -6v-46l-5 -6h-132l-28 -131l-12 -59l-2 -4v-1h-2h-3h-50q-3 0 -4 2t-1 4v1l40 188h-205l-40 -189h-3v-1q0 -3 -2 -4t-4 -1h-1h-50q-3 0 -4 2t-1 4v1l40 188h-95q-3 0 -4.5 1.5t-1.5 3.5v1
v46q0 3 1.5 4.5t3.5 1.5h1h110l40 198h-118q-3 0 -4.5 1.5t-1.5 3.5v1v46q0 3 1.5 4.5t3.5 1.5h1h133l39 182l1 4q0 3 2 4t4 1h1h50q3 0 4 -2t1 -4v-1l-40 -184h204l38 186q0 3 2 4t4 1h1h50q3 0 4 -2t1 -4v-1zM254 451v-1l-7 -3l-40 -194h70h1h104h2h33l41 198h-74h-2h-128
z" />
    <glyph glyph-name="dollar" unicode="$" horiz-adv-x="892" 
d="M413 -88v66q-67 3 -123 13.5t-87 24t-52 27t-29 22.5l-7 9v-70q0 -4 -4 -4h-50l-4 4v209l4 4h50l4 -4q0 -73 84 -123q82 -48 214 -54v308q-167 19 -228 40q-118 42 -118 141q0 56 31.5 96.5t85 61t109 30t120.5 11.5v72q0 5 6 5h46l6 -5v-72q64 -2 116.5 -11.5t81.5 -22
t48.5 -24.5t26.5 -20l6 -9v59q0 4 4 4h51q3 0 3 -4v-219l-3 -4h-51q-4 0 -4 4v21q0 76 -73 119.5t-206 48.5v-271q36 -4 54.5 -6.5t57.5 -8.5t61.5 -13t55.5 -17.5t53 -25t40 -33t29 -43.5t9 -55q0 -24 -6 -47.5t-28.5 -54.5t-59 -54t-105.5 -40.5t-161 -18.5v-66
q0 -3 -1.5 -4.5t-3.5 -1.5h-1h-46q-3 0 -4.5 1.5t-1.5 2.5v2zM767 193q0 35 -23 60.5t-69 41.5t-91 25t-113 18v-303q144 2 220 43.5t76 114.5zM135 525q0 -29 20.5 -50t63.5 -35t85.5 -22t108.5 -16v264q-278 -7 -278 -141z" />
    <glyph glyph-name="percent" unicode="%" horiz-adv-x="643" 
d="M33 586q0 51 35.5 87t86.5 36t87 -36t36 -87t-36 -86.5t-87 -35.5t-86.5 35.5t-35.5 86.5zM88 585q0 -29 20 -48.5t48 -19.5t48 19.5t20 48.5t-20 48.5t-48 19.5t-48 -19.5t-20 -48.5zM369 114q0 51 35.5 87t86.5 36t87 -36t36 -87t-36 -86.5t-87 -35.5t-86.5 35.5
t-35.5 86.5zM424 113q0 -29 20 -48.5t48 -19.5t48 19.5t20 48.5t-20 48.5t-48 19.5t-48 -19.5t-20 -48.5zM484 701h54l2 -6l-369 -690l-9 -4h-48q-4 0 -5.5 1.5t-0.5 3.5v1l368 688q1 3 3 4.5t3 1.5h2z" />
    <glyph glyph-name="ampersand" unicode="&#x26;" horiz-adv-x="763" 
d="M686 344h-73q-2 -57 -22 -113.5t-45 -91.5l134 -130q10 -9 -1 -9h-73l-11 5l-85 86q-97 -103 -227 -103q-62 0 -110 19t-74.5 49t-39.5 62t-13 63q0 39 12 71t38 59.5t48 44.5t60 43q-61 61 -81.5 91t-20.5 68q0 59 49.5 105.5t127.5 46.5q72 0 117 -36.5t45 -107.5
q0 -38 -26 -74.5t-50.5 -54.5t-67.5 -46l206 -208q48 83 51 161h-80q-4 0 -4 4v51l4 4h212l4 -4v-51q0 -4 -4 -4zM468 134l-221 223q-31 -19 -51 -33t-43.5 -35.5t-35 -44.5t-11.5 -49q0 -72 55.5 -110.5t135.5 -38.5q97 0 171 88zM385 566q0 40 -30 64.5t-80 24.5
q-44 0 -78.5 -27.5t-34.5 -69.5q0 -19 11 -38.5t22.5 -31.5t33 -31t28.5 -26q8 6 27 18t27.5 18t23 16.5t21.5 18.5t15 18.5t11 21.5t3 24z" />
    <glyph glyph-name="quotesingle" unicode="'" horiz-adv-x="151" 
d="M47 701h53q5 0 5 -6v-89q0 -7 -1 -14.5t-6 -23t-18.5 -25t-33.5 -9.5q-5 0 -5 5v10l5 6q12 0 18.5 12.5t7.5 25.5v13h-25q-3 0 -4.5 1.5t-1.5 2.5v2v83q0 3 1.5 4.5t3.5 1.5h1z" />
    <glyph glyph-name="parenleft" unicode="(" horiz-adv-x="292" 
d="M187 727l40 -27q-48 -60 -76.5 -161t-28.5 -189q0 -86 29.5 -186.5t75.5 -161.5l-40 -25q-65 92 -95.5 179t-30.5 194q0 105 30.5 194t95.5 183z" />
    <glyph glyph-name="parenright" unicode=")" horiz-adv-x="307" 
d="M61 700l40 27q65 -94 95.5 -183t30.5 -194q0 -107 -30.5 -194t-95.5 -179l-40 25q46 61 75.5 161.5t29.5 186.5q0 88 -28.5 189t-76.5 161z" />
    <glyph glyph-name="asterisk" unicode="*" horiz-adv-x="374" 
d="M155 700h57l-11 -114l92 63l26 -47l-104 -43l104 -45l-26 -46l-92 60l11 -113h-57l13 113l-95 -60l-25 46l105 45l-105 43l25 47l95 -63z" />
    <glyph glyph-name="plus" unicode="+" horiz-adv-x="499" 
d="M276 242v-150q0 -5 -6 -5h-46l-6 5v150h-154q-3 0 -4.5 1.5t-1.5 2.5v2v46q0 3 1.5 4.5t2.5 1.5h2h154v153q0 3 1.5 4.5t2.5 1.5h2h46q3 0 4.5 -1.5t1.5 -3.5v-1v-153h149q5 0 5 -6v-46l-5 -6h-149z" />
    <glyph glyph-name="comma" unicode="," horiz-adv-x="224" 
d="M81 95h53q5 0 5 -6v-89q0 -7 -1 -14.5t-6 -23t-18.5 -25t-33.5 -9.5q-5 0 -5 5v10l5 6q12 0 18.5 12.5t7.5 25.5v13h-25q-3 0 -4.5 1.5t-1.5 2.5v2v83q0 3 1.5 4.5t3.5 1.5h1z" />
    <glyph glyph-name="hyphen" unicode="-" horiz-adv-x="325" 
d="M44 300h238q5 0 5 -6v-46l-5 -6h-238q-3 0 -4.5 1.5t-1.5 2.5v2v46q0 3 1.5 4.5t2.5 1.5h2z" />
    <glyph glyph-name="period" unicode="." horiz-adv-x="219" 
d="M81 95h53q5 0 5 -6v-83l-5 -6h-53q-3 0 -4.5 1.5t-1.5 2.5v2v83q0 3 1.5 4.5t3.5 1.5h1z" />
    <glyph glyph-name="slash" unicode="/" horiz-adv-x="534" 
d="M429 700h54l2 -6l-369 -690l-9 -4h-48q-4 0 -5.5 1.5t-1.5 2.5l1 2l368 688q1 3 3 4.5t4 1.5h1z" />
    <glyph glyph-name="zero" unicode="0" horiz-adv-x="833" 
d="M419 726q158 0 257.5 -108.5t99.5 -265.5q0 -160 -99 -267.5t-258 -107.5q-162 0 -262 107t-100 268q0 157 100.5 265.5t261.5 108.5zM419 35q136 0 218 91t82 226q0 134 -82 225t-218 91q-139 0 -221.5 -90.5t-82.5 -225.5q0 -136 82.5 -226.5t221.5 -90.5z" />
    <glyph glyph-name="one" unicode="1" horiz-adv-x="464" 
d="M411 55v-51q0 -3 -4 -4h-149h-52h-153q-4 0 -4 4v51q0 4 4 4h149v582h-137q-4 0 -4 4v51q0 4 4 4h141h52q4 0 4 -4v-55v-582h145q4 0 4 -4z" />
    <glyph glyph-name="two" unicode="2" horiz-adv-x="833" 
d="M33 4v22q-2 65 35.5 118t98 87t134.5 62.5t149 52t137 47.5t101.5 56.5t41.5 72.5q0 73 -87 109t-220 36q-147 0 -229.5 -42.5t-82.5 -119.5l-4 -4h-56q-3 0 -3 4q0 98 96 159t279 61q73 0 133.5 -9t116.5 -30.5t88 -64t32 -101.5t-49 -105t-123 -73.5t-162 -57.5
t-164 -56.5t-130 -70t-61 -98.5h630v144l4 4h51l4 -4v-199q0 -4 -4 -4h-752q-4 0 -4 4z" />
    <glyph glyph-name="three" unicode="3" horiz-adv-x="890" 
d="M446 338v49q0 3 2 4.5t4 1.5h2h129q17 1 39 6.5t50.5 18.5t47.5 40t19 64q0 73 -86 109t-219 36q-287 0 -287 -162l-4 -4h-56q-3 0 -3 4q0 100 85 160t265 60q73 0 133 -9t115 -30.5t86.5 -64t31.5 -101.5q0 -33 -11 -61t-26 -44.5t-30.5 -28.5t-26.5 -16l-11 -5
q5 0 17.5 -5t30 -18t33 -31t26.5 -48.5t11 -67.5q0 -73 -55 -122.5t-137.5 -70.5t-186.5 -21q-180 0 -265 60t-85 160l3 4h56q4 0 4 -4q0 -162 287 -162q133 0 224.5 40.5t91.5 119.5q0 69 -53 102t-146 33h-100q-5 0 -5 4z" />
    <glyph glyph-name="four" unicode="4" horiz-adv-x="764" 
d="M547 700h1q5 0 5 -6v-394h139q4 0 4 -4v-51l-4 -4h-139v-182h146q4 0 4 -4v-51l-4 -4h-351q-4 0 -4 4v51q0 4 4 4h145v182h-471l-4 4v56l476 397l4 2h23h26zM111 300h381l1 322z" />
    <glyph glyph-name="five" unicode="5" horiz-adv-x="833" 
d="M74 348l52 349l4 4h577l4 -4v-51q0 -4 -4 -4h-55h-470l-36 -243q120 31 263 31q365 0 365 -222q0 -79 -52 -133t-128.5 -76.5t-170.5 -22.5q-182 0 -274 60.5t-92 159.5l3 4h56q4 0 4 -4q0 -78 78.5 -120t224.5 -42q130 0 209 44t79 132q0 43 -25 75t-68.5 49.5t-95 26
t-111.5 8.5q-150 -1 -311 -42q-5 0 -6 1q-3 2 -9 7.5t-9 7.5z" />
    <glyph glyph-name="six" unicode="6" horiz-adv-x="860" 
d="M476 719q78 0 152.5 -13t115.5 -34q2 -1 2 -3v-3l-1 -2l-31 -45l-7 -1q-8 5 -24.5 12t-82.5 19t-149 12q-72 0 -128 -19.5t-90.5 -50.5t-57 -74.5t-31.5 -86.5t-9 -91q45 45 128.5 70t179.5 26q88 0 155.5 -15.5t105 -38.5t61 -55t30.5 -59t7 -57q0 -108 -110.5 -168.5
t-268.5 -60.5q-194 0 -274.5 72t-80.5 225q2 217 96 329t312 112zM423 39q129 0 222.5 47.5t93.5 127.5q0 79 -81.5 120.5t-220.5 42.5q-77 -2 -141.5 -18t-108.5 -52t-44 -86q0 -83 70 -132.5t210 -49.5z" />
    <glyph glyph-name="seven" unicode="7" horiz-adv-x="766" 
d="M701 634q-17 -15 -46.5 -42.5t-106.5 -106.5t-138.5 -152.5t-119.5 -165.5t-74 -162q0 -5 -6 -5h-53q-3 0 -4.5 2t-1.5 4v2q17 74 72 166t121.5 171t131 148t107.5 109l43 39h-513v-137q0 -4 -4 -4h-51q-4 0 -4 4v192q0 4 4 4h643l4 -4v-55z" />
    <glyph glyph-name="eight" unicode="8" horiz-adv-x="802" 
d="M76 536q0 82 87 136t237 54q145 0 234 -54.5t89 -135.5q0 -51 -35.5 -95t-102.5 -70q82 -26 128 -74t46 -107q0 -86 -95 -146.5t-263 -60.5q-169 0 -263 60.5t-94 146.5q0 59 44 106.5t126 74.5q-67 26 -102.5 70.5t-35.5 94.5zM104 188q0 -63 86.5 -107t210.5 -44
q123 0 211 44t88 107q0 64 -84.5 107.5t-214.5 43.5q-132 0 -214.5 -43t-82.5 -108zM135 535q0 -59 76 -99.5t189 -40.5q111 0 188 40.5t77 99.5q0 57 -73.5 94.5t-191.5 37.5q-120 0 -192.5 -37t-72.5 -95z" />
    <glyph glyph-name="nine" unicode="9" horiz-adv-x="833" 
d="M394 -19q-78 0 -152.5 13t-115.5 34q-2 1 -2 3v3l1 2l31 45l7 1q8 -5 24.5 -12t82.5 -19t149 -12q72 0 128 19.5t90.5 50.5t57 74.5t31.5 86.5t9 91q-45 -45 -128.5 -70t-179.5 -26q-88 0 -155.5 15.5t-105 38.5t-61 55t-30.5 59t-7 57q0 108 110.5 168.5t268.5 60.5
q165 0 260 -73t95 -224q-2 -217 -96 -329t-312 -112zM447 661q-129 0 -222.5 -47.5t-93.5 -127.5q0 -79 81.5 -120.5t220.5 -42.5q120 2 207 44t87 116q0 78 -81.5 128t-198.5 50z" />
    <glyph glyph-name="colon" unicode=":" horiz-adv-x="162" 
d="M48 420q0 16 12 28t28 12q17 0 29 -12t12 -28t-12.5 -28.5t-28.5 -12.5t-28 12t-12 29zM48 87q0 17 12 28.5t28 11.5q17 0 29 -12t12 -28q0 -17 -12.5 -29t-28.5 -12t-28 12t-12 29z" />
    <glyph glyph-name="semicolon" unicode=";" horiz-adv-x="138" 
d="M30 420q0 16 12 28t28 12q17 0 29 -12t12 -28t-12.5 -28.5t-28.5 -12.5t-28 12t-12 29zM43 95h53q5 0 5 -6v-89q0 -7 -1 -14.5t-6 -23t-18.5 -25t-33.5 -9.5q-5 0 -5 5v10l5 6q12 0 18.5 12.5t7.5 25.5v13h-25q-3 0 -4.5 1.5t-1.5 2.5v2v83q0 3 1.5 4.5t3.5 1.5h1z" />
    <glyph glyph-name="less" unicode="&#x3c;" horiz-adv-x="356" 
d="M228 445h79l2 -5l-179 -140l-1 -1l180 -140v-4q-2 -1 -6 -1h-73q-7 0 -9 3l-179 141q-4 4 1 4l177 138z" />
    <glyph glyph-name="equal" unicode="=" horiz-adv-x="355" 
d="M44 277h238q5 0 5 -6v-46l-5 -6h-238q-3 0 -4.5 1.5t-1.5 3.5v1v46q0 3 1.5 4.5t2.5 1.5h2zM44 477h238q5 0 5 -6v-46l-5 -6h-238q-3 0 -4.5 1.5t-1.5 3.5v1v46q0 3 1.5 4.5t2.5 1.5h2z" />
    <glyph glyph-name="greater" unicode="&#x3e;" horiz-adv-x="362" 
d="M45 445h79q5 0 8 -5l177 -138q5 0 1 -4l-179 -141l-9 -3h-73q-7 1 -6 5l180 140l-1 1l-179 140z" />
    <glyph glyph-name="question" unicode="?" horiz-adv-x="632" 
d="M295 95h53q5 0 5 -6v-83l-5 -6h-53q-3 0 -4.5 1.5t-1.5 2.5v2v83q0 3 1.5 4.5t3.5 1.5h1zM288 218q0 61 17.5 106t44 68.5t57 43.5t57 33t44 35t17.5 51q0 15 -2 26.5t-14 28.5t-32.5 28t-61.5 19t-97 8q-34 0 -66.5 -6t-66 -19.5t-54 -42t-20.5 -68.5q0 -5 -6 -5h-49
q-3 0 -3 6q0 87 68.5 137.5t196.5 50.5q129 0 198.5 -40t69.5 -108q0 -41 -13 -70t-33.5 -46.5t-45.5 -31.5t-50 -30t-45.5 -36t-33.5 -55t-13 -83l-5 -6h-53q-3 0 -4.5 1.5t-1.5 2.5v2z" />
    <glyph glyph-name="at" unicode="@" horiz-adv-x="874" 
d="M782 162l-1 -2l-5 -3h-159q-3 0 -3 3v64q-30 -38 -77 -59.5t-99 -21.5q-92 0 -156.5 59t-64.5 143q0 86 65 146.5t156 60.5q51 0 98.5 -22.5t77.5 -62.5v67l3 3h47q5 0 5 -4v-321h76q35 67 35 140q0 130 -100 223t-240 93q-143 0 -243.5 -92.5t-100.5 -223.5t100.5 -224
t243.5 -93q96 0 175 45q4 -3 4 -6v-53q0 -6 -5 -6q-88 -38 -174 -38q-166 0 -284 109t-118 266q0 153 118.5 263.5t283.5 110.5q162 0 279.5 -110.5t117.5 -263.5q0 -102 -55 -190zM442 195q69 0 118 43.5t49 104.5q0 63 -49 107t-118 44q-71 0 -120.5 -44t-49.5 -107
q0 -61 49.5 -104.5t120.5 -43.5z" />
    <glyph glyph-name="A" unicode="A" horiz-adv-x="1094" 
d="M1037 59l3 -4v-51q0 -4 -3 -4h-354q-5 0 -5 4v51q0 4 5 4h145l-91 173h-397l-87 -173h150l4 -4v-51l-4 -4h-354q-4 0 -4 4v51q0 4 4 4h138l318 637l5 4h45q3 0 5 -4l335 -637h142zM706 291l-173 331l-166 -331h339z" />
    <glyph glyph-name="B" unicode="B" horiz-adv-x="963" 
d="M779 370q52 -24 81 -70t29 -103q0 -83 -57 -140t-140 -57h-47h-381h-52h-153q-4 0 -4 4v51l4 4h149v279v51v252h-149q-4 0 -4 4v51l4 4h610q77 0 131 -54t54 -131q0 -41 -20 -80t-55 -65zM669 393q53 0 89.5 36t36.5 86q0 53 -36.5 89.5t-89.5 36.5h-40h-362v-248h382h20
zM830 197q0 62 -43.5 99.5t-113.5 37.5h-4h-20h-382v-275h378h47q59 0 98.5 40.5t39.5 97.5z" />
    <glyph glyph-name="C" unicode="C" horiz-adv-x="915" 
d="M848 698q4 0 4 -4v-220l-4 -4h-51q-6 0 -8 3l-27 41q-50 71 -132 111.5t-178 40.5q-149 0 -253.5 -92.5t-104.5 -224.5q0 -131 104.5 -223.5t253.5 -92.5q98 0 183 42t132 114l28 42l1 1q2 2 3.5 2.5t4.5 -0.5l38 -25q2 -1 2.5 -3t-0.5 -4v-1l-28 -43
q-59 -85 -155.5 -134.5t-208.5 -49.5q-172 0 -294.5 110t-122.5 265q0 156 122.5 266t294.5 110q108 0 197 -43q78 -38 144 -109v121q0 4 4 4h51z" />
    <glyph glyph-name="D" unicode="D" horiz-adv-x="988" 
d="M600 700q145 0 247.5 -102t102.5 -248q0 -144 -102.5 -247t-247.5 -103h-342h-50h-154l-4 4v51l4 4h150v581h-150l-4 4v52l4 4h154h50h342zM600 59q121 0 206.5 86t85.5 205q0 121 -85 205.5t-207 84.5h-338v-581h338z" />
    <glyph glyph-name="E" unicode="E" horiz-adv-x="992" 
d="M900 236q3 0 4 -4v-228q0 -4 -4 -4h-633h-52h-149q-4 0 -4 4v51q0 4 4 4h145v582h-145q-4 0 -4 4v52q0 3 4 3h149h52h633l4 -3v-221q0 -4 -4 -4h-51l-3 4v165h-575v-259h326v94l4 4h52q4 0 4 -4v-251q0 -4 -4 -4h-52l-4 4v98h-326v-264h575v174l3 3h51z" />
    <glyph glyph-name="F" unicode="F" horiz-adv-x="924" 
d="M877 700q4 0 4 -4v-220q0 -4 -4 -4h-51l-4 4v165h-573v-268h325v95q0 4 4 4h51q4 0 4 -4v-251q0 -4 -4 -4h-51l-4 4v97h-325v-255h145l4 -4v-51q0 -4 -4 -4h-150h-50h-154q-4 0 -4 4v51l4 4h149v582h-149q-4 0 -4 4v51l4 4h154h50h633z" />
    <glyph glyph-name="G" unicode="G" horiz-adv-x="945" 
d="M879 370v-366l-4 -4h-50l-5 4v142q-19 -26 -30 -38q-43 -53 -120 -90.5t-189 -37.5q-172 0 -294 109.5t-122 265.5q0 154 122.5 263t293.5 109q104 0 196 -43q76 -34 143 -108v120q0 4 5 4h50q4 0 4 -4v-218l-4 -4h-51q-5 0 -8 4l-24 35q-49 73 -131.5 114.5t-179.5 41.5
q-148 0 -252.5 -92t-104.5 -222q0 -132 104.5 -224t252.5 -92q82 0 146.5 25t103 66.5t60 89.5t25.5 100h-372q-4 0 -4 4v50q0 4 4 4h431q4 0 4 -4v-4z" />
    <glyph glyph-name="H" unicode="H" horiz-adv-x="1076" 
d="M1036 641h-150v-582h150q4 0 4 -4v-51l-4 -4h-154h-50h-150q-4 0 -4 4v51q0 4 4 4h146v272h-575v-272h145l4 -4v-51q0 -4 -4 -4h-149h-51h-153q-4 0 -4 4v51q0 4 4 4h149v582h-149q-4 0 -4 4v51l4 4h153h51h149l4 -4v-51q0 -4 -4 -4h-145v-252h575v252h-146q-4 0 -4 4v51
q0 4 4 4h150h50h154q4 0 4 -4v-51z" />
    <glyph glyph-name="I" unicode="I" horiz-adv-x="443" 
d="M400 640h-145v-581h145l4 -4v-51q0 -4 -4 -4h-149h-51h-153q-4 0 -4 4v51l4 4h149v581h-149q-4 0 -4 4v52q0 4 4 4h153h51h149l4 -4v-52q0 -4 -4 -4z" />
    <glyph glyph-name="J" unicode="J" horiz-adv-x="799" 
d="M751 700l4 -4v-51l-4 -4h-145v-393q0 -110 -66 -188q-80 -86 -213 -86q-134 0 -208 86q-70 70 -70 184v47l4 4h51q4 0 4 -4v-47q0 -85 56 -148t163 -63q106 0 163 64t57 151v393h-149q-4 0 -4 4v51q0 4 4 4h153h51h149z" />
    <glyph glyph-name="K" unicode="K" horiz-adv-x="1093" 
d="M1037 59q4 0 4 -4v-51l-4 -4h-354q-4 0 -4 4v51q0 4 4 4h142l-248 354l-323 -220v-134h149q4 0 4 -4v-51l-4 -4h-153h-51h-149q-4 0 -4 4v51q0 4 4 4h145v582h-145q-4 0 -4 4v51q0 4 4 4h149h51h153l4 -4v-51l-4 -4h-149v-377l551 377h-158q-4 0 -4 4v51q0 4 4 4h355
q4 0 4 -4v-51l-4 -4h-95l-282 -193l274 -389h138z" />
    <glyph glyph-name="L" unicode="L" horiz-adv-x="957" 
d="M894 232v-228q0 -3 -4 -4h-632h-52h-153q-4 0 -4 4v51q0 4 4 4h149v582h-149q-4 0 -4 4v51q0 4 4 4h153h52h149l4 -4v-51l-4 -4h-145v-582h574v173q0 3 3 4h51q4 0 4 -4z" />
    <glyph glyph-name="M" unicode="M" horiz-adv-x="1148" 
d="M1105 641h-149v-582h149q4 0 4 -4v-51l-4 -4h-153h-51h-149q-4 0 -4 4v51q0 4 4 4h145v578l-294 -437l-9 -4h7h-54q-4 0 -8 4l-295 437v-578h145l4 -4v-51q0 -4 -4 -4h-149h-51h-153q-4 0 -4 4v51q0 4 4 4h149v582h-149q-4 0 -4 4v51q0 4 4 4h153h51h28q4 0 8 -4
l295 -436l294 436l7 4h29h51h153q4 0 4 -4v-51z" />
    <glyph glyph-name="N" unicode="N" horiz-adv-x="1112" 
d="M1050 700l4 -4v-51l-4 -4h-145v-637l-4 -4h-83q-3 0 -8 5l-543 632v-578h150q4 0 4 -4v-51l-4 -4h-154h-51h-149q-4 0 -4 4v51q0 4 4 4h145v582h-145q-4 0 -4 4v51q0 4 4 4h149h51h20q8 0 12 -4l551 -637v582h-150q-4 0 -4 4v51l4 4h153h52h149z" />
    <glyph glyph-name="O" unicode="O" horiz-adv-x="873" 
d="M440 726q162 0 279.5 -110.5t117.5 -263.5q0 -156 -117 -265.5t-280 -109.5q-166 0 -284 109t-118 266q0 153 118.5 263.5t283.5 110.5zM440 35q140 0 240 93t100 224q0 130 -100 223t-240 93q-143 0 -243.5 -92.5t-100.5 -223.5t100.5 -224t243.5 -93z" />
    <glyph glyph-name="P" unicode="P" horiz-adv-x="879" 
d="M661 700q77 0 131 -54t54 -130q0 -74 -54.5 -128t-130.5 -54h-418v-275h150q4 -1 4 -4v-51l-4 -4h-154h-50h-150q-4 0 -4 4v51q0 4 4 4h146v279v52v251h-146q-4 0 -4 4v52q0 3 4 3h622zM661 394q53 0 89.5 35.5t36.5 86.5q0 53 -36.5 89t-89.5 36h-39h-379v-247h418z" />
    <glyph glyph-name="Q" unicode="Q" horiz-adv-x="963" 
d="M906 0q3 0 3 -4v-24q0 -20 -8 -42t-25 -45t-51 -38t-80 -15q-78 0 -126.5 40t-63.5 114q-54 -8 -103 -8q-77 0 -152.5 32t-133.5 90q-104 112 -104 251q0 153 118 263.5t282 110.5q165 0 281.5 -110t116.5 -264q0 -119 -70 -210q-71 -97 -181 -136q18 -116 136 -116
q29 0 50.5 8.5t32 19.5t16.5 24.5t7 20t1 10.5v24q0 4 4 4h50zM439 182q-43 0 -71 -21t-28 -53q0 -33 32 -52.5t80 -19.5q55 0 95 7v8q0 54 -26 92.5t-82 38.5zM462 667q-141 0 -242 -92.5t-101 -223.5q0 -81 45 -152.5t120 -116.5q-2 8 -2 26q0 55 45.5 93.5t111.5 38.5
q76 0 124 -54q37 -43 43 -123q89 40 142 118.5t53 169.5q0 131 -100 223.5t-239 92.5z" />
    <glyph glyph-name="R" unicode="R" horiz-adv-x="992" 
d="M962 149q4 0 4 -4v-31q0 -18 -7 -37.5t-22.5 -39.5t-46.5 -32.5t-73 -12.5q-31 0 -59 12t-45.5 29t-26 28t-11.5 18l-150 256h-282v-276h144l4 -5v-50q0 -4 -4 -4h-148h-52h-153q-4 0 -4 4v50l4 5h149v280v49v252h-149q-4 0 -4 5v51l4 4h625q74 0 127.5 -54.5
t53.5 -131.5q0 -73 -53.5 -126t-127.5 -53h-67l134 -225q1 -2 3.5 -6t11 -14.5t18.5 -18t25.5 -14t32.5 -6.5q36 0 61.5 15t28.5 48v31q0 4 4 4h51zM659 392q50 0 86 36t36 86q0 53 -35.5 89.5t-86.5 36.5h-39h-377v-248h416z" />
    <glyph glyph-name="S" unicode="S" horiz-adv-x="892" 
d="M434 400q9 -1 51 -6t63.5 -8t63.5 -11.5t67 -17t57.5 -24.5t50.5 -34.5t31 -46t13 -59.5q0 -24 -6 -48t-29.5 -56t-62 -55.5t-111 -40t-168.5 -16.5q-77 0 -140 10t-98.5 24.5t-60 28.5t-32.5 24l-8 10v-70q0 -4 -4 -4h-50l-4 4v209l4 4h50l4 -4q0 -51 36.5 -88.5
t93 -55.5t109 -26t100.5 -8q152 0 232.5 41t80.5 117q0 26 -12.5 46.5t-39 35.5t-53.5 25.5t-72.5 19t-77.5 13t-85 10.5q-167 18 -225 36q-130 47 -135 146q0 60 35 101.5t95 62t119 28.5t127 8q71 0 128.5 -9t89.5 -22t53.5 -26t28.5 -22l7 -9v59q0 4 4 4h51q3 0 3 -4
v-219l-3 -4h-51q-4 0 -4 4v21q0 80 -80.5 124.5t-226.5 44.5q-88 0 -153.5 -12t-110 -45t-44.5 -85q0 -16 6 -29t19 -23.5t27.5 -19t38.5 -15.5t43.5 -12t51.5 -10t54.5 -8t58.5 -8z" />
    <glyph glyph-name="T" unicode="T" horiz-adv-x="940" 
d="M870 696v-219q0 -4 -4 -4h-51q-4 0 -4 4v164h-321v-582h145l4 -4v-51l-4 -4h-149h-50h-152q-4 0 -4 4v51l4 4h148v582h-320v-164q0 -4 -4 -4h-51l-4 4v219q0 3 4 4h379h50h380z" />
    <glyph glyph-name="U" unicode="U" horiz-adv-x="1020" 
d="M980 700q4 0 4 -4v-51l-4 -4h-148v-321q0 -138 -59 -227q-83 -117 -263 -117q-183 0 -262 113q-63 86 -63 227v325h-148q-4 0 -4 4v51q0 4 4 4h152h52h148l4 -4v-51q0 -4 -4 -4h-145v-325q0 -137 66 -211q67 -70 200 -70q63 0 111 17.5t76.5 45t46 66.5t23.5 76.5t6 79.5
v321h-145l-4 4v51q0 4 4 4h149h51h152z" />
    <glyph glyph-name="V" unicode="V" horiz-adv-x="1100" 
d="M1037 700q4 0 4 -3v-52l-4 -4h-137l-318 -637q-2 -4 -6 -4h-47l-6 4l-333 637h-141q-4 0 -4 4v52q0 3 4 3h355q4 0 4 -4v-51l-4 -4h-147l296 -562l280 562h-150q-4 0 -4 4v52q0 3 4 3h354z" />
    <glyph glyph-name="W" unicode="W" horiz-adv-x="1715" 
d="M1677 700q4 0 4 -4v-51l-4 -4h-142l-312 -635q-3 -6 -10 -6h-44l-7 6l-303 580l-285 -580q-1 -3 -3 -4.5t-3 -1.5h-1h-46q-2 0 -4 1.5t-3 2.5l-1 2l-330 635h-146q-4 0 -4 4v51l4 4h353l4 -4v-51q0 -4 -4 -4h-140l290 -562l280 562h-138q-4 0 -4 4v51l4 4h354l4 -4v-51
l-4 -4h-138l295 -562l279 562h-149q-4 0 -4 4v51q0 4 4 4h354z" />
    <glyph glyph-name="X" unicode="X" horiz-adv-x="1045" 
d="M999 59q4 0 4 -4v-51l-4 -4h-354l-4 4v51q0 4 4 4h158l-287 260l-272 -260h149l4 -4v-51q0 -4 -4 -4h-353q-4 0 -4 4v51l4 4h117l315 298l-299 283h-129q-4 0 -4 4v52q0 4 4 4h353l4 -4v-52l-4 -4h-133l252 -239l263 239h-138q-4 0 -4 4v52q0 4 4 4h354q4 0 4 -4v-52
l-4 -4h-130l-306 -283l330 -298h110z" />
    <glyph glyph-name="Y" unicode="Y" horiz-adv-x="1021" 
d="M989 700q4 0 4 -4v-51l-4 -5h-134l-315 -340v-241h149q4 0 4 -5v-50l-4 -4h-353q-4 0 -4 4v50q0 5 4 5h145v241l-326 340h-126q-4 0 -4 5v51l4 4h353l4 -4v-51l-4 -5h-144l270 -287l265 287h-138q-5 0 -5 5v51q0 4 5 4h354z" />
    <glyph glyph-name="Z" unicode="Z" horiz-adv-x="934" 
d="M876 259l4 -4v-251q0 -4 -4 -4h-830q-4 0 -4 4v82l6 8l761 547h-684v-196q0 -4 -4 -4h-51q-4 0 -4 4v251q0 4 4 4h794l4 -4v-82l-4 -7l-763 -548h720v196l4 4h51z" />
    <glyph glyph-name="bracketleft" unicode="[" horiz-adv-x="287" 
d="M71 -141v902h165l4 -4v-52q0 -4 -4 -4h-105v-782h109l4 -4v-52q0 -4 -4 -4h-169z" />
    <glyph glyph-name="backslash" unicode="\" horiz-adv-x="531" 
d="M472 1h-54q-5 0 -8 6l-368 688q-3 6 6 6h48q7 0 9 -4l369 -690z" />
    <glyph glyph-name="bracketright" unicode="]" horiz-adv-x="311" 
d="M235 761l3 -902h-169q-4 0 -4 4v52q0 4 4 4h109l-3 782h-105q-4 0 -4 4v52q0 4 4 4h165z" />
    <glyph glyph-name="asciicircum" unicode="^" horiz-adv-x="416" 
d="M355 513v-79l-5 -2l-140 179l-1 1l-140 -180h-4q-1 2 -1 6v73q0 7 3 9l141 179q4 4 4 -1l138 -177z" />
    <glyph glyph-name="underscore" unicode="_" horiz-adv-x="628" 
d="M44 -149h531q5 0 5 -6v-46l-5 -6h-531q-3 0 -4.5 1.5t-1.5 3.5v1v46q0 3 1.5 4.5t2.5 1.5h2z" />
    <glyph glyph-name="a" unicode="a" 
d="M768 56q3 0 3 -3v-49l-3 -4h-150h-49q-5 0 -5 4v49v35q-38 -51 -100 -79t-131 -28q-121 0 -206 77.5t-85 188.5q0 113 85 192.5t206 79.5q68 0 130 -29.5t101 -81.5v87l5 5h47q6 0 6 -6v-438h146zM333 38q95 0 163 62t68 147q0 89 -67.5 152.5t-163.5 63.5
q-97 0 -165.5 -63.5t-68.5 -152.5q0 -85 68.5 -147t165.5 -62z" />
    <glyph glyph-name="b" unicode="b" horiz-adv-x="799" 
d="M462 515q120 0 204 -79t84 -190t-84 -188t-204 -77q-69 0 -130 27.5t-100 78.5v-34v-50l-4 -3h-49h-148q-4 0 -4 3v49l4 4h144v648h-144l-4 4v49l4 4h148h49q4 0 4 -4v-49v-303q40 51 101 80.5t129 29.5zM462 38q96 0 163.5 61.5t67.5 146.5q0 88 -67.5 150t-163.5 62
t-163 -62t-67 -150q0 -85 67.5 -146.5t162.5 -61.5z" />
    <glyph glyph-name="c" unicode="c" horiz-adv-x="735" 
d="M651 500q4 0 4 -4v-164l-4 -4h-48l-8 5l-18 25q-34 48 -90.5 76t-119.5 28q-99 0 -169.5 -62.5t-70.5 -148.5q0 -89 70 -151.5t170 -62.5q65 0 122 29.5t88 77.5l26 37l6 2l42 -28q4 -2 0 -7l-23 -34q-40 -63 -110 -98.5t-151 -35.5q-123 0 -210 80t-87 191
q0 109 87.5 188.5t209.5 79.5q66 0 126.5 -24.5t103.5 -67.5v67q0 6 6 6h48z" />
    <glyph glyph-name="d" unicode="d" horiz-adv-x="766" 
d="M737 56l4 -3v-50q0 -3 -4 -3h-143h-49q-4 0 -4 3v50v34q-89 -106 -236 -106q-119 0 -203 77t-84 187q0 112 84 191t203 79q144 0 236 -110v299h-144l-4 3v50l4 3h147h50q4 0 4 -3v-701h139zM305 38q97 0 166.5 61.5t69.5 145.5q0 88 -69 150.5t-167 62.5
q-94 0 -162 -62.5t-68 -150.5q0 -84 68.5 -145.5t161.5 -61.5z" />
    <glyph glyph-name="e" unicode="e" horiz-adv-x="652" 
d="M313 519q120 0 205.5 -80t85.5 -192v-23q0 -3 -4 -3h-49h-470q10 -80 76.5 -131.5t155.5 -51.5q48 0 92 15t65 31l20 15l18 15q5 5 10 -1l28 -34q6 -3 0 -9l-14 -13q-96 -77 -219 -77q-120 0 -205 78t-85 189q0 112 85 192t205 80zM546 278q-11 78 -77.5 130.5
t-155.5 52.5q-88 0 -153 -52t-79 -131h465z" />
    <glyph glyph-name="f" unicode="f" horiz-adv-x="429" 
d="M393 760l3 -3v-49q0 -4 -4 -4h-22q-69 0 -104 -41.5t-35 -93.5v-7v-75h143q4 0 4 -4v-48l-4 -4h-143v-169v-206h143q4 0 4 -4v-48l-4 -4h-146h-49h-142q-4 0 -4 4v48q0 4 4 4h138v206v169h-138l-4 3v49q0 4 4 4h138v75v7q0 75 51.5 133t143.5 58h23z" />
    <glyph glyph-name="g" unicode="g" horiz-adv-x="708" 
d="M632 514v-251v0v-278v-12q0 -106 -85.5 -182.5t-205.5 -76.5q-134 0 -218 90l-16 16l-4 3l4 4l36 37h4v0l19 -21q70 -72 175 -72q97 0 165 60t68 142v12v110q-98 -114 -242 -114q-125 0 -214 82.5t-89 199.5q0 115 89 195t214 80q147 0 242 -109v85q0 4 0.5 4.5t4.5 0.5
h50h3v-5zM332 41q98 0 170 65t72 157q0 88 -72 152.5t-170 64.5q-101 0 -173 -64.5t-72 -152.5q0 -92 72 -157t173 -65z" />
    <glyph glyph-name="h" unicode="h" horiz-adv-x="912" 
d="M863 57q4 0 4 -4v-49l-4 -4h-148h-48h-145q-3 0 -3 4v49q0 4 3 4h141v196q0 60 -18.5 101.5t-51 62t-66 29t-73.5 8.5q-85 0 -146.5 -55.5t-61.5 -133.5v-23v-185h144q4 0 4 -4v-49l-4 -4h-148h-48h-143q-5 0 -5 5v48q0 4 4 4h139v185v23v438h-139l-4 4v48q0 5 6 5h142
h47q5 0 5 -6v-47v-291q84 95 208 95q128 0 196.5 -66.5t68.5 -191.5v-196h144z" />
    <glyph glyph-name="i" unicode="i" horiz-adv-x="472" 
d="M410 56l5 -4v-47q0 -5 -5 -5h-143h-50h-144q-5 0 -5 5v47q0 4 5 4h140v385h-140l-5 5v50q0 4 5 4h144h49q4 0 4 -4v-50v-390h140zM217 632l-4 5v89q0 6 6 6h47q4 0 4 -5v-90q0 -5 -5 -5h-48z" />
    <glyph glyph-name="j" unicode="j" horiz-adv-x="309" 
d="M241 733q3 0 3 -4v-91q0 -4 -4 -4h-49l-5 3v92q0 4 5 4h50zM241 500q3 0 3 -3v-50v-503q-7 -89 -65.5 -151.5t-162.5 -62.5h-28q-3 0 -3 3v49l3 5h28q83 0 126.5 50t43.5 122v363v122h-143l-5 4v49l5 3h148h50z" />
    <glyph glyph-name="k" unicode="k" horiz-adv-x="903" 
d="M864 57l4 -4v-49q0 -4 -4 -4h-341q-4 0 -4 4v49l4 4h126l-216 219l-197 -140v-79h144q4 0 4 -4v-49l-4 -4h-340q-4 0 -4 4v49q0 4 4 4h139v646h-139l-4 4v48q0 5 5 5h192q3 0 3 -4v-23v-26v-503l324 239h-132q-4 0 -4 4v48q1 4 4 4h340l3 -4v-47q0 -5 -4 -5h-109
l-179 -133l248 -253h137z" />
    <glyph glyph-name="l" unicode="l" horiz-adv-x="407" 
d="M374 57q4 0 4 -4v-49l-4 -4h-148h-50h-142q-5 0 -5 5v48q0 4 4 4h139v646h-139l-4 4v49q0 4 4 4h143h49q4 0 4 -4v-49v-650h145z" />
    <glyph glyph-name="m" unicode="m" horiz-adv-x="1380" 
d="M1310 58q4 0 4 -4v-50l-4 -4h-148h-50h-146q-4 0 -4 4v50q0 4 4 4h142v209q0 191 -198 191q-84 0 -144 -52t-60 -127v-12v-15v-194h145q5 0 5 -5v-49l-4 -4h-149h-49h-145q-5 0 -5 6v48q0 4 4 4h142v194v15q0 191 -200 191q-83 0 -142.5 -52t-59.5 -127v-27v-194h145
q5 0 5 -5v-49l-4 -4h-150h-49h-144q-5 0 -5 5v49q0 4 4 4h141v385h-141q-4 0 -4 4v49q0 4 4 4h145h48q5 0 5 -5v-48v-20q37 43 91 66t111 23q86 0 150 -35q56 -31 83 -88q34 58 94.5 90.5t132.5 32.5q122 0 188.5 -65.5t66.5 -183.5v-209h145z" />
    <glyph glyph-name="n" unicode="n" horiz-adv-x="904" 
d="M867 57q4 0 4 -4v-49l-4 -4h-149h-49h-145q-4 0 -4 4v49q0 4 4 4h141v199q0 60 -18.5 102t-51 62.5t-66.5 29t-74 8.5q-86 0 -148 -55.5t-62 -135.5v-23v-4v-183h145q4 0 4 -4v-49l-4 -4h-149h-49h-145q-4 0 -4 4v49q0 4 4 4h141v386h-141q-4 0 -4 3v50q0 4 4 4h145h49
q4 0 4 -4v-50v-26q84 95 210 95q129 0 198 -66.5t69 -192.5v-199h145z" />
    <glyph glyph-name="o" unicode="o" horiz-adv-x="666" 
d="M335 519q120 0 205.5 -80t85.5 -191q0 -112 -85 -190t-206 -78t-207.5 78.5t-86.5 189.5t87 191t207 80zM335 37q95 0 164.5 62.5t69.5 148.5q0 88 -69.5 151t-164.5 63q-97 0 -167 -63t-70 -151q0 -86 70 -148.5t167 -62.5z" />
    <glyph glyph-name="p" unicode="p" horiz-adv-x="802" 
d="M451 519q120 0 204.5 -79t84.5 -189q0 -112 -84.5 -191.5t-204.5 -79.5q-68 0 -130.5 29.5t-105.5 80.5v-301h144q5 0 5 -3v-49l-5 -4h-148h-49h-143q-5 0 -5 4v48q0 4 4 4h141v654h-141l-4 4v50q0 4 4 4h144h49l4 -5v-49v-38q43 51 105.5 80.5t130.5 29.5zM451 37
q94 0 163 63t69 151q0 87 -69 149.5t-163 62.5q-97 0 -166.5 -62.5t-69.5 -149.5q0 -88 69.5 -151t166.5 -63z" />
    <glyph glyph-name="q" unicode="q" horiz-adv-x="774" 
d="M758 -211l4 -4v-48l-4 -4h-144h-49h-149q-3 0 -3 4v49l3 3h145v300q-43 -51 -103.5 -80t-127.5 -29q-120 0 -206.5 79t-86.5 190t86.5 190.5t206.5 79.5q67 0 127.5 -29t103.5 -81v87q0 4 4 4h49q3 0 3 -4v-707h141zM330 36q94 0 162.5 62.5t68.5 150.5t-68.5 151
t-162.5 63q-97 0 -167 -63t-70 -151t70 -150.5t167 -62.5z" />
    <glyph glyph-name="r" unicode="r" horiz-adv-x="589" 
d="M551 483l2 -6l-23 -42q-4 -8 -10 -4q-48 27 -112 27q-72 0 -124 -45.5t-52 -110.5v-23v-4v-218h146q4 0 4 -4v-48l-5 -5h-149h-49h-145q-4 0 -4 4v49q0 4 4 4h141v386h-141q-4 0 -4 4v50q0 3 4 3h145h49l4 -4v-49v-4q73 73 176 73q70 0 143 -33z" />
    <glyph glyph-name="s" unicode="s" horiz-adv-x="636" 
d="M316 287q7 -1 22 -2q32 -3 49.5 -4.5t49 -6.5t49.5 -11.5t42 -17.5t36.5 -25.5t22 -36t9.5 -48.5q0 -47 -25.5 -79.5t-68.5 -48t-85 -21.5t-89 -6q-53 0 -96.5 7.5t-67 18.5t-39.5 22t-21 18l-5 8v-50q0 -4 -4 -4h-48l-4 4v176q0 3 3 3h50q3 0 3 -3q0 -66 70.5 -106
t158.5 -40q63 0 107.5 10.5t64.5 27.5t28 32.5t8 30.5q0 44 -53.5 63t-171.5 33q-4 1 -34.5 4t-43 4.5t-42 7.5t-44.5 11.5t-37.5 16.5t-33.5 23.5t-19.5 31.5t-8.5 41q0 68 69.5 108t198.5 40q86 0 126.5 -15.5t80.5 -49.5v42q0 4 6 4h48q4 0 4 -4v-168l-3 -3h-49
q-6 0 -6 3q0 40 -20.5 69t-54 43t-66 20t-66.5 6q-56 0 -97 -8.5t-61.5 -19t-32.5 -25.5t-14 -24t-2 -18q0 -36 51.5 -55t155.5 -29z" />
    <glyph glyph-name="t" unicode="t" horiz-adv-x="511" 
d="M487 61l1 -6q-75 -75 -156 -75q-79 0 -134 52t-55 124l-4 283h-110q-4 0 -4 4v52q0 5 4 5h110v197q0 4 4 4h54l4 -4v-197h194l5 -5v-52l-4 -4h-195l3 -276q0 -48 37 -85t91 -37q30 0 55 12.5t58 43.5q3 3 6 0z" />
    <glyph glyph-name="u" unicode="u" horiz-adv-x="905" 
d="M849 58q4 0 4 -4v-50q0 -4 -4 -4h-143h-50l-4 4v50v27q-80 -95 -211 -95q-125 0 -195.5 68t-70.5 189v201h-139l-4 4v48q0 4 4 4h143h50h147q4 0 4 -4v-49l-4 -3h-143v-201q0 -59 18.5 -101t50.5 -62.5t65.5 -29t73.5 -8.5q87 0 149 55t62 135v26v186h-143q-4 1 -4 4v48
l4 4h147h50h143l4 -4v-48l-4 -4h-140v-386h140z" />
    <glyph glyph-name="v" unicode="v" horiz-adv-x="866" 
d="M828 500q4 0 4 -4v-48l-4 -4h-136l-228 -440q-2 -4 -6 -4h-34l-6 4l-244 440h-139q-4 0 -4 4v48l4 4h327l4 -4v-48l-4 -4h-125l204 -365l188 365h-128l-4 4v48q0 4 4 4h327z" />
    <glyph glyph-name="w" unicode="w" horiz-adv-x="1294" 
d="M1254 500q4 0 4 -4v-49l-4 -4h-139l-244 -439q-2 -4 -5 -4h-39l-5 4l-188 402l-199 -402q-2 -4 -6 -4h-38l-5 4l-240 439h-128q-4 0 -4 4v49q0 4 4 4h326l4 -4v-49l-3 -4h-136l200 -364l180 364h-120q-4 0 -4 4v48q0 5 4 5h326l4 -4v-49l-4 -4h-116l169 -360l203 360
h-123l-4 4v49q0 4 3 4h327z" />
    <glyph glyph-name="x" unicode="x" horiz-adv-x="833" 
d="M796 58q4 0 4 -4v-50l-4 -4h-328q-4 0 -4 4v50l4 4h138l-194 160l-187 -160h121q4 0 4 -4v-50l-4 -4h-316q-4 0 -4 4v50l4 4h106l230 197l-218 187h-106q-4 0 -4 4v50q0 4 3 4h305l4 -4v-50l-4 -4h-110l176 -149l167 149h-119q-3 0 -3 4v50q0 4 4 4h316q4 0 4 -4v-50
l-4 -4h-110l-210 -187l237 -197h102z" />
    <glyph glyph-name="y" unicode="y" horiz-adv-x="866" 
d="M825 500q4 0 4 -4v-48l-4 -4h-136l-219 -423q-11 -23 -23.5 -46.5t-44.5 -71t-65.5 -82t-82 -61.5t-96.5 -27h-42q-4 0 -4 5v46l5 5h43q37 0 75 23t71 61t56.5 72.5t44.5 72.5l-236 426h-139q-4 0 -4 4v48l4 4h327l4 -4v-48l-4 -4h-125l204 -365l188 365h-128l-4 4v48
q0 4 4 4h327z" />
    <glyph glyph-name="z" unicode="z" horiz-adv-x="698" 
d="M643 195q4 0 4 -5v-186l-4 -4h-591q-4 0 -4 4v62l4 6l511 370h-439v-137q0 -4 -4 -4h-49l-4 4v191q0 4 4 4h560l4 -4v-69l-3 -6l-508 -364h466v133l4 5h49z" />
    <glyph glyph-name="braceleft" unicode="{" horiz-adv-x="303" 
d="M265 703q-47 -1 -64.5 -21t-17.5 -80q0 -22 -1 -85.5t-1 -83.5q0 -31 -1 -46t-6 -33t-16 -27.5t-30 -16.5v-2q19 -7 30 -16.5t15.5 -27.5t5.5 -32.5t1 -45.5q0 -21 -1 -85t-1 -84q0 -61 20 -81.5t69 -21.5q4 0 4 -5v-45q0 -5 -5 -5q-42 0 -67 5.5t-45.5 22.5t-29 50.5
t-8.5 87.5q0 27 0.5 78t0.5 78q0 51 -8.5 74.5t-34.5 23.5h-12l-6 5v51l5 5h13q26 0 34.5 23t8.5 74l2 189q0 70 32 101t113 32q7 0 7 -5v-47q0 -4 -6 -4z" />
    <glyph glyph-name="bar" unicode="|" horiz-adv-x="188" 
d="M66 -128v884q0 5 6 5h46l6 -5v-884q0 -3 -1.5 -4.5t-2.5 -1.5h-2h-46q-3 0 -4.5 1.5t-1.5 2.5v2z" />
    <glyph glyph-name="braceright" unicode="}" horiz-adv-x="321" 
d="M62 703l-6 4v47q0 5 7 5q81 -1 113 -32t32 -101l2 -189q0 -51 8.5 -74t34.5 -23h13q5 0 5 -5v-51q0 -5 -6 -5h-12q-26 0 -34.5 -23.5t-8.5 -74.5q0 -27 0.5 -78t0.5 -78q0 -54 -8.5 -87.5t-29 -50.5t-45.5 -22.5t-67 -5.5q-5 0 -5 5v45q0 5 4 5q49 1 69 21.5t20 81.5
q0 20 -1 84t-1 85q0 31 1 45.5t5.5 32.5t15.5 27.5t30 16.5v2q-19 7 -30 16.5t-16 27.5t-6 33t-1 46q0 20 -1 83.5t-1 85.5q0 60 -17.5 80t-64.5 21z" />
    <glyph glyph-name="asciitilde" unicode="~" horiz-adv-x="496" 
d="M121 244l-47 26l-3 7q21 40 44.5 57.5t64.5 17.5q39 0 79 -27t59 -27q25 0 57 46q4 4 7 1l40 -29q3 -2 0 -8q-19 -24 -28.5 -34.5t-30 -21.5t-44.5 -11q-38 0 -76 27.5t-60 27.5q-32 0 -56 -50z" />
    <glyph glyph-name="exclamdown" unicode="&#xa1;" horiz-adv-x="148" 
d="M101 606h-53q-6 0 -6 6v83q0 6 6 6h53q5 0 5 -6v-83zM101 0h-53q-6 0 -6 6v477q0 6 6 6h53q5 0 5 -6v-477z" />
    <glyph glyph-name="cent" unicode="&#xa2;" horiz-adv-x="735" 
d="M338 -120v102q-113 10 -190.5 87.5t-77.5 181.5q0 102 77.5 179t190.5 87v105q0 5 6 5h46l6 -5v-104q121 -11 201 -91v67q0 6 6 6h48q4 0 4 -4v-164l-4 -4h-48l-8 5l-18 25q-30 42 -78 69t-103 33v-422q57 7 105 35t76 71l26 37l6 2l42 -28q4 -2 0 -7l-23 -34
q-36 -57 -97.5 -91.5t-134.5 -40.5v-102q0 -3 -1.5 -4.5t-2.5 -1.5h-2h-46q-3 0 -4.5 1.5t-1.5 2.5v2zM127 251q0 -82 60.5 -142.5t150.5 -70.5v422q-89 -10 -150 -70t-61 -139z" />
    <glyph glyph-name="sterling" unicode="&#xa3;" horiz-adv-x="659" 
d="M564 700v-112l-3 -3h-50q-3 0 -3 2v79q-17 21 -108 21q-134 0 -138 -141v-188h131q5 0 5 -6v-46l-5 -6h-131v-241h270v110q0 3 3 4h51q4 0 4 -4v-165q0 -3 -4 -4h-533q-4 0 -4 4v51q0 4 4 4h149v241h-126q-3 0 -4.5 1.5t-1.5 2.5v2v46q0 3 1.5 4.5t2.5 1.5h2h126v194
q0 87 57 139t151 52q40 0 78.5 -10.5t57.5 -21.5z" />
    <glyph glyph-name="copyright" unicode="&#xa9;" horiz-adv-x="722" 
d="M356 637q124 0 212 -87.5t88 -212.5t-88 -212.5t-212 -87.5q-125 0 -213 88t-88 212t88 212t213 88zM356 89q101 0 172 72t71 176q0 103 -71 175.5t-172 72.5t-172.5 -72.5t-71.5 -175.5q0 -104 71 -176t173 -72zM445 285h67q-10 -60 -51.5 -94.5t-101.5 -34.5
q-74 0 -118.5 49.5t-44.5 132.5t46 132t123 49q57 0 96.5 -33t47.5 -92h-66q-12 68 -80 68q-48 0 -77 -34.5t-29 -89.5q0 -57 29 -91t78 -34q32 0 55 18.5t26 53.5z" />
    <glyph glyph-name="guillemotleft" unicode="&#xab;" horiz-adv-x="602" 
d="M460 445h79l2 -5l-179 -140l-1 -1l180 -140v-4q-2 -1 -6 -1h-73q-7 0 -9 3l-179 141q-4 4 1 4l177 138zM228 445h79l2 -5l-179 -140l-1 -1l180 -140v-4q-2 -1 -6 -1h-73q-7 0 -9 3l-179 141q-4 4 1 4l177 138z" />
    <glyph glyph-name="logicalnot" unicode="&#xac;" horiz-adv-x="833" 
 />
    <glyph glyph-name="registered" unicode="&#xae;" horiz-adv-x="711" 
d="M352 640q125 0 213 -88t88 -212q0 -125 -88 -213t-213 -88t-213 88t-88 213t88 212.5t213 87.5zM352 91q101 0 172.5 72.5t71.5 176.5q0 103 -71.5 175.5t-172.5 72.5t-173 -72.5t-72 -175.5q0 -104 71.5 -176.5t173.5 -72.5zM224 512h132q128 0 128 -99q0 -82 -88 -98
l93 -148h-65l-90 145h-54v-145h-56v345zM280 364h76q72 0 72 51q0 45 -72 45h-76v-96z" />
    <glyph glyph-name="guillemotright" unicode="&#xbb;" horiz-adv-x="598" 
d="M45 445h79q5 0 8 -5l177 -138q5 0 1 -4l-179 -141l-9 -3h-73q-7 1 -6 5l180 140l-1 1l-179 140zM277 445h79q5 0 8 -5l177 -138q5 0 1 -4l-179 -141l-9 -3h-73q-7 1 -6 5l180 140l-1 1l-179 140z" />
    <glyph glyph-name="onequarter" unicode="&#xbc;" horiz-adv-x="632" 
 />
    <glyph glyph-name="onehalf" unicode="&#xbd;" horiz-adv-x="692" 
 />
    <glyph glyph-name="questiondown" unicode="&#xbf;" horiz-adv-x="632" 
d="M348 604h-53q-6 0 -6 6v83q0 6 6 6h53q5 0 5 -6v-83zM288 481q0 6 6 6h53q5 0 5 -6q0 -48 13 -83t33.5 -55t45.5 -36t50 -30t45.5 -31.5t33.5 -46.5t13 -70q0 -68 -69.5 -108t-198.5 -40q-128 0 -196.5 50.5t-68.5 137.5l3 6h49q6 0 6 -5q0 -40 20.5 -68.5t54 -42
t66 -19.5t66.5 -6q56 0 97 8t61.5 19t32.5 28t14 28.5t2 26.5q0 29 -17.5 51t-44 35t-57 33t-57 43.5t-44 68.5t-17.5 106z" />
    <glyph glyph-name="Agrave" unicode="&#xc0;" horiz-adv-x="1094" 
d="M416 850h79q5 0 8 -6l57 -93l-5 -6h-48q-3 0 -5.5 1.5t-3.5 3.5l-1 1l-87 93q-2 3 -0.5 4.5t4.5 1.5h2zM1037 59l3 -4v-51q0 -4 -3 -4h-354q-5 0 -5 4v51q0 4 5 4h145l-91 173h-397l-87 -173h150l4 -4v-51l-4 -4h-354q-4 0 -4 4v51q0 4 4 4h138l318 637l5 4h45q3 0 5 -4
l335 -637h142zM706 291l-173 331l-166 -331h339z" />
    <glyph glyph-name="Aacute" unicode="&#xc1;" horiz-adv-x="1094" 
d="M578 850h79l7 -2q1 -1 -1 -4l-87 -93q-4 -6 -10 -6h-48l-5 6l57 93q1 3 3 4.5t3 1.5h2zM1037 59l3 -4v-51q0 -4 -3 -4h-354q-5 0 -5 4v51q0 4 5 4h145l-91 173h-397l-87 -173h150l4 -4v-51l-4 -4h-354q-4 0 -4 4v51q0 4 4 4h138l318 637l5 4h45q3 0 5 -4l335 -637h142z
M706 291l-173 331l-166 -331h339z" />
    <glyph glyph-name="Atilde" unicode="&#xc3;" horiz-adv-x="1094" 
d="M1037 59l3 -4v-51q0 -4 -3 -4h-354q-5 0 -5 4v51q0 4 5 4h145l-91 173h-397l-87 -173h150l4 -4v-51l-4 -4h-354q-4 0 -4 4v51q0 4 4 4h138l318 637l5 4h45q3 0 5 -4l335 -637h142zM706 291l-173 331l-166 -331h339zM415 792l-47 26l-3 7q21 40 44.5 57.5t64.5 17.5
q39 0 79 -27t59 -27q25 0 57 46q4 4 7 1l40 -29q3 -2 0 -8q-19 -24 -28.5 -34.5t-30 -21.5t-44.5 -11q-38 0 -76 27.5t-60 27.5q-32 0 -56 -50z" />
    <glyph glyph-name="Adieresis" unicode="&#xc4;" horiz-adv-x="1094" 
d="M413 792q0 16 11.5 28t28.5 12t29 -12t12 -28t-12 -28.5t-29 -12.5q-16 0 -28 12t-12 29zM564 792q0 16 12 28t28 12q17 0 29 -12t12 -28t-12.5 -28.5t-28.5 -12.5t-28 12t-12 29zM1037 59l3 -4v-51q0 -4 -3 -4h-354q-5 0 -5 4v51q0 4 5 4h145l-91 173h-397l-87 -173h150
l4 -4v-51l-4 -4h-354q-4 0 -4 4v51q0 4 4 4h138l318 637l5 4h45q3 0 5 -4l335 -637h142zM706 291l-173 331l-166 -331h339z" />
    <glyph glyph-name="Aring" unicode="&#xc5;" horiz-adv-x="1094" 
d="M895 59h142l3 -4v-51q0 -4 -3 -4h-354q-5 0 -5 4v51q0 4 5 4h145l-91 173h-397l-87 -173h150l4 -4v-51l-4 -4h-354q-4 0 -4 4v51q0 4 4 4h138l299 598q-50 27 -50 85q0 40 28 68t68 28t68 -28t28 -68q0 -55 -49 -84zM367 291h339l-173 331zM492 741q0 -15 9 -26.5
t23 -14.5h20q14 3 23.5 14t9.5 27q0 18 -12.5 30t-30.5 12q-17 0 -29.5 -12t-12.5 -30z" />
    <glyph glyph-name="AE" unicode="&#xc6;" horiz-adv-x="1424" 
d="M1332 236q3 0 4 -4v-228q0 -4 -4 -4h-834q-4 0 -4 4v51q0 4 4 4h145v173h-303l-87 -173h150l4 -4v-51l-4 -4h-354q-4 0 -4 4v51q0 4 4 4h138l318 637l5 4h25h2h795l4 -3v-221q0 -4 -4 -4h-51l-3 4v165h-575v-259h326v94l4 4h52q4 0 4 -4v-251q0 -4 -4 -4h-52l-4 4v98
h-326v-264h575v174l3 3h51zM643 641h-101l-175 -350h276v350z" />
    <glyph glyph-name="Ccedilla" unicode="&#xc7;" horiz-adv-x="915" 
d="M797 698h51q4 0 4 -4v-220l-4 -4h-51q-6 0 -8 3l-27 41q-50 71 -132 111.5t-178 40.5q-149 0 -253.5 -92.5t-104.5 -224.5q0 -131 104.5 -223.5t253.5 -92.5q98 0 183 42t132 114l28 42l1 1q2 2 3.5 2.5t4.5 -0.5l38 -25q2 -1 2.5 -3t-0.5 -4v-1l-28 -43
q-56 -82 -147.5 -130t-198.5 -53v-43q74 0 74 -74q0 -40 -31.5 -62t-76.5 -22q-49 0 -83 14q-4 0 -4 5l6 41q0 3 0.5 3h2.5q34 -14 71 -14q59 0 59 35q0 39 -47 39q-9 0 -23 -4h-2.5t-0.5 3v80h-1q-160 13 -269.5 120t-109.5 253q0 156 122.5 266t294.5 110q108 0 197 -43
q78 -38 144 -109v121q0 4 4 4z" />
    <glyph glyph-name="Egrave" unicode="&#xc8;" horiz-adv-x="992" 
d="M442 850h79q5 0 8 -6l57 -93l-5 -6h-48q-3 0 -5.5 1.5t-3.5 3.5l-1 1l-87 93q-2 3 -0.5 4.5t4.5 1.5h2zM900 236q3 0 4 -4v-228q0 -4 -4 -4h-633h-52h-149q-4 0 -4 4v51q0 4 4 4h145v582h-145q-4 0 -4 4v52q0 3 4 3h149h52h633l4 -3v-221q0 -4 -4 -4h-51l-3 4v165h-575
v-259h326v94l4 4h52q4 0 4 -4v-251q0 -4 -4 -4h-52l-4 4v98h-326v-264h575v174l3 3h51z" />
    <glyph glyph-name="Eacute" unicode="&#xc9;" horiz-adv-x="992" 
d="M550 850h79l7 -2q1 -1 -1 -4l-87 -93q-4 -6 -10 -6h-48l-5 6l57 93q1 3 3 4.5t3 1.5h2zM900 236q3 0 4 -4v-228q0 -4 -4 -4h-633h-52h-149q-4 0 -4 4v51q0 4 4 4h145v582h-145q-4 0 -4 4v52q0 3 4 3h149h52h633l4 -3v-221q0 -4 -4 -4h-51l-3 4v165h-575v-259h326v94l4 4
h52q4 0 4 -4v-251q0 -4 -4 -4h-52l-4 4v98h-326v-264h575v174l3 3h51z" />
    <glyph glyph-name="Ecircumflex" unicode="&#xca;" horiz-adv-x="992" 
d="M900 236q3 0 4 -4v-228q0 -4 -4 -4h-633h-52h-149q-4 0 -4 4v51q0 4 4 4h145v582h-145q-4 0 -4 4v52q0 3 4 3h149h52h633l4 -3v-221q0 -4 -4 -4h-51l-3 4v165h-575v-259h326v94l4 4h52q4 0 4 -4v-251q0 -4 -4 -4h-52l-4 4v98h-326v-264h575v174l3 3h51z" />
    <glyph glyph-name="Edieresis" unicode="&#xcb;" horiz-adv-x="992" 
d="M340 792q0 16 12 28t28 12q17 0 29 -12t12 -28t-12.5 -28.5t-28.5 -12.5t-28 12t-12 29zM577 792q0 16 11.5 28t28.5 12t29 -12t12 -28t-12 -28.5t-29 -12.5q-16 0 -28 12t-12 29zM900 236q3 0 4 -4v-228q0 -4 -4 -4h-633h-52h-149q-4 0 -4 4v51q0 4 4 4h145v582h-145
q-4 0 -4 4v52q0 3 4 3h149h52h633l4 -3v-221q0 -4 -4 -4h-51l-3 4v165h-575v-259h326v94l4 4h52q4 0 4 -4v-251q0 -4 -4 -4h-52l-4 4v98h-326v-264h575v174l3 3h51z" />
    <glyph glyph-name="Igrave" unicode="&#xcc;" horiz-adv-x="443" 
d="M113 850h79q5 0 8 -6l57 -93l-5 -6h-48q-3 0 -5.5 1.5t-3.5 3.5l-1 1l-87 93q-2 3 -0.5 4.5t3.5 1.5h3zM400 640h-145v-581h145l4 -4v-51q0 -4 -4 -4h-149h-51h-153q-4 0 -4 4v51l4 4h149v581h-149q-4 0 -4 4v52q0 4 4 4h153h51h149l4 -4v-52q0 -4 -4 -4z" />
    <glyph glyph-name="Iacute" unicode="&#xcd;" horiz-adv-x="443" 
d="M263 850h79l7 -2q1 -1 -1 -4l-87 -93q-4 -6 -10 -6h-48l-5 6l57 93q1 3 3 4.5t4 1.5h1zM400 640h-145v-581h145l4 -4v-51q0 -4 -4 -4h-149h-51h-153q-4 0 -4 4v51l4 4h149v581h-149q-4 0 -4 4v52q0 4 4 4h153h51h149l4 -4v-52q0 -4 -4 -4z" />
    <glyph glyph-name="Idieresis" unicode="&#xcf;" horiz-adv-x="443" 
d="M110 792q0 16 12 28t28 12q17 0 29 -12t12 -28t-12.5 -28.5t-28.5 -12.5t-28 12t-12 29zM261 792q0 16 11.5 28t28.5 12t29 -12t12 -28t-12 -28.5t-29 -12.5q-16 0 -28 12t-12 29zM400 640h-145v-581h145l4 -4v-51q0 -4 -4 -4h-149h-51h-153q-4 0 -4 4v51l4 4h149v581
h-149q-4 0 -4 4v52q0 4 4 4h153h51h149l4 -4v-52q0 -4 -4 -4z" />
    <glyph glyph-name="Ntilde" unicode="&#xd1;" horiz-adv-x="1112" 
d="M367 787l-3 7q21 40 44.5 57.5t64.5 17.5q39 0 79 -26t59 -26q26 0 57 44q4 4 7 1l40 -29q3 -2 0 -8q-19 -24 -28.5 -34.5t-30 -21.5t-44.5 -11q-38 0 -76 26.5t-60 26.5q-33 0 -56 -48l-6 -2zM1050 700l4 -4v-51l-4 -4h-145v-637l-4 -4h-83q-3 0 -8 5l-543 632v-578h150
q4 0 4 -4v-51l-4 -4h-154h-51h-149q-4 0 -4 4v51q0 4 4 4h145v582h-145q-4 0 -4 4v51q0 4 4 4h149h51h20q8 0 12 -4l551 -637v582h-150q-4 0 -4 4v51l4 4h153h52h149z" />
    <glyph glyph-name="Ograve" unicode="&#xd2;" horiz-adv-x="873" 
d="M343 866h79q5 0 8 -6l57 -93l-5 -6h-48q-3 0 -5.5 1.5t-3.5 3.5l-1 1l-87 93q-2 3 -0.5 4.5t3.5 1.5h3zM440 726q162 0 279.5 -110.5t117.5 -263.5q0 -156 -117 -265.5t-280 -109.5q-166 0 -284 109t-118 266q0 153 118.5 263.5t283.5 110.5zM440 35q140 0 240 93
t100 224q0 130 -100 223t-240 93q-143 0 -243.5 -92.5t-100.5 -223.5t100.5 -224t243.5 -93z" />
    <glyph glyph-name="Oacute" unicode="&#xd3;" horiz-adv-x="873" 
d="M451 866h79l7 -2q1 -1 -1 -4l-87 -93q-4 -6 -10 -6h-48l-5 6l57 93q1 3 3 4.5t4 1.5h1zM440 726q162 0 279.5 -110.5t117.5 -263.5q0 -156 -117 -265.5t-280 -109.5q-166 0 -284 109t-118 266q0 153 118.5 263.5t283.5 110.5zM440 35q140 0 240 93t100 224
q0 130 -100 223t-240 93q-143 0 -243.5 -92.5t-100.5 -223.5t100.5 -224t243.5 -93z" />
    <glyph glyph-name="Otilde" unicode="&#xd5;" horiz-adv-x="873" 
d="M319 761l-47 26l-3 7q21 40 44.5 57.5t64.5 17.5q39 0 79 -26t59 -26q26 0 57 44q4 4 7 1l40 -29q3 -2 0 -8q-19 -24 -28.5 -34.5t-30 -21.5t-44.5 -11q-38 0 -76 26.5t-60 26.5q-33 0 -56 -48zM440 726q162 0 279.5 -110.5t117.5 -263.5q0 -156 -117 -265.5t-280 -109.5
q-166 0 -284 109t-118 266q0 153 118.5 263.5t283.5 110.5zM440 35q140 0 240 93t100 224q0 130 -100 223t-240 93q-143 0 -243.5 -92.5t-100.5 -223.5t100.5 -224t243.5 -93z" />
    <glyph glyph-name="Odieresis" unicode="&#xd6;" horiz-adv-x="873" 
d="M277 792q0 16 11.5 28t28.5 12t29 -12t12 -28t-12 -28.5t-29 -12.5q-16 0 -28 12t-12 29zM514 792q0 16 12 28t28 12q17 0 29 -12t12 -28t-12.5 -28.5t-28.5 -12.5t-28 12t-12 29zM440 726q162 0 279.5 -110.5t117.5 -263.5q0 -156 -117 -265.5t-280 -109.5
q-166 0 -284 109t-118 266q0 153 118.5 263.5t283.5 110.5zM440 35q140 0 240 93t100 224q0 130 -100 223t-240 93q-143 0 -243.5 -92.5t-100.5 -223.5t100.5 -224t243.5 -93z" />
    <glyph glyph-name="Oslash" unicode="&#xd8;" horiz-adv-x="873" 
d="M440 726q79 0 149 -29l20 37q1 3 3 4.5t4 1.5h1h54l2 -6l-33 -61q90 -51 143.5 -136.5t53.5 -184.5q0 -156 -117 -265.5t-280 -109.5q-78 0 -155 29l-23 -43l-9 -4h-48q-4 0 -5.5 1.5t-1.5 3.5l1 1l34 65q-89 50 -142 135t-53 187q0 153 118.5 263.5t283.5 110.5zM440 35
q140 0 240 93t100 224q0 85 -45 156.5t-121 114.5l-302 -566q63 -22 128 -22zM440 668q-143 0 -243.5 -92.5t-100.5 -223.5q0 -85 44.5 -156.5t120.5 -114.5l301 565q-60 22 -122 22z" />
    <glyph glyph-name="Ugrave" unicode="&#xd9;" horiz-adv-x="1020" 
d="M396 850h79q5 0 8 -6l57 -93l-5 -6h-48q-3 0 -5.5 1.5t-3.5 3.5l-1 1l-87 93q-2 3 -0.5 4.5t4.5 1.5h2zM980 700q4 0 4 -4v-51l-4 -4h-148v-321q0 -138 -59 -227q-83 -117 -263 -117q-183 0 -262 113q-63 86 -63 227v325h-148q-4 0 -4 4v51q0 4 4 4h152h52h148l4 -4v-51
q0 -4 -4 -4h-145v-325q0 -137 66 -211q67 -70 200 -70q63 0 111 17.5t76.5 45t46 66.5t23.5 76.5t6 79.5v321h-145l-4 4v51q0 4 4 4h149h51h152z" />
    <glyph glyph-name="Uacute" unicode="&#xda;" horiz-adv-x="1020" 
d="M539 866h79l7 -2q1 -1 -1 -4l-87 -93q-4 -6 -10 -6h-48l-5 6l57 93q1 3 3 4.5t4 1.5h1zM980 700q4 0 4 -4v-51l-4 -4h-148v-321q0 -138 -59 -227q-83 -117 -263 -117q-183 0 -262 113q-63 86 -63 227v325h-148q-4 0 -4 4v51q0 4 4 4h152h52h148l4 -4v-51q0 -4 -4 -4h-145
v-325q0 -137 66 -211q67 -70 200 -70q63 0 111 17.5t76.5 45t46 66.5t23.5 76.5t6 79.5v321h-145l-4 4v51q0 4 4 4h149h51h152z" />
    <glyph glyph-name="Udieresis" unicode="&#xdc;" horiz-adv-x="1020" 
d="M348 792q0 16 12 28t28 12q17 0 29 -12t12 -28t-12.5 -28.5t-28.5 -12.5t-28 12t-12 29zM585 792q0 16 11.5 28t28.5 12t29 -12t12 -28t-12 -28.5t-29 -12.5q-16 0 -28 12t-12 29zM980 700q4 0 4 -4v-51l-4 -4h-148v-321q0 -138 -59 -227q-83 -117 -263 -117
q-183 0 -262 113q-63 86 -63 227v325h-148q-4 0 -4 4v51q0 4 4 4h152h52h148l4 -4v-51q0 -4 -4 -4h-145v-325q0 -137 66 -211q67 -70 200 -70q63 0 111 17.5t76.5 45t46 66.5t23.5 76.5t6 79.5v321h-145l-4 4v51q0 4 4 4h149h51h152z" />
    <glyph glyph-name="Yacute" unicode="&#xdd;" horiz-adv-x="1021" 
d="M543 866h79l7 -2q1 -1 -1 -4l-87 -93q-4 -6 -10 -6h-48l-5 6l57 93q1 3 3 4.5t4 1.5h1zM989 700q4 0 4 -4v-51l-4 -5h-134l-315 -340v-241h149q4 0 4 -5v-50l-4 -4h-353q-4 0 -4 4v50q0 5 4 5h145v241l-326 340h-126q-4 0 -4 5v51l4 4h353l4 -4v-51l-4 -5h-144l270 -287
l265 287h-138q-5 0 -5 5v51q0 4 5 4h354z" />
    <glyph glyph-name="agrave" unicode="&#xe0;" 
d="M262 698h79q5 0 8 -6l57 -93l-5 -6h-48q-3 0 -5.5 1.5t-3.5 3.5l-1 1l-87 93q-2 3 -0.5 4.5t4.5 1.5h2zM768 56q3 0 3 -3v-49l-3 -4h-150h-49q-5 0 -5 4v49v35q-38 -51 -100 -79t-131 -28q-121 0 -206 77.5t-85 188.5q0 113 85 192.5t206 79.5q68 0 130 -29.5t101 -81.5
v87l5 5h47q6 0 6 -6v-438h146zM333 38q95 0 163 62t68 147q0 89 -67.5 152.5t-163.5 63.5q-97 0 -165.5 -63.5t-68.5 -152.5q0 -85 68.5 -147t165.5 -62z" />
    <glyph glyph-name="aacute" unicode="&#xe1;" 
d="M365 698h79l7 -2q1 -1 -1 -4l-87 -93q-4 -6 -10 -6h-48l-5 6l57 93q1 3 3 4.5t4 1.5h1zM768 56q3 0 3 -3v-49l-3 -4h-150h-49q-5 0 -5 4v49v35q-38 -51 -100 -79t-131 -28q-121 0 -206 77.5t-85 188.5q0 113 85 192.5t206 79.5q68 0 130 -29.5t101 -81.5v87l5 5h47
q6 0 6 -6v-438h146zM333 38q95 0 163 62t68 147q0 89 -67.5 152.5t-163.5 63.5q-97 0 -165.5 -63.5t-68.5 -152.5q0 -85 68.5 -147t165.5 -62z" />
    <glyph glyph-name="acircumflex" unicode="&#xe2;" 
d="M471 626v-60l-5 -2l-141 110l-140 -110h-4q-1 2 -1 6v54q0 7 3 9l140 108q3 3 5 0l138 -107zM768 56q3 0 3 -3v-49l-3 -4h-150h-49q-5 0 -5 4v49v35q-38 -51 -100 -79t-131 -28q-121 0 -206 77.5t-85 188.5q0 113 85 192.5t206 79.5q68 0 130 -29.5t101 -81.5v87l5 5h47
q6 0 6 -6v-438h146zM333 38q95 0 163 62t68 147q0 89 -67.5 152.5t-163.5 63.5q-97 0 -165.5 -63.5t-68.5 -152.5q0 -85 68.5 -147t165.5 -62z" />
    <glyph glyph-name="atilde" unicode="&#xe3;" 
d="M210 592l-47 26l-3 7q21 40 44.5 57.5t64.5 17.5q39 0 79 -27t59 -27q25 0 57 46q4 4 7 1l40 -29q3 -2 0 -8q-19 -24 -28.5 -34.5t-30 -21.5t-44.5 -11q-38 0 -76 27.5t-60 27.5q-32 0 -56 -50zM768 56q3 0 3 -3v-49l-3 -4h-150h-49q-5 0 -5 4v49v35q-38 -51 -100 -79
t-131 -28q-121 0 -206 77.5t-85 188.5q0 113 85 192.5t206 79.5q68 0 130 -29.5t101 -81.5v87l5 5h47q6 0 6 -6v-438h146zM333 38q95 0 163 62t68 147q0 89 -67.5 152.5t-163.5 63.5q-97 0 -165.5 -63.5t-68.5 -152.5q0 -85 68.5 -147t165.5 -62z" />
    <glyph glyph-name="adieresis" unicode="&#xe4;" 
d="M219 623q0 17 11.5 28.5t28.5 11.5t29 -12t12 -28q0 -17 -12 -29t-29 -12q-16 0 -28 12t-12 29zM370 623q0 17 12 28.5t28 11.5q17 0 29 -12t12 -28q0 -17 -12.5 -29t-28.5 -12t-28 12t-12 29zM768 56q3 0 3 -3v-49l-3 -4h-150h-49q-5 0 -5 4v49v35q-38 -51 -100 -79
t-131 -28q-121 0 -206 77.5t-85 188.5q0 113 85 192.5t206 79.5q68 0 130 -29.5t101 -81.5v87l5 5h47q6 0 6 -6v-438h146zM333 38q95 0 163 62t68 147q0 89 -67.5 152.5t-163.5 63.5q-97 0 -165.5 -63.5t-68.5 -152.5q0 -85 68.5 -147t165.5 -62z" />
    <glyph glyph-name="aring" unicode="&#xe5;" 
d="M234 663q0 40 28 68t68 28t68 -28t28 -68t-28 -68t-68 -28t-68 27.5t-28 68.5zM290 662q0 -18 12.5 -30t29.5 -12q18 0 30.5 12t12.5 30t-12.5 30t-30.5 12q-17 0 -29.5 -12t-12.5 -30zM768 56q3 0 3 -3v-49l-3 -4h-150h-49q-5 0 -5 4v49v35q-38 -51 -100 -79t-131 -28
q-121 0 -206 77.5t-85 188.5q0 113 85 192.5t206 79.5q68 0 130 -29.5t101 -81.5v87l5 5h47q6 0 6 -6v-438h146zM333 38q95 0 163 62t68 147q0 89 -67.5 152.5t-163.5 63.5q-97 0 -165.5 -63.5t-68.5 -152.5q0 -85 68.5 -147t165.5 -62z" />
    <glyph glyph-name="ae" unicode="&#xe6;" horiz-adv-x="1193" 
d="M564 408v87q0 5 6 5h44l6 -5v-88q41 52 102.5 82t131.5 30q120 0 205.5 -80t85.5 -192v-23q0 -3 -4 -3h-519q10 -80 76.5 -131.5t155.5 -51.5q48 0 92 15t64 31l21 15l18 15q5 5 10 -1l28 -34q6 -3 0 -9l-14 -13q-96 -77 -219 -77q-71 0 -132 29t-102 80v-83
q0 -3 -1.5 -4.5t-2.5 -1.5h-2h-44q-3 0 -4.5 1.5t-1.5 2.5v2v82q-38 -51 -100 -79t-131 -28q-121 0 -206 77.5t-85 188.5q0 113 85 192.5t206 79.5q68 0 130 -29.5t101 -81.5zM333 38q95 0 163 62t68 147q0 89 -67.5 152.5t-163.5 63.5q-97 0 -165.5 -63.5t-68.5 -152.5
q0 -85 68.5 -147t165.5 -62zM1087 278q-11 78 -77.5 130.5t-155.5 52.5q-88 0 -153 -52t-79 -131h465z" />
    <glyph glyph-name="ccedilla" unicode="&#xe7;" horiz-adv-x="735" 
d="M603 500h48q4 0 4 -4v-164l-4 -4h-48l-8 5l-18 25q-34 48 -90.5 76t-119.5 28q-99 0 -169.5 -62.5t-70.5 -148.5q0 -89 70 -151.5t170 -62.5q65 0 122 29.5t88 77.5l26 37l6 2l42 -28q4 -2 0 -7l-23 -34q-38 -59 -101.5 -93.5t-138.5 -39.5v-49q74 0 74 -74
q0 -40 -31.5 -62t-76.5 -22q-49 0 -83 14q-4 0 -4 5l6 41q0 3 0.5 3h2.5q34 -14 71 -14q59 0 59 35q0 39 -47 39q-9 0 -23 -4h-2.5t-0.5 3v86q-112 12 -187.5 89t-75.5 180q0 109 87.5 188.5t209.5 79.5q66 0 126.5 -24.5t103.5 -67.5v67q0 6 6 6z" />
    <glyph glyph-name="egrave" unicode="&#xe8;" horiz-adv-x="652" 
d="M228 698h79q5 0 8 -6l57 -93l-5 -6h-48q-3 0 -5.5 1.5t-3.5 3.5l-1 1l-87 93q-2 3 -0.5 4.5t4.5 1.5h2zM313 519q120 0 205.5 -80t85.5 -192v-23q0 -3 -4 -3h-49h-470q10 -80 76.5 -131.5t155.5 -51.5q48 0 92 15t65 31l20 15l18 15q5 5 10 -1l28 -34q6 -3 0 -9l-14 -13
q-96 -77 -219 -77q-120 0 -205 78t-85 189q0 112 85 192t205 80zM546 278q-11 78 -77.5 130.5t-155.5 52.5q-88 0 -153 -52t-79 -131h465z" />
    <glyph glyph-name="eacute" unicode="&#xe9;" horiz-adv-x="652" 
d="M365 698h79l7 -2q1 -1 -1 -4l-87 -93q-4 -6 -10 -6h-48l-5 6l57 93q1 3 3 4.5t4 1.5h1zM313 519q120 0 205.5 -80t85.5 -192v-23q0 -3 -4 -3h-49h-470q10 -80 76.5 -131.5t155.5 -51.5q48 0 92 15t65 31l20 15l18 15q5 5 10 -1l28 -34q6 -3 0 -9l-14 -13
q-96 -77 -219 -77q-120 0 -205 78t-85 189q0 112 85 192t205 80zM546 278q-11 78 -77.5 130.5t-155.5 52.5q-88 0 -153 -52t-79 -131h465z" />
    <glyph glyph-name="ecircumflex" unicode="&#xea;" horiz-adv-x="652" 
d="M453 626v-60l-5 -2l-141 110l-140 -110h-4q-1 2 -1 6v54q0 7 3 9l140 108q3 3 5 0l138 -107zM313 519q120 0 205.5 -80t85.5 -192v-23q0 -3 -4 -3h-49h-470q10 -80 76.5 -131.5t155.5 -51.5q48 0 92 15t65 31l20 15l18 15q5 5 10 -1l28 -34q6 -3 0 -9l-14 -13
q-96 -77 -219 -77q-120 0 -205 78t-85 189q0 112 85 192t205 80zM546 278q-11 78 -77.5 130.5t-155.5 52.5q-88 0 -153 -52t-79 -131h465z" />
    <glyph glyph-name="edieresis" unicode="&#xeb;" horiz-adv-x="652" 
d="M205 623q0 17 11.5 28.5t28.5 11.5t29 -12t12 -28q0 -17 -12 -29t-29 -12q-16 0 -28 12t-12 29zM356 623q0 17 12 28.5t28 11.5q17 0 29 -12t12 -28q0 -17 -12.5 -29t-28.5 -12t-28 12t-12 29zM313 519q120 0 205.5 -80t85.5 -192v-23q0 -3 -4 -3h-49h-470
q10 -80 76.5 -131.5t155.5 -51.5q48 0 92 15t65 31l20 15l18 15q5 5 10 -1l28 -34q6 -3 0 -9l-14 -13q-96 -77 -219 -77q-120 0 -205 78t-85 189q0 112 85 192t205 80zM546 278q-11 78 -77.5 130.5t-155.5 52.5q-88 0 -153 -52t-79 -131h465z" />
    <glyph glyph-name="ntilde" unicode="&#xf1;" horiz-adv-x="904" 
d="M341 592l-47 26l-3 7q21 40 44.5 57.5t64.5 17.5q39 0 79 -27t59 -27q25 0 57 46q4 4 7 1l40 -29q3 -2 0 -8q-19 -24 -28.5 -34.5t-30 -21.5t-44.5 -11q-38 0 -76 27.5t-60 27.5q-32 0 -56 -50zM867 57q4 0 4 -4v-49l-4 -4h-149h-49h-145q-4 0 -4 4v49q0 4 4 4h141v199
q0 60 -18.5 102t-51 62.5t-66.5 29t-74 8.5q-86 0 -148 -55.5t-62 -135.5v-23v-4v-183h145q4 0 4 -4v-49l-4 -4h-149h-49h-145q-4 0 -4 4v49q0 4 4 4h141v386h-141q-4 0 -4 3v50q0 4 4 4h145h49q4 0 4 -4v-50v-26q84 95 210 95q129 0 198 -66.5t69 -192.5v-199h145z" />
    <glyph glyph-name="ograve" unicode="&#xf2;" horiz-adv-x="666" 
d="M250 700h79q5 0 8 -6l57 -93l-5 -6h-48q-3 0 -5.5 1.5t-3.5 3.5l-1 1l-87 93q-2 3 -0.5 4.5t4.5 1.5h2zM335 519q120 0 205.5 -80t85.5 -191q0 -112 -85 -190t-206 -78t-207.5 78.5t-86.5 189.5t87 191t207 80zM335 37q95 0 164.5 62.5t69.5 148.5q0 88 -69.5 151
t-164.5 63q-97 0 -167 -63t-70 -151q0 -86 70 -148.5t167 -62.5z" />
    <glyph glyph-name="oacute" unicode="&#xf3;" horiz-adv-x="666" 
d="M365 698h79l7 -2q1 -1 -1 -4l-87 -93q-4 -6 -10 -6h-48l-5 6l57 93q1 3 3 4.5t4 1.5h1zM335 519q120 0 205.5 -80t85.5 -191q0 -112 -85 -190t-206 -78t-207.5 78.5t-86.5 189.5t87 191t207 80zM335 37q95 0 164.5 62.5t69.5 148.5q0 88 -69.5 151t-164.5 63
q-97 0 -167 -63t-70 -151q0 -86 70 -148.5t167 -62.5z" />
    <glyph glyph-name="ocircumflex" unicode="&#xf4;" horiz-adv-x="666" 
d="M478 626v-60l-5 -2l-141 110l-140 -110h-4q-1 2 -1 6v54q0 7 3 9l140 108q2 3 5 0l138 -107zM335 519q120 0 205.5 -80t85.5 -191q0 -112 -85 -190t-206 -78t-207.5 78.5t-86.5 189.5t87 191t207 80zM335 37q95 0 164.5 62.5t69.5 148.5q0 88 -69.5 151t-164.5 63
q-97 0 -167 -63t-70 -151q0 -86 70 -148.5t167 -62.5z" />
    <glyph glyph-name="otilde" unicode="&#xf5;" horiz-adv-x="666" 
d="M210 592l-47 26l-3 7q21 40 44.5 57.5t64.5 17.5q39 0 79 -27t59 -27q25 0 57 46q4 4 7 1l40 -29q3 -2 0 -8q-19 -24 -28.5 -34.5t-30 -21.5t-44.5 -11q-38 0 -76 27.5t-60 27.5q-32 0 -56 -50zM335 519q120 0 205.5 -80t85.5 -191q0 -112 -85 -190t-206 -78t-207.5 78.5
t-86.5 189.5t87 191t207 80zM335 37q95 0 164.5 62.5t69.5 148.5q0 88 -69.5 151t-164.5 63q-97 0 -167 -63t-70 -151q0 -86 70 -148.5t167 -62.5z" />
    <glyph glyph-name="odieresis" unicode="&#xf6;" horiz-adv-x="666" 
d="M219 623q0 17 11.5 28.5t28.5 11.5t29 -12t12 -28q0 -17 -12 -29t-29 -12q-16 0 -28 12t-12 29zM370 623q0 17 12 28.5t28 11.5q17 0 29 -12t12 -28q0 -17 -12.5 -29t-28.5 -12t-28 12t-12 29zM335 519q120 0 205.5 -80t85.5 -191q0 -112 -85 -190t-206 -78t-207.5 78.5
t-86.5 189.5t87 191t207 80zM335 37q95 0 164.5 62.5t69.5 148.5q0 88 -69.5 151t-164.5 63q-97 0 -167 -63t-70 -151q0 -86 70 -148.5t167 -62.5z" />
    <glyph glyph-name="oslash" unicode="&#xf8;" horiz-adv-x="666" 
d="M335 519q55 0 103 -18l21 39q1 3 3 4.5t4 1.5h1h54l2 -6l-34 -63q63 -37 100 -97.5t37 -131.5q0 -112 -85 -190t-206 -78q-53 0 -101 17l-22 -42l-9 -4h-48q-4 0 -5.5 1.5t-1.5 3.5l1 1l33 62q-64 36 -102.5 97t-38.5 132q0 111 87 191t207 80zM335 462q-97 0 -167 -63
t-70 -151q0 -55 30 -102.5t81 -75.5l202 380q-41 12 -76 12zM335 37q95 0 164.5 62.5t69.5 148.5q0 55 -29 102t-78 76l-201 -378q36 -11 74 -11z" />
    <glyph glyph-name="ugrave" unicode="&#xf9;" horiz-adv-x="905" 
d="M344 700h79q5 0 8 -6l57 -93l-5 -6h-48q-3 0 -5.5 1.5t-3.5 3.5l-1 1l-87 93q-2 3 -0.5 4.5t4.5 1.5h2zM849 58q4 0 4 -4v-50q0 -4 -4 -4h-143h-50l-4 4v50v27q-80 -95 -211 -95q-125 0 -195.5 68t-70.5 189v201h-139l-4 4v48q0 4 4 4h143h50h147q4 0 4 -4v-49l-4 -3
h-143v-201q0 -59 18.5 -101t50.5 -62.5t65.5 -29t73.5 -8.5q87 0 149 55t62 135v26v186h-143q-4 1 -4 4v48l4 4h147h50h143l4 -4v-48l-4 -4h-140v-386h140z" />
    <glyph glyph-name="uacute" unicode="&#xfa;" horiz-adv-x="905" 
d="M471 698h79l7 -2q1 -1 -1 -4l-87 -93q-4 -6 -10 -6h-48l-5 6l57 93q1 3 3 4.5t4 1.5h1zM849 58q4 0 4 -4v-50q0 -4 -4 -4h-143h-50l-4 4v50v27q-80 -95 -211 -95q-125 0 -195.5 68t-70.5 189v201h-139l-4 4v48q0 4 4 4h143h50h147q4 0 4 -4v-49l-4 -3h-143v-201
q0 -59 18.5 -101t50.5 -62.5t65.5 -29t73.5 -8.5q87 0 149 55t62 135v26v186h-143q-4 1 -4 4v48l4 4h147h50h143l4 -4v-48l-4 -4h-140v-386h140z" />
    <glyph glyph-name="ucircumflex" unicode="&#xfb;" horiz-adv-x="905" 
d="M586 626v-60l-5 -2l-141 110l-140 -110h-4q-1 2 -1 6v54q0 7 3 9l140 108q2 3 5 0l138 -107zM849 58q4 0 4 -4v-50q0 -4 -4 -4h-143h-50l-4 4v50v27q-80 -95 -211 -95q-125 0 -195.5 68t-70.5 189v201h-139l-4 4v48q0 4 4 4h143h50h147q4 0 4 -4v-49l-4 -3h-143v-201
q0 -59 18.5 -101t50.5 -62.5t65.5 -29t73.5 -8.5q87 0 149 55t62 135v26v186h-143q-4 1 -4 4v48l4 4h147h50h143l4 -4v-48l-4 -4h-140v-386h140z" />
    <glyph glyph-name="udieresis" unicode="&#xfc;" horiz-adv-x="905" 
d="M326 623q0 17 12 28.5t28 11.5q17 0 29 -12t12 -28q0 -17 -12.5 -29t-28.5 -12t-28 12t-12 29zM477 623q0 17 11.5 28.5t28.5 11.5t29 -12t12 -28q0 -17 -12 -29t-29 -12q-16 0 -28 12t-12 29zM849 58q4 0 4 -4v-50q0 -4 -4 -4h-143h-50l-4 4v50v27q-80 -95 -211 -95
q-125 0 -195.5 68t-70.5 189v201h-139l-4 4v48q0 4 4 4h143h50h147q4 0 4 -4v-49l-4 -3h-143v-201q0 -59 18.5 -101t50.5 -62.5t65.5 -29t73.5 -8.5q87 0 149 55t62 135v26v186h-143q-4 1 -4 4v48l4 4h147h50h143l4 -4v-48l-4 -4h-140v-386h140z" />
    <glyph glyph-name="yacute" unicode="&#xfd;" horiz-adv-x="866" 
d="M474 698h79l7 -2q1 -1 -1 -4l-87 -93q-4 -6 -10 -6h-48l-5 6l57 93q1 3 3 4.5t3 1.5h2zM825 500q4 0 4 -4v-48l-4 -4h-136l-219 -423q-11 -23 -23.5 -46.5t-44.5 -71t-65.5 -82t-82 -61.5t-96.5 -27h-42q-4 0 -4 5v46l5 5h43q37 0 75 23t71 61t56.5 72.5t44.5 72.5
l-236 426h-139q-4 0 -4 4v48l4 4h327l4 -4v-48l-4 -4h-125l204 -365l188 365h-128l-4 4v48q0 4 4 4h327z" />
    <glyph glyph-name="ydieresis" unicode="&#xff;" horiz-adv-x="866" 
d="M311 623q0 17 11.5 28.5t28.5 11.5t29 -12t12 -28q0 -17 -12 -29t-29 -12q-16 0 -28 12t-12 29zM462 623q0 17 12 28.5t28 11.5q17 0 29 -12t12 -28q0 -17 -12.5 -29t-28.5 -12t-28 12t-12 29zM825 500q4 0 4 -4v-48l-4 -4h-136l-219 -423q-11 -23 -23.5 -46.5t-44.5 -71
t-65.5 -82t-82 -61.5t-96.5 -27h-42q-4 0 -4 5v46l5 5h43q37 0 75 23t71 61t56.5 72.5t44.5 72.5l-236 426h-139q-4 0 -4 4v48l4 4h327l4 -4v-48l-4 -4h-125l204 -365l188 365h-128l-4 4v48q0 4 4 4h327z" />
    <glyph glyph-name="OE" unicode="&#x152;" horiz-adv-x="1558" 
d="M1466 236q3 0 4 -4v-228q0 -4 -4 -4h-685q-4 0 -4 4v150q-54 -81 -143.5 -129t-193.5 -48q-166 0 -284 109t-118 266q0 153 118.5 263.5t283.5 110.5q103 0 193 -48.5t144 -130.5v150q0 3 4 3h685l4 -3v-221q0 -4 -4 -4h-51l-3 4v165h-575v-259h326v94l4 4h52q4 0 4 -4
v-251q0 -4 -4 -4h-52l-4 4v98h-326v-264h575v174l3 3h51zM440 35q128 0 224 79t113 196v83q-17 117 -113 196t-224 79q-143 0 -243.5 -92.5t-100.5 -223.5t100.5 -224t243.5 -93z" />
    <glyph glyph-name="oe" unicode="&#x153;" horiz-adv-x="1045" 
d="M706 519q120 0 205.5 -80t85.5 -192v-23q0 -3 -4 -3h-519q10 -80 76.5 -131.5t155.5 -51.5q48 0 92 15t64 31l21 15l18 15q5 5 10 -1l28 -34q6 -3 0 -9l-14 -13q-96 -77 -219 -77q-105 0 -185 61q-82 -61 -186 -61q-121 0 -207.5 78.5t-86.5 189.5t87 191t207 80
q105 0 186 -63q81 63 185 63zM335 462q-97 0 -167 -63t-70 -151q0 -86 70 -148.5t167 -62.5q79 0 143 45q-62 73 -62 165q0 96 63 168q-65 47 -144 47zM474 278h465q-11 78 -77.5 130.5t-155.5 52.5q-88 0 -153 -52t-79 -131z" />
    <glyph glyph-name="Scaron" unicode="&#x160;" horiz-adv-x="892" 
d="M310 911v60l5 2l141 -110l140 110h4q1 -2 1 -6v-54q0 -7 -3 -9l-140 -108q-2 -2 -5 0l-138 107zM434 400q9 -1 51 -6t63.5 -8t63.5 -11.5t67 -17t57.5 -24.5t50.5 -34.5t31 -46t13 -59.5q0 -24 -6 -48t-29.5 -56t-62 -55.5t-111 -40t-168.5 -16.5q-77 0 -140 10
t-98.5 24.5t-60 28.5t-32.5 24l-8 10v-70q0 -4 -4 -4h-50l-4 4v209l4 4h50l4 -4q0 -51 36.5 -88.5t93 -55.5t109 -26t100.5 -8q152 0 232.5 41t80.5 117q0 26 -12.5 46.5t-39 35.5t-53.5 25.5t-72.5 19t-77.5 13t-85 10.5q-167 18 -225 36q-130 47 -135 146q0 60 35 101.5
t95 62t119 28.5t127 8q71 0 128.5 -9t89.5 -22t53.5 -26t28.5 -22l7 -9v59q0 4 4 4h51q3 0 3 -4v-219l-3 -4h-51q-4 0 -4 4v21q0 80 -80.5 124.5t-226.5 44.5q-88 0 -153.5 -12t-110 -45t-44.5 -85q0 -16 6 -29t19 -23.5t27.5 -19t38.5 -15.5t43.5 -12t51.5 -10t54.5 -8
t58.5 -8z" />
    <glyph glyph-name="scaron" unicode="&#x161;" horiz-adv-x="636" 
d="M170 678v60l5 2l141 -110l140 110h4q1 -2 1 -6v-54q0 -7 -3 -9l-140 -108q-2 -3 -5 0l-138 107zM316 287q7 -1 22 -2q32 -3 49.5 -4.5t49 -6.5t49.5 -11.5t42 -17.5t36.5 -25.5t22 -36t9.5 -48.5q0 -47 -25.5 -79.5t-68.5 -48t-85 -21.5t-89 -6q-53 0 -96.5 7.5t-67 18.5
t-39.5 22t-21 18l-5 8v-50q0 -4 -4 -4h-48l-4 4v176q0 3 3 3h50q3 0 3 -3q0 -66 70.5 -106t158.5 -40q63 0 107.5 10.5t64.5 27.5t28 32.5t8 30.5q0 44 -53.5 63t-171.5 33q-4 1 -34.5 4t-43 4.5t-42 7.5t-44.5 11.5t-37.5 16.5t-33.5 23.5t-19.5 31.5t-8.5 41
q0 68 69.5 108t198.5 40q86 0 126.5 -15.5t80.5 -49.5v42q0 4 6 4h48q4 0 4 -4v-168l-3 -3h-49q-6 0 -6 3q0 40 -20.5 69t-54 43t-66 20t-66.5 6q-56 0 -97 -8.5t-61.5 -19t-32.5 -25.5t-14 -24t-2 -18q0 -36 51.5 -55t155.5 -29z" />
    <glyph glyph-name="Ydieresis" unicode="&#x178;" horiz-adv-x="1021" 
d="M352 792q0 16 12 28t28 12q17 0 29 -12t12 -28t-12.5 -28.5t-28.5 -12.5t-28 12t-12 29zM589 792q0 16 11.5 28t28.5 12t29 -12t12 -28t-12 -28.5t-29 -12.5q-16 0 -28 12t-12 29zM989 700q4 0 4 -4v-51l-4 -5h-134l-315 -340v-241h149q4 0 4 -5v-50l-4 -4h-353
q-4 0 -4 4v50q0 5 4 5h145v241l-326 340h-126q-4 0 -4 5v51l4 4h353l4 -4v-51l-4 -5h-144l270 -287l265 287h-138q-5 0 -5 5v51q0 4 5 4h354z" />
    <glyph glyph-name="Zcaron" unicode="&#x17d;" horiz-adv-x="934" 
d="M330 911v60l5 2l141 -110l140 110h4q1 -2 1 -6v-54q0 -7 -3 -9l-140 -108q-2 -2 -5 0l-138 107zM876 259l4 -4v-251q0 -4 -4 -4h-830q-4 0 -4 4v82l6 8l761 547h-684v-196q0 -4 -4 -4h-51q-4 0 -4 4v251q0 4 4 4h794l4 -4v-82l-4 -7l-763 -548h720v196l4 4h51z" />
    <glyph glyph-name="zcaron" unicode="&#x17e;" horiz-adv-x="698" 
d="M211 678v60l5 2l141 -110l140 110h4q1 -2 1 -6v-54q0 -7 -3 -9l-140 -108q-3 -3 -5 0l-138 107zM643 195q4 0 4 -5v-186l-4 -4h-591q-4 0 -4 4v62l4 6l511 370h-439v-137q0 -4 -4 -4h-49l-4 4v191q0 4 4 4h560l4 -4v-69l-3 -6l-508 -364h466v133l4 5h49z" />
    <glyph glyph-name="tilde" unicode="&#x2dc;" horiz-adv-x="533" 
d="M146 592l-47 26l-3 7q21 40 44.5 57.5t64.5 17.5q39 0 79 -27t59 -27q25 0 57 46q4 4 7 1l40 -29q3 -2 0 -8q-19 -24 -28.5 -34.5t-30 -21.5t-44.5 -11q-38 0 -76 27.5t-60 27.5q-32 0 -56 -50z" />
    <glyph glyph-name="endash" unicode="&#x2013;" horiz-adv-x="448" 
d="M44 300h361q5 0 5 -6v-46l-5 -6h-361q-3 0 -4.5 1.5t-1.5 2.5v2v46q0 3 1.5 4.5t2.5 1.5h2z" />
    <glyph glyph-name="emdash" unicode="&#x2014;" horiz-adv-x="626" 
d="M44 300h531q5 0 5 -6v-46l-5 -6h-531q-3 0 -4.5 1.5t-1.5 2.5v2v46q0 3 1.5 4.5t2.5 1.5h2z" />
    <glyph glyph-name="quoteleft" unicode="&#x2018;" horiz-adv-x="137" 
d="M95 534h-53q-5 0 -5 6v89q0 7 1 14.5t6 23t18.5 25t33.5 9.5q5 0 5 -5v-10l-5 -6q-12 0 -18.5 -13t-7.5 -25v-13h25q3 0 4.5 -1.5t1.5 -3.5v-1v-83q0 -3 -1.5 -4.5t-3.5 -1.5h-1z" />
    <glyph glyph-name="quoteright" unicode="&#x2019;" horiz-adv-x="144" 
d="M47 701h53q5 0 5 -6v-89q0 -7 -1 -14.5t-6 -23t-18.5 -25t-33.5 -9.5q-5 0 -5 5v10l5 6q12 0 18.5 12.5t7.5 25.5v13h-25q-3 0 -4.5 1.5t-1.5 2.5v2v83q0 3 1.5 4.5t3.5 1.5h1z" />
    <glyph glyph-name="quotesinglbase" unicode="&#x201a;" horiz-adv-x="222" 
d="M81 95h53q5 0 5 -6v-89q0 -7 -1 -14.5t-6 -23t-18.5 -25t-33.5 -9.5q-5 0 -5 5v10l5 6q12 0 18.5 12.5t7.5 25.5v13h-25q-3 0 -4.5 1.5t-1.5 2.5v2v83q0 3 1.5 4.5t3.5 1.5h1z" />
    <glyph glyph-name="quotedblleft" unicode="&#x201c;" horiz-adv-x="249" 
d="M95 534h-53q-5 0 -5 6v89q0 7 1 14.5t6 23t18.5 25t33.5 9.5q5 0 5 -5v-10l-5 -6q-12 0 -18.5 -13t-7.5 -25v-13h25q3 0 4.5 -1.5t1.5 -3.5v-1v-83q0 -3 -1.5 -4.5t-3.5 -1.5h-1zM196 534h-53q-5 0 -5 6v89q0 7 1 14.5t6 23t18.5 25t33.5 9.5q5 0 5 -5v-10l-5 -6
q-12 0 -18.5 -13t-6.5 -25l-1 -13h25q3 0 4.5 -1.5t1.5 -3.5v-1v-83q0 -3 -1.5 -4.5t-2.5 -1.5h-2z" />
    <glyph glyph-name="quotedblright" unicode="&#x201d;" horiz-adv-x="248" 
d="M47 701h53q5 0 5 -6v-89q0 -7 -1 -14.5t-6 -23t-18.5 -25t-33.5 -9.5q-5 0 -5 5v10l5 6q12 0 18.5 12.5t7.5 25.5v13h-25q-3 0 -4.5 1.5t-1.5 2.5v2v83q0 3 1.5 4.5t3.5 1.5h1zM146 701h53q5 0 5 -6v-89q0 -7 -1 -14.5t-6 -23t-18.5 -25t-33.5 -9.5q-5 0 -5 5v10l5 6
q12 0 18.5 12.5t6.5 25.5l1 13h-25q-3 0 -4.5 1.5t-1.5 2.5v2v83q0 3 1.5 4.5t2.5 1.5h2z" />
    <glyph glyph-name="quotedblbase" unicode="&#x201e;" horiz-adv-x="259" 
d="M47 95h53q5 0 5 -6v-89q0 -7 -1 -14.5t-6 -23t-18.5 -25t-33.5 -9.5q-5 0 -5 5v10l5 6q12 0 18.5 12.5t7.5 25.5v13h-25q-3 0 -4.5 1.5t-1.5 2.5v2v83q0 3 1.5 4.5t3.5 1.5h1zM152 95h53q5 0 5 -6v-89q0 -7 -1 -14.5t-6 -23t-18.5 -25t-33.5 -9.5q-5 0 -5 5v10l5 6
q12 0 18.5 12.5t6.5 25.5l1 13h-25q-3 0 -4.5 1.5t-1.5 2.5v2v83q0 3 1.5 4.5t2.5 1.5h2z" />
    <glyph glyph-name="bullet" unicode="&#x2022;" horiz-adv-x="273" 
d="M61 301q0 31 22.5 54t54.5 23t55.5 -23t23.5 -54t-23.5 -55t-55.5 -24q-31 0 -54 23.5t-23 55.5z" />
    <glyph glyph-name="ellipsis" unicode="&#x2026;" horiz-adv-x="657" 
d="M81 95h53q5 0 5 -6v-83l-5 -6h-53q-3 0 -4.5 1.5t-1.5 2.5v2v83q0 3 1.5 4.5t3.5 1.5h1zM300 95h53q5 0 5 -6v-83l-5 -6h-53q-3 0 -4.5 1.5t-1.5 2.5v2v83q0 3 1.5 4.5t2.5 1.5h2zM519 95h53q5 0 5 -6v-83l-5 -6h-53q-3 0 -4.5 1.5t-1.5 2.5v2v83q0 3 1.5 4.5t3.5 1.5h1z
M81 95h53q5 0 5 -6v-83l-5 -6h-53q-3 0 -4.5 1.5t-1.5 2.5v2v83q0 3 1.5 4.5t3.5 1.5h1z" />
    <glyph glyph-name="perthousand" unicode="&#x2030;" horiz-adv-x="973" 
d="M49 586q0 51 35.5 87t86.5 36t87 -36t36 -87t-36 -86.5t-87 -35.5t-86.5 35.5t-35.5 86.5zM104 585q0 -29 20 -48.5t48 -19.5t48 19.5t20 48.5t-20 48.5t-48 19.5t-48 -19.5t-20 -48.5zM385 114q0 51 35.5 87t86.5 36t87 -36t36 -87t-36 -86.5t-87 -35.5t-86.5 35.5
t-35.5 86.5zM440 113q0 -29 20 -48.5t48 -19.5t48 19.5t20 48.5t-20 48.5t-48 19.5t-48 -19.5t-20 -48.5zM686 114q0 51 35.5 87t86.5 36t87 -36t36 -87t-36 -86.5t-87 -35.5t-86.5 35.5t-35.5 86.5zM741 113q0 -29 19.5 -48.5t48.5 -19.5t48.5 19.5t19.5 48.5t-19.5 48.5
t-48.5 19.5t-48.5 -19.5t-19.5 -48.5zM489 701h54l2 -6l-369 -690l-9 -4h-48q-4 0 -5.5 1.5t-1.5 3.5l1 1l368 688q1 3 3 4.5t4 1.5h1z" />
    <glyph glyph-name="guilsinglleft" unicode="&#x2039;" horiz-adv-x="395" 
d="M228 445h79l2 -5l-179 -140l-1 -1l180 -140v-4q-2 -1 -6 -1h-73q-7 0 -9 3l-179 141q-4 4 1 4l177 138z" />
    <glyph glyph-name="guilsinglright" unicode="&#x203a;" horiz-adv-x="372" 
d="M45 445h79q5 0 8 -5l177 -138q5 0 1 -4l-179 -141l-9 -3h-73q-7 1 -6 5l180 140l-1 1l-179 140z" />
    <glyph glyph-name="fraction" unicode="&#x2044;" horiz-adv-x="522" 
d="M418 701h54l2 -6l-369 -690l-9 -4h-48q-4 0 -5.5 1.5t-0.5 3.5v1l368 688q1 3 3 4.5t3 1.5h2z" />
    <glyph glyph-name="Euro" unicode="&#x20ac;" horiz-adv-x="1026" 
d="M221 439h307q1 0 2 -0.5t3.5 -2.5t-0.5 -6l-23 -49q-2 -5 -10 -5h-292q-1 -9 -1 -27t1 -26h269q1 0 2 -0.5t3.5 -2.5t-0.5 -6l-23 -49q-2 -5 -10 -5h-228q33 -100 127.5 -163.5t216.5 -63.5q98 0 183 42t132 114l28 42l2 1q1 2 2.5 2.5t4.5 -0.5l38 -25q2 -1 2.5 -3
t0.5 -4l-1 -1l-28 -43q-59 -85 -155.5 -134.5t-208.5 -49.5q-145 0 -258 81t-147 205h-99l-3 5l25 54q1 4 7 4h59q-1 8 -1 26t1 27h-84l-3 5l25 54q1 4 7 4h66q34 124 147 205t258 81q108 0 197 -43q78 -38 144 -109v121q0 4 4 4h51q4 0 4 -4v-220l-4 -4h-51q-6 0 -8 3
l-27 41q-50 71 -132 111.5t-178 40.5q-121 0 -216 -63.5t-128 -163.5z" />
    <glyph glyph-name="minus" unicode="&#x2212;" horiz-adv-x="504" 
d="M44 342h405q5 0 5 -6v-46l-5 -6h-405q-3 0 -4.5 1.5t-1.5 2.5v2v46q0 3 1.5 4.5t2.5 1.5h2z" />
    <glyph glyph-name="_0127" horiz-adv-x="0" 
 />
    </font>
</defs>
</svg>
